<svg width="231" height="37" viewBox="0 0 231 37" fill="none" xmlns="http://www.w3.org/2000/svg">
<g opacity="0.5">
<rect x="0.355713" y="0.574219" width="229.92" height="35.4715" rx="17.7357" fill="white" fill-opacity="0.12"/>
<rect x="0.695299" y="0.913804" width="229.241" height="34.7923" rx="17.3961" stroke="white" stroke-opacity="0.12" stroke-width="0.679171"/>
<path opacity="0.7" d="M17.6514 21.4425C17.0157 21.4425 16.4669 21.3042 16.0048 21.0275C15.5457 20.7509 15.191 20.3639 14.9409 19.8665C14.6937 19.3691 14.57 18.7908 14.57 18.1315C14.57 17.4723 14.6937 16.894 14.9409 16.3966C15.191 15.8992 15.5457 15.5122 16.0048 15.2355C16.4669 14.9589 17.0157 14.8206 17.6514 14.8206C18.2872 14.8206 18.8346 14.9589 19.2937 15.2355C19.7557 15.5122 20.1104 15.8992 20.3576 16.3966C20.6078 16.894 20.7328 17.4723 20.7328 18.1315C20.7328 18.7908 20.6078 19.3691 20.3576 19.8665C20.1104 20.3639 19.7557 20.7509 19.2937 21.0275C18.8346 21.3042 18.2872 21.4425 17.6514 21.4425ZM17.6514 20.3124C18.0547 20.3182 18.3902 20.2314 18.658 20.0519C18.9258 19.8724 19.1259 19.6178 19.2584 19.2882C19.3938 18.9585 19.4614 18.573 19.4614 18.1315C19.4614 17.6901 19.3938 17.3075 19.2584 16.9837C19.1259 16.66 18.9258 16.4084 18.658 16.2288C18.3902 16.0493 18.0547 15.9566 17.6514 15.9507C17.2482 15.9448 16.9127 16.0317 16.6449 16.2112C16.3771 16.3907 16.1755 16.6453 16.0401 16.9749C15.9077 17.3045 15.8415 17.6901 15.8415 18.1315C15.8415 18.573 15.9077 18.9556 16.0401 19.2793C16.1755 19.6031 16.3771 19.8547 16.6449 20.0342C16.9127 20.2138 17.2482 20.3065 17.6514 20.3124ZM23.2693 21.3101V16.0743H21.2651V14.953H26.4743V16.0743H24.4701V21.3101H23.2693ZM32.1186 21.4425C31.4829 21.4425 30.934 21.3042 30.472 21.0275C30.0129 20.7509 29.6582 20.3639 29.408 19.8665C29.1608 19.3691 29.0372 18.7908 29.0372 18.1315C29.0372 17.4723 29.1608 16.894 29.408 16.3966C29.6582 15.8992 30.0129 15.5122 30.472 15.2355C30.934 14.9589 31.4829 14.8206 32.1186 14.8206C32.8485 14.8206 33.4607 15.0016 33.9551 15.3636C34.4525 15.7256 34.8027 16.2156 35.0058 16.8336L33.7962 17.1692C33.6785 16.7836 33.4798 16.4849 33.2002 16.273C32.9206 16.0581 32.5601 15.9507 32.1186 15.9507C31.7154 15.9507 31.3784 16.0405 31.1077 16.22C30.8399 16.3995 30.6383 16.6526 30.5029 16.9793C30.3675 17.306 30.2998 17.6901 30.2998 18.1315C30.2998 18.573 30.3675 18.9571 30.5029 19.2838C30.6383 19.6104 30.8399 19.8635 31.1077 20.0431C31.3784 20.2226 31.7154 20.3124 32.1186 20.3124C32.5601 20.3124 32.9206 20.2049 33.2002 19.9901C33.4798 19.7752 33.6785 19.4765 33.7962 19.0939L35.0058 19.4294C34.8027 20.0475 34.4525 20.5375 33.9551 20.8995C33.4607 21.2615 32.8485 21.4425 32.1186 21.4425ZM39.0592 21.4425C38.4235 21.4425 37.8746 21.3042 37.4126 21.0275C36.9535 20.7509 36.5988 20.3639 36.3486 19.8665C36.1014 19.3691 35.9778 18.7908 35.9778 18.1315C35.9778 17.4723 36.1014 16.894 36.3486 16.3966C36.5988 15.8992 36.9535 15.5122 37.4126 15.2355C37.8746 14.9589 38.4235 14.8206 39.0592 14.8206C39.6949 14.8206 40.2423 14.9589 40.7015 15.2355C41.1635 15.5122 41.5182 15.8992 41.7654 16.3966C42.0155 16.894 42.1406 17.4723 42.1406 18.1315C42.1406 18.7908 42.0155 19.3691 41.7654 19.8665C41.5182 20.3639 41.1635 20.7509 40.7015 21.0275C40.2423 21.3042 39.6949 21.4425 39.0592 21.4425ZM39.0592 20.3124C39.4624 20.3182 39.7979 20.2314 40.0658 20.0519C40.3336 19.8724 40.5337 19.6178 40.6661 19.2882C40.8015 18.9585 40.8692 18.573 40.8692 18.1315C40.8692 17.6901 40.8015 17.3075 40.6661 16.9837C40.5337 16.66 40.3336 16.4084 40.0658 16.2288C39.7979 16.0493 39.4624 15.9566 39.0592 15.9507C38.656 15.9448 38.3205 16.0317 38.0527 16.2112C37.7849 16.3907 37.5833 16.6453 37.4479 16.9749C37.3154 17.3045 37.2492 17.6901 37.2492 18.1315C37.2492 18.573 37.3154 18.9556 37.4479 19.2793C37.5833 19.6031 37.7849 19.8547 38.0527 20.0342C38.3205 20.2138 38.656 20.3065 39.0592 20.3124ZM42.8494 22.3696V20.1887C43.0407 20.1887 43.2026 20.1417 43.3351 20.0475C43.4704 19.9504 43.5808 19.815 43.6661 19.6413C43.7515 19.4647 43.8192 19.2587 43.8692 19.0233C43.9193 18.7878 43.956 18.5318 43.9796 18.2551C44.009 17.902 44.0355 17.5547 44.059 17.2133C44.0826 16.869 44.1061 16.5128 44.1297 16.145C44.1532 15.7741 44.1797 15.3739 44.2091 14.9442L48.4295 14.953V20.1887H48.9151V22.3696H47.7143V21.3101H44.0502V22.3696H42.8494ZM44.6418 20.1887H47.2287V16.0743L45.304 16.0655C45.2834 16.3569 45.2657 16.6247 45.251 16.869C45.2392 17.1132 45.2245 17.3605 45.2068 17.6106C45.1892 17.8608 45.1656 18.1404 45.1362 18.4494C45.1068 18.7584 45.0774 19.013 45.0479 19.2131C45.0185 19.4103 44.9729 19.5825 44.9111 19.7296C44.8522 19.8768 44.7624 20.0298 44.6418 20.1887ZM49.7966 21.3101L51.739 14.953H53.5314L55.4738 21.3101H54.2377L52.5072 15.7035H52.7367L51.0327 21.3101H49.7966ZM50.9621 19.9857V18.8644H54.3172V19.9857H50.9621ZM57.5667 21.3101V16.0743H55.5625V14.953H60.7717V16.0743H58.7675V21.3101H57.5667ZM61.8344 21.3101V14.953H65.9841V16.0743H63.0351V17.434H65.4543V18.5553H63.0351V20.1887H65.9841V21.3101H61.8344ZM66.9539 21.3101V20.3124C67.0893 20.3212 67.2041 20.3094 67.2983 20.277C67.3924 20.2447 67.4719 20.1858 67.5367 20.1005C67.6043 20.0122 67.6632 19.8915 67.7132 19.7385C67.7633 19.5825 67.8104 19.3882 67.8545 19.1557C67.9251 18.7878 67.984 18.4008 68.0311 17.9947C68.0811 17.5856 68.1223 17.1853 68.1547 16.7939C68.1871 16.4025 68.2121 16.0464 68.2297 15.7256C68.2474 15.4018 68.2607 15.1443 68.2695 14.953H72.6046V21.3101H71.4039V16.0743H69.3731C69.3614 16.2391 69.3452 16.454 69.3246 16.7189C69.3069 16.9837 69.2819 17.2766 69.2495 17.5974C69.2171 17.9182 69.1774 18.2507 69.1303 18.5951C69.0832 18.9394 69.0258 19.2735 68.9582 19.5972C68.8964 19.9121 68.8213 20.1917 68.733 20.436C68.6447 20.6773 68.527 20.876 68.3798 21.0319C68.2356 21.185 68.0487 21.2865 67.8192 21.3365C67.5896 21.3866 67.3012 21.3777 66.9539 21.3101ZM74.198 21.3101V14.953H78.3478V16.0743H75.3988V17.434H77.818V18.5553H75.3988V20.1887H78.3478V21.3101H74.198ZM79.7591 21.3101V14.953H80.9775V19.191L83.741 14.953H84.9595V21.3101H83.741V17.072L80.9775 21.3101H79.7591ZM82.3372 14.4233C82.0782 14.4233 81.8428 14.36 81.6309 14.2334C81.419 14.1069 81.2497 13.9377 81.1232 13.7258C80.9966 13.5139 80.9334 13.2784 80.9334 13.0194H81.8604C81.8604 13.1519 81.906 13.2652 81.9973 13.3593C82.0915 13.4506 82.2048 13.4962 82.3372 13.4962C82.4696 13.4962 82.5815 13.4506 82.6727 13.3593C82.7669 13.2652 82.814 13.1519 82.814 13.0194H83.741C83.741 13.2784 83.6778 13.5139 83.5512 13.7258C83.4247 13.9377 83.2554 14.1069 83.0435 14.2334C82.8316 14.36 82.5962 14.4233 82.3372 14.4233Z" fill="#C8D4EE"/>
<g clip-path="url(#clip0_253_16839)">
<path d="M92.7437 9.40356V27.2166H136.607V9.40356H92.7437ZM134.916 25.5585H94.4195V11.0616H134.916V25.5585V25.5585Z" fill="#C8D4EE"/>
<path d="M102.741 20.8915C104.177 20.3031 104.859 18.6746 104.264 17.2542C103.669 15.8338 102.023 15.1593 100.588 15.7476C99.1521 16.336 98.4704 17.9645 99.065 19.3849C99.6597 20.8053 101.306 21.4798 102.741 20.8915Z" fill="#C8D4EE"/>
<path d="M111.366 20.889C112.802 20.3007 113.483 18.6722 112.889 17.2518C112.294 15.8313 110.648 15.1568 109.212 15.7452C107.777 16.3336 107.095 17.962 107.69 19.3825C108.284 20.8029 109.93 21.4774 111.366 20.889Z" fill="#C8D4EE"/>
<path d="M119.991 20.8863C121.426 20.298 122.108 18.6695 121.513 17.2491C120.919 15.8287 119.273 15.1541 117.837 15.7425C116.402 16.3309 115.72 17.9593 116.315 19.3798C116.909 20.8002 118.555 21.4747 119.991 20.8863Z" fill="#C8D4EE"/>
<path d="M128.601 20.8895C130.037 20.3011 130.718 18.6727 130.124 17.2523C129.529 15.8318 127.883 15.1573 126.448 15.7457C125.012 16.3341 124.33 17.9625 124.925 19.3829C125.52 20.8034 127.165 21.4779 128.601 20.8895Z" fill="#C8D4EE"/>
<path d="M142.357 14.6973H144.356L146.047 19.1695H146.124L147.815 14.6973H149.814V21.9077H148.245V17.481H148.184L146.6 21.8772H145.601L144.002 17.4658H143.94V21.9229H142.372V14.6973H142.357Z" fill="#C8D4EE"/>
<path d="M155.825 14.6973H157.501V19.4586C157.501 20.0062 157.378 20.4625 157.132 20.8428C156.886 21.2231 156.548 21.5121 156.102 21.6947C155.656 21.8924 155.148 21.9837 154.564 21.9837C153.98 21.9837 153.457 21.8924 153.027 21.6947C152.581 21.4969 152.243 21.2079 151.997 20.8428C151.751 20.4625 151.628 20.0062 151.628 19.4586V14.6973H153.304V19.3977C153.304 19.7172 153.427 19.991 153.657 20.1735C153.888 20.3713 154.195 20.4625 154.564 20.4625C154.949 20.4625 155.256 20.3713 155.487 20.1735C155.717 19.9758 155.84 19.7172 155.84 19.3977V14.6973H155.825Z" fill="#C8D4EE"/>
<path d="M159.177 21.9229V14.6973H160.852V20.5082H163.743V21.9229H159.177Z" fill="#C8D4EE"/>
<path d="M163.958 16.1271V14.7124H169.416V16.1271H167.463V21.9228H165.926V16.1271H163.958Z" fill="#C8D4EE"/>
<path d="M172.614 14.6973V21.9076H170.938V14.6973H172.614Z" fill="#C8D4EE"/>
<path d="M174.674 21.9229V14.6973H179.132V16.112H176.242V17.5875H178.84V19.0022H176.242V21.9077H174.674V21.9229Z" fill="#C8D4EE"/>
<path d="M181.331 21.9228H179.44L181.885 14.7124H184.222L186.682 21.9228H184.79L184.314 20.4016H181.808L181.331 21.9228ZM182.223 19.0782H183.899L183.084 16.5226H183.022L182.223 19.0782Z" fill="#C8D4EE"/>
<path d="M192.662 17.2527C192.539 16.9029 192.339 16.6595 192.078 16.4465C191.817 16.2335 191.478 16.1271 191.063 16.1271C190.51 16.1271 190.064 16.3248 189.756 16.7051C189.433 17.0854 189.28 17.6178 189.28 18.3023C189.28 19.0173 189.433 19.5649 189.756 19.93C190.079 20.2951 190.51 20.4776 191.048 20.4776C191.448 20.4776 191.786 20.3864 192.047 20.1886C192.309 19.9909 192.57 19.7323 192.677 19.4432L194.2 20.143C194.2 20.143 194.138 20.2799 194.107 20.3407C193.938 20.645 193.723 20.934 193.431 21.1926C193.139 21.4512 192.8 21.6489 192.401 21.8011C192.001 21.9532 191.524 22.0292 191.002 22.0292C190.31 22.0292 189.695 21.8923 189.141 21.6033C188.588 21.3143 188.157 20.9036 187.85 20.3407C187.527 19.7931 187.373 19.1238 187.373 18.3328C187.373 17.5418 187.527 16.8572 187.85 16.3096C188.173 15.762 188.603 15.336 189.157 15.047C189.71 14.758 190.325 14.6211 191.002 14.6211C191.617 14.6211 192.17 14.7276 192.662 14.9405C193.154 15.1535 193.554 15.4577 193.846 15.8685C194 16.0662 194.215 16.5378 194.215 16.5378L192.662 17.2527Z" fill="#C8D4EE"/>
<path d="M195.306 16.1271V14.7124H200.764V16.1271H198.812V21.9228H197.274V16.1271H195.306Z" fill="#C8D4EE"/>
<path d="M209.374 18.3176C209.374 19.1086 209.205 19.7779 208.867 20.3407C208.529 20.8884 208.067 21.3143 207.499 21.6033C206.93 21.8923 206.284 22.0292 205.561 22.0292C204.839 22.0292 204.193 21.8923 203.624 21.6033C203.055 21.3143 202.594 20.9036 202.256 20.3407C201.918 19.7931 201.749 19.1238 201.749 18.3328C201.749 17.5418 201.918 16.8572 202.256 16.3096C202.594 15.762 203.04 15.336 203.624 15.047C204.193 14.758 204.854 14.6211 205.561 14.6211C206.284 14.6211 206.93 14.758 207.499 15.047C208.067 15.336 208.529 15.7468 208.867 16.3096C209.205 16.842 209.374 17.5113 209.374 18.3176ZM207.652 18.3176C207.652 17.6178 207.468 17.0702 207.099 16.7051C206.73 16.34 206.207 16.1423 205.561 16.1423C204.9 16.1423 204.393 16.3248 204.024 16.7051C203.655 17.0702 203.47 17.6178 203.47 18.3176C203.47 19.0173 203.655 19.5649 204.024 19.93C204.393 20.2951 204.916 20.4928 205.561 20.4928C206.222 20.4928 206.73 20.3103 207.099 19.93C207.468 19.5497 207.652 19.0173 207.652 18.3176Z" fill="#C8D4EE"/>
<path d="M210.988 21.9229V14.6973H213.894C214.417 14.6973 214.878 14.7885 215.262 14.9863C215.647 15.184 215.939 15.4579 216.154 15.8229C216.369 16.188 216.462 16.614 216.462 17.1007C216.462 17.6027 216.354 18.0286 216.139 18.3785C215.923 18.7284 215.631 18.987 215.232 19.1695L216.692 21.9229H214.832L213.556 19.4433H212.679V21.9077H210.988V21.9229ZM212.679 18.0743H213.51C213.894 18.0743 214.186 17.9982 214.386 17.8461C214.586 17.694 214.678 17.4506 214.678 17.1159C214.678 16.4466 214.294 16.112 213.51 16.112H212.679V18.0743Z" fill="#C8D4EE"/>
</g>
</g>
<defs>
<clipPath id="clip0_253_16839">
<rect width="123.949" height="17.813" fill="white" transform="translate(92.7437 9.40356)"/>
</clipPath>
</defs>
</svg>
