<svg width="32" height="33" viewBox="0 0 32 33" fill="none" xmlns="http://www.w3.org/2000/svg">
  <g clip-path="url(#clip0_253_16822)">
    <path d="M16 32.4258C24.8366 32.4258 32 25.2623 32 16.4258C32 7.58923 24.8366 0.425781 16 0.425781C7.16344 0.425781 0 7.58923 0 16.4258C0 25.2623 7.16344 32.4258 16 32.4258Z"/>
    <path d="M16.2972 22.0359C9.93903 22.0359 6.31377 17.6856 6.16504 10.4351H9.3627C9.46495 15.7521 11.8074 18.0016 13.6665 18.4664V10.4351H16.669V15.0178C18.5002 14.8226 20.4337 12.7311 21.0844 10.4258H24.0775C23.8335 11.6191 23.346 12.7493 22.6454 13.7457C21.9449 14.7421 21.0464 15.5834 20.0061 16.2169C21.167 16.7947 22.1923 17.6121 23.0143 18.6151C23.8362 19.6182 24.4362 20.784 24.7747 22.0359H21.4748C20.7683 19.8329 19.0022 18.1225 16.669 17.8901V22.0359H16.3065H16.2972Z" fill="#050611"/>
  </g>
  <defs>
    <clipPath id="clip0_253_16822">
      <rect y="0.425781" width="32" height="32" rx="16" fill="#050611"/>
    </clipPath>
  </defs>
</svg>