<svg width="1024" height="265" viewBox="0 0 1024 265" fill="none" xmlns="http://www.w3.org/2000/svg">
<rect x="4" y="110" width="1" height="1" fill="#254E71"/>
<rect x="14" y="110" width="1" height="1" fill="#254E71"/>
<rect x="4" y="100" width="1" height="1" fill="#254E71"/>
<rect x="24" y="100" width="1" height="1" fill="#254E71"/>
<rect x="34" y="100" width="1" height="1" fill="#254E71"/>
<rect x="54" y="100" width="1" height="1" fill="#254E71"/>
<rect x="64" y="100" width="1" height="1" fill="#254E71"/>
<rect x="4" y="90" width="1" height="1" fill="#254E71"/>
<rect x="14" y="90" width="1" height="1" fill="#254E71"/>
<rect x="24" y="90" width="1" height="1" fill="#254E71"/>
<rect x="34" y="90" width="1" height="1" fill="#254E71"/>
<rect x="44" y="90" width="1" height="1" fill="#6695BD"/>
<rect x="54" y="90" width="1" height="1" fill="#254E71"/>
<rect x="64" y="90" width="1" height="1" fill="#254E71"/>
<rect x="74" y="90" width="1" height="1" fill="#254E71"/>
<rect x="84" y="90" width="1" height="1" fill="#254E71"/>
<rect x="94" y="90" width="1" height="1" fill="#6695BD"/>
<rect x="104" y="90" width="1" height="1" fill="#254E71"/>
<rect x="114" y="90" width="1" height="1" fill="#254E71"/>
<rect x="124" y="90" width="1" height="1" fill="#254E71"/>
<rect x="134" y="90" width="1" height="1" fill="#254E71"/>
<rect x="144" y="90" width="1" height="1" fill="#D5FF2F"/>
<rect x="154" y="90" width="1" height="1" fill="#254E71"/>
<rect x="164" y="90" width="1" height="1" fill="#254E71"/>
<rect x="174" y="90" width="1" height="1" fill="#254E71"/>
<rect x="4" y="80" width="1" height="1" fill="#254E71"/>
<rect x="14" y="80" width="1" height="1" fill="#254E71"/>
<rect x="24" y="80" width="1" height="1" fill="#254E71"/>
<rect x="44" y="80" width="1" height="1" fill="#254E71"/>
<rect x="54" y="80" width="1" height="1" fill="#254E71"/>
<rect x="64" y="80" width="1" height="1" fill="#254E71"/>
<rect x="84" y="80" width="1" height="1" fill="#254E71"/>
<rect x="94" y="80" width="1" height="1" fill="#254E71"/>
<rect x="104" y="80" width="1" height="1" fill="#254E71"/>
<rect x="124" y="80" width="1" height="1" fill="#254E71"/>
<rect x="134" y="80" width="1" height="1" fill="#254E71"/>
<rect x="144" y="80" width="1" height="1" fill="#254E71"/>
<rect x="154" y="80" width="1" height="1" fill="#254E71"/>
<rect x="164" y="80" width="1" height="1" fill="#6695BD"/>
<rect x="174" y="80" width="1" height="1" fill="#254E71"/>
<rect x="194" y="80" width="1" height="1" fill="#254E71"/>
<rect x="204" y="80" width="1" height="1" fill="#254E71"/>
<rect x="214" y="80" width="1" height="1" fill="#6695BD"/>
<rect x="4" y="70" width="1" height="1" fill="#254E71"/>
<rect x="24" y="70" width="1" height="1" fill="#254E71"/>
<rect x="34" y="70" width="1" height="1" fill="#254E71"/>
<rect x="54" y="70" width="1" height="1" fill="#6695BD"/>
<rect x="64" y="70" width="1" height="1" fill="#254E71"/>
<rect x="74" y="70" width="1" height="1" fill="#254E71"/>
<rect x="84" y="70" width="1" height="1" fill="#254E71"/>
<rect x="104" y="70" width="1" height="1" fill="#254E71"/>
<rect x="114" y="70" width="1" height="1" fill="#254E71"/>
<rect x="124" y="70" width="1" height="1" fill="#254E71"/>
<rect x="134" y="70" width="1" height="1" fill="#254E71"/>
<rect x="154" y="70" width="1" height="1" fill="#254E71"/>
<rect x="164" y="70" width="1" height="1" fill="#254E71"/>
<rect x="174" y="70" width="1" height="1" fill="#254E71"/>
<rect x="184" y="70" width="1" height="1" fill="#254E71"/>
<rect x="194" y="70" width="1" height="1" fill="#254E71"/>
<rect x="204" y="70" width="1" height="1" fill="#254E71"/>
<rect x="214" y="70" width="1" height="1" fill="#254E71"/>
<rect x="4" y="60" width="1" height="1" fill="#254E71"/>
<rect x="24" y="60" width="1" height="1" fill="#254E71"/>
<rect x="34" y="60" width="1" height="1" fill="#6695BD"/>
<rect x="44" y="60" width="1" height="1" fill="#254E71"/>
<rect x="54" y="60" width="1" height="1" fill="#254E71"/>
<rect x="64" y="60" width="1" height="1" fill="#254E71"/>
<rect x="84" y="60" width="1" height="1" fill="#254E71"/>
<rect x="94" y="60" width="1" height="1" fill="#254E71"/>
<rect x="104" y="60" width="1" height="1" fill="#254E71"/>
<rect x="114" y="60" width="1" height="1" fill="#254E71"/>
<rect x="154" y="60" width="1" height="1" fill="#254E71"/>
<rect x="164" y="60" width="1" height="1" fill="#254E71"/>
<rect x="174" y="60" width="1" height="1" fill="#254E71"/>
<rect x="184.213" y="60.213" width="0.57398" height="0.57398" fill="#254E71" stroke="#53ABF7" stroke-width="0.42602"/>
<rect x="214" y="60" width="1" height="1" fill="#254E71"/>
<rect x="224" y="60" width="1" height="1" fill="#254E71"/>
<rect x="234" y="60" width="1" height="1" fill="#254E71"/>
<rect x="244" y="60" width="1" height="1" fill="#254E71"/>
<rect x="264" y="60" width="1" height="1" fill="#254E71"/>
<rect x="4" y="50" width="1" height="1" fill="#254E71"/>
<rect x="14" y="50" width="1" height="1" fill="#254E71"/>
<rect x="24" y="50" width="1" height="1" fill="#254E71"/>
<rect x="54" y="50" width="1" height="1" fill="#254E71"/>
<rect x="64" y="50" width="1" height="1" fill="#254E71"/>
<rect x="74" y="50" width="1" height="1" fill="#254E71"/>
<rect x="84" y="50" width="1" height="1" fill="#254E71"/>
<rect x="94" y="50" width="1" height="1" fill="#254E71"/>
<rect x="104" y="50" width="1" height="1" fill="#254E71"/>
<rect x="114" y="50" width="1" height="1" fill="#254E71"/>
<rect x="124" y="50" width="1" height="1" fill="#254E71"/>
<rect x="144" y="50" width="1" height="1" fill="#254E71"/>
<rect x="154" y="50" width="1" height="1" fill="#254E71"/>
<rect x="164" y="50" width="1" height="1" fill="#254E71"/>
<rect x="174" y="50" width="1" height="1" fill="#254E71"/>
<rect x="184" y="50" width="1" height="1" fill="#6695BD"/>
<rect x="194" y="50" width="1" height="1" fill="#254E71"/>
<rect x="204" y="50" width="1" height="1" fill="#254E71"/>
<rect x="214" y="50" width="1" height="1" fill="#254E71"/>
<rect x="224" y="50" width="1" height="1" fill="#254E71"/>
<rect x="234" y="50" width="1" height="1" fill="#254E71"/>
<rect x="254" y="50" width="1" height="1" fill="#254E71"/>
<rect x="264" y="50" width="1" height="1" fill="#254E71"/>
<rect x="274" y="50" width="1" height="1" fill="#254E71"/>
<rect x="284" y="50" width="1" height="1" fill="#6695BD"/>
<rect x="294" y="50" width="1" height="1" fill="#254E71"/>
<rect x="304" y="50" width="1" height="1" fill="#254E71"/>
<rect x="314" y="50" width="1" height="1" fill="#254E71"/>
<rect x="324" y="50" width="1" height="1" fill="#254E71"/>
<rect x="354" y="50" width="1" height="1" fill="#254E71"/>
<rect x="364" y="50" width="1" height="1" fill="#254E71"/>
<rect x="4" y="40" width="1" height="1" fill="#254E71"/>
<rect x="14" y="40" width="1" height="1" fill="#254E71"/>
<rect x="24" y="40" width="1" height="1" fill="#254E71"/>
<rect x="34" y="40" width="1" height="1" fill="#254E71"/>
<rect x="44" y="40" width="1" height="1" fill="#254E71"/>
<rect x="54" y="40" width="1" height="1" fill="#254E71"/>
<rect x="64" y="40" width="1" height="1" fill="#254E71"/>
<rect x="84" y="40" width="1" height="1" fill="#254E71"/>
<rect x="94" y="40" width="1" height="1" fill="#254E71"/>
<rect x="104" y="40" width="1" height="1" fill="#254E71"/>
<rect x="114" y="40" width="1" height="1" fill="#254E71"/>
<rect x="124" y="40" width="1" height="1" fill="#254E71"/>
<rect x="134" y="40" width="1" height="1" fill="#6695BD"/>
<rect x="144" y="40" width="1" height="1" fill="#254E71"/>
<rect x="174" y="40" width="1" height="1" fill="#254E71"/>
<rect x="184" y="40" width="1" height="1" fill="#254E71"/>
<rect x="194" y="40" width="1" height="1" fill="#254E71"/>
<rect x="204" y="40" width="1" height="1" fill="#254E71"/>
<rect x="214" y="40" width="1" height="1" fill="#254E71"/>
<rect x="224" y="40" width="1" height="1" fill="#6695BD"/>
<rect x="234" y="40" width="1" height="1" fill="#254E71"/>
<rect x="254" y="40" width="1" height="1" fill="#6695BD"/>
<rect x="264" y="40" width="1" height="1" fill="#254E71"/>
<rect x="274" y="40" width="1" height="1" fill="#254E71"/>
<rect x="284" y="40" width="1" height="1" fill="#254E71"/>
<rect x="294" y="40" width="1" height="1" fill="#254E71"/>
<rect x="314" y="40" width="1" height="1" fill="#254E71"/>
<rect x="324" y="40" width="1" height="1" fill="#254E71"/>
<rect x="334" y="40" width="1" height="1" fill="#254E71"/>
<rect x="344" y="40" width="1" height="1" fill="#254E71"/>
<rect x="354" y="40" width="1" height="1" fill="#254E71"/>
<rect x="364" y="40" width="1" height="1" fill="#6695BD"/>
<rect x="374" y="40" width="1" height="1" fill="#254E71"/>
<rect x="384" y="40" width="1" height="1" fill="#254E71"/>
<rect x="404" y="40" width="1" height="1" fill="#254E71"/>
<rect x="414" y="40" width="1" height="1" fill="#254E71"/>
<rect x="4" y="30" width="1" height="1" fill="#254E71"/>
<rect x="4" y="10" width="1" height="1" fill="#254E71"/>
<rect x="14" y="30" width="1" height="1" fill="#254E71"/>
<rect x="14" y="10" width="1" height="1" fill="#254E71"/>
<rect x="24" y="30" width="1" height="1" fill="#254E71"/>
<rect x="24" y="10" width="1" height="1" fill="#254E71"/>
<rect x="34" y="30" width="1" height="1" fill="#254E71"/>
<rect x="34" y="10" width="1" height="1" fill="#254E71"/>
<rect x="44" y="30" width="1" height="1" fill="#254E71"/>
<rect x="44" y="10" width="1" height="1" fill="#254E71"/>
<rect x="54" y="30" width="1" height="1" fill="#254E71"/>
<rect x="54" y="10" width="1" height="1" fill="#254E71"/>
<rect x="64" y="30" width="1" height="1" fill="#254E71"/>
<rect x="64" y="10" width="1" height="1" fill="#254E71"/>
<rect x="74" y="30" width="1" height="1" fill="#254E71"/>
<rect x="74" y="10" width="1" height="1" fill="#254E71"/>
<rect x="84" y="30" width="1" height="1" fill="#254E71"/>
<rect x="84" y="10" width="1" height="1" fill="#254E71"/>
<rect x="94" y="30" width="1" height="1" fill="#254E71"/>
<rect x="94" y="10" width="1" height="1" fill="#254E71"/>
<rect x="104" y="30" width="1" height="1" fill="#254E71"/>
<rect x="104" y="10" width="1" height="1" fill="#254E71"/>
<rect x="114" y="30" width="1" height="1" fill="#254E71"/>
<rect x="114" y="10" width="1" height="1" fill="#254E71"/>
<rect x="124" y="30" width="1" height="1" fill="#254E71"/>
<rect x="124" y="10" width="1" height="1" fill="#254E71"/>
<rect x="134" y="30" width="1" height="1" fill="#254E71"/>
<rect x="134" y="10" width="1" height="1" fill="#254E71"/>
<rect x="144" y="30" width="1" height="1" fill="#254E71"/>
<rect x="144" y="10" width="1" height="1" fill="#254E71"/>
<rect x="154" y="30" width="1" height="1" fill="#254E71"/>
<rect x="154" y="10" width="1" height="1" fill="#254E71"/>
<rect x="164" y="30" width="1" height="1" fill="#254E71"/>
<rect x="164" y="10" width="1" height="1" fill="#254E71"/>
<rect x="174" y="30" width="1" height="1" fill="#254E71"/>
<rect x="174" y="10" width="1" height="1" fill="#254E71"/>
<rect x="184" y="30" width="1" height="1" fill="#254E71"/>
<rect x="184" y="10" width="1" height="1" fill="#254E71"/>
<rect x="194" y="30" width="1" height="1" fill="#254E71"/>
<rect x="194" y="10" width="1" height="1" fill="#254E71"/>
<rect x="204.213" y="30.213" width="0.57398" height="0.57398" fill="#254E71" stroke="#53ABF7" stroke-width="0.42602"/>
<rect x="204.213" y="10.213" width="0.57398" height="0.57398" fill="#254E71" stroke="#53ABF7" stroke-width="0.42602"/>
<rect x="214" y="30" width="1" height="1" fill="#254E71"/>
<rect x="214" y="10" width="1" height="1" fill="#254E71"/>
<rect x="224" y="30" width="1" height="1" fill="#254E71"/>
<rect x="224" y="10" width="1" height="1" fill="#254E71"/>
<rect x="234" y="30" width="1" height="1" fill="#254E71"/>
<rect x="234" y="10" width="1" height="1" fill="#254E71"/>
<rect x="244" y="30" width="1" height="1" fill="#254E71"/>
<rect x="244" y="10" width="1" height="1" fill="#254E71"/>
<rect x="254" y="30" width="1" height="1" fill="#254E71"/>
<rect x="254" y="10" width="1" height="1" fill="#254E71"/>
<rect x="264" y="30" width="1" height="1" fill="#254E71"/>
<rect x="264" y="10" width="1" height="1" fill="#254E71"/>
<rect x="274" y="30" width="1" height="1" fill="#254E71"/>
<rect x="274" y="10" width="1" height="1" fill="#254E71"/>
<rect x="284.213" y="30.213" width="0.57398" height="0.57398" fill="#254E71" stroke="#53ABF7" stroke-width="0.42602"/>
<rect x="284.213" y="10.213" width="0.57398" height="0.57398" fill="#254E71" stroke="#53ABF7" stroke-width="0.42602"/>
<rect x="294" y="30" width="1" height="1" fill="#254E71"/>
<rect x="294" y="10" width="1" height="1" fill="#254E71"/>
<rect x="304.213" y="30.213" width="0.57398" height="0.57398" fill="#254E71" stroke="#53ABF7" stroke-width="0.42602"/>
<rect x="304.213" y="10.213" width="0.57398" height="0.57398" fill="#254E71" stroke="#53ABF7" stroke-width="0.42602"/>
<rect x="314" y="30" width="1" height="1" fill="#254E71"/>
<rect x="314" y="10" width="1" height="1" fill="#254E71"/>
<rect x="324" y="30" width="1" height="1" fill="#254E71"/>
<rect x="324" y="10" width="1" height="1" fill="#254E71"/>
<rect x="334" y="30" width="1" height="1" fill="#254E71"/>
<rect x="334" y="10" width="1" height="1" fill="#254E71"/>
<rect x="344" y="30" width="1" height="1" fill="#254E71"/>
<rect x="344" y="10" width="1" height="1" fill="#254E71"/>
<rect x="354" y="30" width="1" height="1" fill="#254E71"/>
<rect x="354" y="10" width="1" height="1" fill="#254E71"/>
<rect x="364" y="30" width="1" height="1" fill="#254E71"/>
<rect x="364" y="10" width="1" height="1" fill="#254E71"/>
<rect x="374" y="30" width="1" height="1" fill="#254E71"/>
<rect x="374" y="10" width="1" height="1" fill="#254E71"/>
<rect x="384" y="30" width="1" height="1" fill="#254E71"/>
<rect x="384" y="10" width="1" height="1" fill="#254E71"/>
<rect x="394" y="30" width="1" height="1" fill="#254E71"/>
<rect x="394" y="10" width="1" height="1" fill="#254E71"/>
<rect x="404.213" y="30.213" width="0.57398" height="0.57398" fill="#254E71" stroke="#53ABF7" stroke-width="0.42602"/>
<rect x="404.213" y="10.213" width="0.57398" height="0.57398" fill="#254E71" stroke="#53ABF7" stroke-width="0.42602"/>
<rect x="414" y="30" width="1" height="1" fill="#254E71"/>
<rect x="414" y="10" width="1" height="1" fill="#254E71"/>
<rect x="424" y="30" width="1" height="1" fill="#254E71"/>
<rect x="424" y="10" width="1" height="1" fill="#254E71"/>
<rect x="434" y="30" width="1" height="1" fill="#254E71"/>
<rect x="434" y="10" width="1" height="1" fill="#254E71"/>
<rect x="444" y="30" width="1" height="1" fill="#254E71"/>
<rect x="444" y="10" width="1" height="1" fill="#254E71"/>
<rect x="454" y="30" width="1" height="1" fill="#254E71"/>
<rect x="454" y="10" width="1" height="1" fill="#254E71"/>
<rect x="464" y="30" width="1" height="1" fill="#254E71"/>
<rect x="464" y="10" width="1" height="1" fill="#254E71"/>
<rect x="474" y="30" width="1" height="1" fill="#254E71"/>
<rect x="474" y="10" width="1" height="1" fill="#254E71"/>
<rect x="484" y="30" width="1" height="1" fill="#254E71"/>
<rect x="484" y="10" width="1" height="1" fill="#254E71"/>
<rect x="494" y="30" width="1" height="1" fill="#254E71"/>
<rect x="494" y="10" width="1" height="1" fill="#254E71"/>
<rect x="504" y="30" width="1" height="1" fill="#254E71"/>
<rect x="504" y="10" width="1" height="1" fill="#254E71"/>
<rect x="4" y="20" width="1" height="1" fill="#254E71"/>
<rect x="4" width="1" height="1" fill="#254E71"/>
<rect x="14" y="20" width="1" height="1" fill="#6695BD"/>
<rect x="14" width="1" height="1" fill="#6695BD"/>
<rect x="24" y="20" width="1" height="1" fill="#254E71"/>
<rect x="24" width="1" height="1" fill="#254E71"/>
<rect x="34" y="20" width="1" height="1" fill="#254E71"/>
<rect x="34" width="1" height="1" fill="#254E71"/>
<rect x="54" y="20" width="1" height="1" fill="#254E71"/>
<rect x="54" width="1" height="1" fill="#254E71"/>
<rect x="64.213" y="20.213" width="0.57398" height="0.57398" fill="#254E71" stroke="#53ABF7" stroke-width="0.42602"/>
<rect x="64.213" y="0.21301" width="0.57398" height="0.57398" fill="#254E71" stroke="#53ABF7" stroke-width="0.42602"/>
<rect x="74" y="20" width="1" height="1" fill="#254E71"/>
<rect x="74" width="1" height="1" fill="#254E71"/>
<rect x="84" y="20" width="1" height="1" fill="#254E71"/>
<rect x="84" width="1" height="1" fill="#254E71"/>
<rect x="94" y="20" width="1" height="1" fill="#254E71"/>
<rect x="94" width="1" height="1" fill="#254E71"/>
<rect x="104" y="20" width="1" height="1" fill="#6695BD"/>
<rect x="104" width="1" height="1" fill="#6695BD"/>
<rect x="114" y="20" width="1" height="1" fill="#D5FF2F"/>
<rect x="114" width="1" height="1" fill="#D5FF2F"/>
<rect x="124" y="20" width="1" height="1" fill="#254E71"/>
<rect x="124" width="1" height="1" fill="#254E71"/>
<rect x="134" y="20" width="1" height="1" fill="#254E71"/>
<rect x="134" width="1" height="1" fill="#254E71"/>
<rect x="144" y="20" width="1" height="1" fill="#254E71"/>
<rect x="144" width="1" height="1" fill="#254E71"/>
<rect x="154" y="20" width="1" height="1" fill="#254E71"/>
<rect x="154" width="1" height="1" fill="#254E71"/>
<rect x="164" y="20" width="1" height="1" fill="#254E71"/>
<rect x="164" width="1" height="1" fill="#254E71"/>
<rect x="174" y="20" width="1" height="1" fill="#254E71"/>
<rect x="174" width="1" height="1" fill="#254E71"/>
<rect x="184" y="20" width="1" height="1" fill="#254E71"/>
<rect x="184" width="1" height="1" fill="#254E71"/>
<rect x="194" y="20" width="1" height="1" fill="#254E71"/>
<rect x="194" width="1" height="1" fill="#254E71"/>
<rect x="204" y="20" width="1" height="1" fill="#D5FF2F"/>
<rect x="204" width="1" height="1" fill="#D5FF2F"/>
<rect x="214" y="20" width="1" height="1" fill="#254E71"/>
<rect x="214" width="1" height="1" fill="#254E71"/>
<rect x="224" y="20" width="1" height="1" fill="#254E71"/>
<rect x="224" width="1" height="1" fill="#254E71"/>
<rect x="234" y="20" width="1" height="1" fill="#254E71"/>
<rect x="234" width="1" height="1" fill="#254E71"/>
<rect x="244" y="20" width="1" height="1" fill="#254E71"/>
<rect x="244" width="1" height="1" fill="#254E71"/>
<rect x="254" y="20" width="1" height="1" fill="#254E71"/>
<rect x="254" width="1" height="1" fill="#254E71"/>
<rect x="264" y="20" width="1" height="1" fill="#254E71"/>
<rect x="264" width="1" height="1" fill="#254E71"/>
<rect x="274" y="20" width="1" height="1" fill="#254E71"/>
<rect x="274" width="1" height="1" fill="#254E71"/>
<rect x="284" y="20" width="1" height="1" fill="#254E71"/>
<rect x="284" width="1" height="1" fill="#254E71"/>
<rect x="294" y="20" width="1" height="1" fill="#254E71"/>
<rect x="294" width="1" height="1" fill="#254E71"/>
<rect x="304" y="20" width="1" height="1" fill="#254E71"/>
<rect x="304" width="1" height="1" fill="#254E71"/>
<rect x="314" y="20" width="1" height="1" fill="#254E71"/>
<rect x="314" width="1" height="1" fill="#254E71"/>
<rect x="324" y="20" width="1" height="1" fill="#254E71"/>
<rect x="324" width="1" height="1" fill="#254E71"/>
<rect x="344" y="20" width="1" height="1" fill="#254E71"/>
<rect x="344" width="1" height="1" fill="#254E71"/>
<rect x="354" y="20" width="1" height="1" fill="#254E71"/>
<rect x="354" width="1" height="1" fill="#254E71"/>
<rect x="364.213" y="20.213" width="0.57398" height="0.57398" fill="#254E71" stroke="#53ABF7" stroke-width="0.42602"/>
<rect x="364.213" y="0.21301" width="0.57398" height="0.57398" fill="#254E71" stroke="#53ABF7" stroke-width="0.42602"/>
<rect x="374" y="20" width="1" height="1" fill="#254E71"/>
<rect x="374" width="1" height="1" fill="#254E71"/>
<rect x="384" y="20" width="1" height="1" fill="#254E71"/>
<rect x="384" width="1" height="1" fill="#254E71"/>
<rect x="394" y="20" width="1" height="1" fill="#254E71"/>
<rect x="394" width="1" height="1" fill="#254E71"/>
<rect x="404" y="20" width="1" height="1" fill="#254E71"/>
<rect x="404" width="1" height="1" fill="#254E71"/>
<rect x="424" y="20" width="1" height="1" fill="#6695BD"/>
<rect x="424" width="1" height="1" fill="#6695BD"/>
<rect x="434" y="20" width="1" height="1" fill="#254E71"/>
<rect x="434" width="1" height="1" fill="#254E71"/>
<rect x="444" y="20" width="1" height="1" fill="#254E71"/>
<rect x="444" width="1" height="1" fill="#254E71"/>
<rect x="454" y="20" width="1" height="1" fill="#254E71"/>
<rect x="454" width="1" height="1" fill="#254E71"/>
<rect x="464" y="20" width="1" height="1" fill="#254E71"/>
<rect x="464" width="1" height="1" fill="#254E71"/>
<rect x="474" y="20" width="1" height="1" fill="#254E71"/>
<rect x="474" width="1" height="1" fill="#254E71"/>
<rect x="484" y="20" width="1" height="1" fill="#254E71"/>
<rect x="484" width="1" height="1" fill="#254E71"/>
<rect x="494" y="20" width="1" height="1" fill="#254E71"/>
<rect x="494" width="1" height="1" fill="#254E71"/>
<rect x="504" y="20" width="1" height="1" fill="#254E71"/>
<rect x="504" width="1" height="1" fill="#254E71"/>
<rect width="1" height="1" transform="matrix(-1 0 0 1 1019.11 110)" fill="#254E71"/>
<rect width="1" height="1" transform="matrix(-1 0 0 1 1009.11 110)" fill="#254E71"/>
<rect width="1" height="1" transform="matrix(-1 0 0 1 1019.11 100)" fill="#254E71"/>
<rect width="1" height="1" transform="matrix(-1 0 0 1 1009.11 100)" fill="#254E71"/>
<rect width="1" height="1" transform="matrix(-1 0 0 1 999.112 100)" fill="#254E71"/>
<rect width="1" height="1" transform="matrix(-1 0 0 1 989.112 100)" fill="#254E71"/>
<rect width="1" height="1" transform="matrix(-1 0 0 1 1019.11 90)" fill="#254E71"/>
<rect width="1" height="1" transform="matrix(-1 0 0 1 1009.11 90)" fill="#254E71"/>
<rect width="1" height="1" transform="matrix(-1 0 0 1 999.112 90)" fill="#254E71"/>
<rect width="1" height="1" transform="matrix(-1 0 0 1 989.112 90)" fill="#254E71"/>
<rect width="1" height="1" transform="matrix(-1 0 0 1 979.112 90)" fill="#254E71"/>
<rect width="1" height="1" transform="matrix(-1 0 0 1 969.112 90)" fill="#6695BD"/>
<rect width="1" height="1" transform="matrix(-1 0 0 1 959.112 90)" fill="#254E71"/>
<rect width="1" height="1" transform="matrix(-1 0 0 1 949.112 90)" fill="#254E71"/>
<rect width="1" height="1" transform="matrix(-1 0 0 1 939.112 90)" fill="#254E71"/>
<rect width="1" height="1" transform="matrix(-1 0 0 1 929.112 90)" fill="#254E71"/>
<rect width="1" height="1" transform="matrix(-1 0 0 1 919.112 90)" fill="#D5FF2F"/>
<rect width="1" height="1" transform="matrix(-1 0 0 1 909.112 90)" fill="#254E71"/>
<rect width="1" height="1" transform="matrix(-1 0 0 1 899.112 90)" fill="#254E71"/>
<rect width="1" height="1" transform="matrix(-1 0 0 1 889.112 90)" fill="#254E71"/>
<rect width="1" height="1" transform="matrix(-1 0 0 1 1009.11 80)" fill="#254E71"/>
<rect width="1" height="1" transform="matrix(-1 0 0 1 999.112 80)" fill="#254E71"/>
<rect width="1" height="1" transform="matrix(-1 0 0 1 979.112 80)" fill="#254E71"/>
<rect width="1" height="1" transform="matrix(-1 0 0 1 969.112 80)" fill="#254E71"/>
<rect width="1" height="1" transform="matrix(-1 0 0 1 959.112 80)" fill="#254E71"/>
<rect width="1" height="1" transform="matrix(-1 0 0 1 939.112 80)" fill="#254E71"/>
<rect width="1" height="1" transform="matrix(-1 0 0 1 929.112 80)" fill="#254E71"/>
<rect width="1" height="1" transform="matrix(-1 0 0 1 919.112 80)" fill="#254E71"/>
<rect width="1" height="1" transform="matrix(-1 0 0 1 909.112 80)" fill="#254E71"/>
<rect width="1" height="1" transform="matrix(-1 0 0 1 899.112 80)" fill="#6695BD"/>
<rect width="1" height="1" transform="matrix(-1 0 0 1 889.112 80)" fill="#254E71"/>
<rect width="1" height="1" transform="matrix(-1 0 0 1 1019.11 70)" fill="#254E71"/>
<rect width="1" height="1" transform="matrix(-1 0 0 1 999.112 70)" fill="#254E71"/>
<rect width="1" height="1" transform="matrix(-1 0 0 1 989.112 70)" fill="#254E71"/>
<rect width="1" height="1" transform="matrix(-1 0 0 1 969.112 70)" fill="#6695BD"/>
<rect width="1" height="1" transform="matrix(-1 0 0 1 959.112 70)" fill="#254E71"/>
<rect width="1" height="1" transform="matrix(-1 0 0 1 949.112 70)" fill="#254E71"/>
<rect width="1" height="1" transform="matrix(-1 0 0 1 939.112 70)" fill="#254E71"/>
<rect width="1" height="1" transform="matrix(-1 0 0 1 919.112 70)" fill="#254E71"/>
<rect width="1" height="1" transform="matrix(-1 0 0 1 909.112 70)" fill="#254E71"/>
<rect width="1" height="1" transform="matrix(-1 0 0 1 899.112 70)" fill="#254E71"/>
<rect width="1" height="1" transform="matrix(-1 0 0 1 889.112 70)" fill="#254E71"/>
<rect width="1" height="1" transform="matrix(-1 0 0 1 869.112 70)" fill="#254E71"/>
<rect width="1" height="1" transform="matrix(-1 0 0 1 859.112 70)" fill="#254E71"/>
<rect width="1" height="1" transform="matrix(-1 0 0 1 849.112 70)" fill="#254E71"/>
<rect width="1" height="1" transform="matrix(-1 0 0 1 839.112 70)" fill="#254E71"/>
<rect width="1" height="1" transform="matrix(-1 0 0 1 1019.11 60)" fill="#254E71"/>
<rect width="1" height="1" transform="matrix(-1 0 0 1 1009.11 60)" fill="#254E71"/>
<rect width="1" height="1" transform="matrix(-1 0 0 1 989.112 60)" fill="#254E71"/>
<rect width="1" height="1" transform="matrix(-1 0 0 1 979.112 60)" fill="#254E71"/>
<rect width="1" height="1" transform="matrix(-1 0 0 1 969.112 60)" fill="#254E71"/>
<rect width="1" height="1" transform="matrix(-1 0 0 1 959.112 60)" fill="#6695BD"/>
<rect width="1" height="1" transform="matrix(-1 0 0 1 949.112 60)" fill="#254E71"/>
<rect width="1" height="1" transform="matrix(-1 0 0 1 939.112 60)" fill="#254E71"/>
<rect width="1" height="1" transform="matrix(-1 0 0 1 919.112 60)" fill="#254E71"/>
<rect width="1" height="1" transform="matrix(-1 0 0 1 889.112 60)" fill="#254E71"/>
<rect width="1" height="1" transform="matrix(-1 0 0 1 879.112 60)" fill="#254E71"/>
<rect width="1" height="1" transform="matrix(-1 0 0 1 869.112 60)" fill="#254E71"/>
<rect x="-0.21301" y="0.21301" width="0.57398" height="0.57398" transform="matrix(-1 0 0 1 858.686 60)" fill="#254E71" stroke="#53ABF7" stroke-width="0.42602"/>
<rect width="1" height="1" transform="matrix(-1 0 0 1 839.112 60)" fill="#254E71"/>
<rect width="1" height="1" transform="matrix(-1 0 0 1 809.112 60)" fill="#254E71"/>
<rect width="1" height="1" transform="matrix(-1 0 0 1 799.112 60)" fill="#254E71"/>
<rect width="1" height="1" transform="matrix(-1 0 0 1 789.112 60)" fill="#254E71"/>
<rect width="1" height="1" transform="matrix(-1 0 0 1 779.112 60)" fill="#254E71"/>
<rect width="1" height="1" transform="matrix(-1 0 0 1 759.112 60)" fill="#254E71"/>
<rect width="1" height="1" transform="matrix(-1 0 0 1 749.112 60)" fill="#254E71"/>
<rect width="1" height="1" transform="matrix(-1 0 0 1 739.112 60)" fill="#254E71"/>
<rect width="1" height="1" transform="matrix(-1 0 0 1 1019.11 50)" fill="#254E71"/>
<rect width="1" height="1" transform="matrix(-1 0 0 1 1009.11 50)" fill="#254E71"/>
<rect width="1" height="1" transform="matrix(-1 0 0 1 989.112 50)" fill="#254E71"/>
<rect width="1" height="1" transform="matrix(-1 0 0 1 979.112 50)" fill="#254E71"/>
<rect width="1" height="1" transform="matrix(-1 0 0 1 959.112 50)" fill="#254E71"/>
<rect width="1" height="1" transform="matrix(-1 0 0 1 949.112 50)" fill="#254E71"/>
<rect width="1" height="1" transform="matrix(-1 0 0 1 939.112 50)" fill="#254E71"/>
<rect width="1" height="1" transform="matrix(-1 0 0 1 929.112 50)" fill="#254E71"/>
<rect width="1" height="1" transform="matrix(-1 0 0 1 919.112 50)" fill="#254E71"/>
<rect width="1" height="1" transform="matrix(-1 0 0 1 909.112 50)" fill="#254E71"/>
<rect width="1" height="1" transform="matrix(-1 0 0 1 899.112 50)" fill="#254E71"/>
<rect width="1" height="1" transform="matrix(-1 0 0 1 889.112 50)" fill="#6695BD"/>
<rect width="1" height="1" transform="matrix(-1 0 0 1 879.112 50)" fill="#254E71"/>
<rect width="1" height="1" transform="matrix(-1 0 0 1 869.112 50)" fill="#254E71"/>
<rect width="1" height="1" transform="matrix(-1 0 0 1 849.112 50)" fill="#254E71"/>
<rect width="1" height="1" transform="matrix(-1 0 0 1 839.112 50)" fill="#254E71"/>
<rect width="1" height="1" transform="matrix(-1 0 0 1 829.112 50)" fill="#254E71"/>
<rect width="1" height="1" transform="matrix(-1 0 0 1 819.112 50)" fill="#254E71"/>
<rect width="1" height="1" transform="matrix(-1 0 0 1 809.112 50)" fill="#254E71"/>
<rect width="1" height="1" transform="matrix(-1 0 0 1 789.112 50)" fill="#254E71"/>
<rect width="1" height="1" transform="matrix(-1 0 0 1 779.112 50)" fill="#254E71"/>
<rect width="1" height="1" transform="matrix(-1 0 0 1 769.112 50)" fill="#254E71"/>
<rect width="1" height="1" transform="matrix(-1 0 0 1 759.112 50)" fill="#254E71"/>
<rect width="1" height="1" transform="matrix(-1 0 0 1 749.112 50)" fill="#254E71"/>
<rect width="1" height="1" transform="matrix(-1 0 0 1 739.112 50)" fill="#254E71"/>
<rect width="1" height="1" transform="matrix(-1 0 0 1 729.112 50)" fill="#6695BD"/>
<rect width="1" height="1" transform="matrix(-1 0 0 1 719.112 50)" fill="#254E71"/>
<rect width="1" height="1" transform="matrix(-1 0 0 1 709.112 50)" fill="#254E71"/>
<rect width="1" height="1" transform="matrix(-1 0 0 1 699.112 50)" fill="#254E71"/>
<rect width="1" height="1" transform="matrix(-1 0 0 1 669.112 50)" fill="#254E71"/>
<rect width="1" height="1" transform="matrix(-1 0 0 1 659.112 50)" fill="#254E71"/>
<rect width="1" height="1" transform="matrix(-1 0 0 1 1019.11 40)" fill="#6695BD"/>
<rect width="1" height="1" transform="matrix(-1 0 0 1 1009.11 40)" fill="#254E71"/>
<rect width="1" height="1" transform="matrix(-1 0 0 1 989.112 40)" fill="#6695BD"/>
<rect width="1" height="1" transform="matrix(-1 0 0 1 979.112 40)" fill="#254E71"/>
<rect width="1" height="1" transform="matrix(-1 0 0 1 969.112 40)" fill="#254E71"/>
<rect width="1" height="1" transform="matrix(-1 0 0 1 959.112 40)" fill="#254E71"/>
<rect width="1" height="1" transform="matrix(-1 0 0 1 949.112 40)" fill="#254E71"/>
<rect width="1" height="1" transform="matrix(-1 0 0 1 929.112 40)" fill="#254E71"/>
<rect width="1" height="1" transform="matrix(-1 0 0 1 919.112 40)" fill="#254E71"/>
<rect width="1" height="1" transform="matrix(-1 0 0 1 909.112 40)" fill="#254E71"/>
<rect width="1" height="1" transform="matrix(-1 0 0 1 899.112 40)" fill="#254E71"/>
<rect width="1" height="1" transform="matrix(-1 0 0 1 889.112 40)" fill="#254E71"/>
<rect width="1" height="1" transform="matrix(-1 0 0 1 879.112 40)" fill="#254E71"/>
<rect width="1" height="1" transform="matrix(-1 0 0 1 859.112 40)" fill="#254E71"/>
<rect width="1" height="1" transform="matrix(-1 0 0 1 849.112 40)" fill="#254E71"/>
<rect width="1" height="1" transform="matrix(-1 0 0 1 839.112 40)" fill="#6695BD"/>
<rect width="1" height="1" transform="matrix(-1 0 0 1 819.112 40)" fill="#254E71"/>
<rect width="1" height="1" transform="matrix(-1 0 0 1 809.112 40)" fill="#254E71"/>
<rect width="1" height="1" transform="matrix(-1 0 0 1 799.112 40)" fill="#254E71"/>
<rect width="1" height="1" transform="matrix(-1 0 0 1 789.112 40)" fill="#254E71"/>
<rect width="1" height="1" transform="matrix(-1 0 0 1 779.112 40)" fill="#6695BD"/>
<rect width="1" height="1" transform="matrix(-1 0 0 1 769.112 40)" fill="#254E71"/>
<rect width="1" height="1" transform="matrix(-1 0 0 1 749.112 40)" fill="#254E71"/>
<rect width="1" height="1" transform="matrix(-1 0 0 1 729.112 40)" fill="#254E71"/>
<rect width="1" height="1" transform="matrix(-1 0 0 1 719.112 40)" fill="#254E71"/>
<rect width="1" height="1" transform="matrix(-1 0 0 1 709.112 40)" fill="#254E71"/>
<rect width="1" height="1" transform="matrix(-1 0 0 1 699.112 40)" fill="#254E71"/>
<rect width="1" height="1" transform="matrix(-1 0 0 1 689.112 40)" fill="#254E71"/>
<rect width="1" height="1" transform="matrix(-1 0 0 1 679.112 40)" fill="#254E71"/>
<rect width="1" height="1" transform="matrix(-1 0 0 1 669.112 40)" fill="#254E71"/>
<rect width="1" height="1" transform="matrix(-1 0 0 1 659.112 40)" fill="#6695BD"/>
<rect width="1" height="1" transform="matrix(-1 0 0 1 649.112 40)" fill="#254E71"/>
<rect width="1" height="1" transform="matrix(-1 0 0 1 639.112 40)" fill="#254E71"/>
<rect width="1" height="1" transform="matrix(-1 0 0 1 619.112 40)" fill="#254E71"/>
<rect width="1" height="1" transform="matrix(-1 0 0 1 609.112 40)" fill="#254E71"/>
<rect width="1" height="1" transform="matrix(-1 0 0 1 1019.11 30)" fill="#254E71"/>
<rect width="1" height="1" transform="matrix(-1 0 0 1 1019.11 10)" fill="#254E71"/>
<rect width="1" height="1" transform="matrix(-1 0 0 1 1009.11 30)" fill="#254E71"/>
<rect width="1" height="1" transform="matrix(-1 0 0 1 1009.11 10)" fill="#254E71"/>
<rect width="1" height="1" transform="matrix(-1 0 0 1 999.112 30)" fill="#254E71"/>
<rect width="1" height="1" transform="matrix(-1 0 0 1 999.112 10)" fill="#254E71"/>
<rect width="1" height="1" transform="matrix(-1 0 0 1 989.112 30)" fill="#254E71"/>
<rect width="1" height="1" transform="matrix(-1 0 0 1 989.112 10)" fill="#254E71"/>
<rect width="1" height="1" transform="matrix(-1 0 0 1 979.112 30)" fill="#254E71"/>
<rect width="1" height="1" transform="matrix(-1 0 0 1 979.112 10)" fill="#254E71"/>
<rect width="1" height="1" transform="matrix(-1 0 0 1 969.112 30)" fill="#254E71"/>
<rect width="1" height="1" transform="matrix(-1 0 0 1 969.112 10)" fill="#254E71"/>
<rect x="-0.21301" y="0.21301" width="0.57398" height="0.57398" transform="matrix(-1 0 0 1 958.686 30)" fill="#254E71" stroke="#53ABF7" stroke-width="0.42602"/>
<rect x="-0.21301" y="0.21301" width="0.57398" height="0.57398" transform="matrix(-1 0 0 1 958.686 10)" fill="#254E71" stroke="#53ABF7" stroke-width="0.42602"/>
<rect width="1" height="1" transform="matrix(-1 0 0 1 949.112 30)" fill="#254E71"/>
<rect width="1" height="1" transform="matrix(-1 0 0 1 949.112 10)" fill="#254E71"/>
<rect x="-0.21301" y="0.21301" width="0.57398" height="0.57398" transform="matrix(-1 0 0 1 938.686 30)" fill="#254E71" stroke="#53ABF7" stroke-width="0.42602"/>
<rect x="-0.21301" y="0.21301" width="0.57398" height="0.57398" transform="matrix(-1 0 0 1 938.686 10)" fill="#254E71" stroke="#53ABF7" stroke-width="0.42602"/>
<rect width="1" height="1" transform="matrix(-1 0 0 1 929.112 30)" fill="#254E71"/>
<rect width="1" height="1" transform="matrix(-1 0 0 1 929.112 10)" fill="#254E71"/>
<rect width="1" height="1" transform="matrix(-1 0 0 1 919.112 30)" fill="#254E71"/>
<rect width="1" height="1" transform="matrix(-1 0 0 1 919.112 10)" fill="#254E71"/>
<rect width="1" height="1" transform="matrix(-1 0 0 1 909.112 30)" fill="#254E71"/>
<rect width="1" height="1" transform="matrix(-1 0 0 1 909.112 10)" fill="#254E71"/>
<rect width="1" height="1" transform="matrix(-1 0 0 1 899.112 30)" fill="#254E71"/>
<rect width="1" height="1" transform="matrix(-1 0 0 1 899.112 10)" fill="#254E71"/>
<rect width="1" height="1" transform="matrix(-1 0 0 1 889.112 30)" fill="#254E71"/>
<rect width="1" height="1" transform="matrix(-1 0 0 1 889.112 10)" fill="#254E71"/>
<rect width="1" height="1" transform="matrix(-1 0 0 1 879.112 30)" fill="#254E71"/>
<rect width="1" height="1" transform="matrix(-1 0 0 1 879.112 10)" fill="#254E71"/>
<rect width="1" height="1" transform="matrix(-1 0 0 1 869.112 30)" fill="#254E71"/>
<rect width="1" height="1" transform="matrix(-1 0 0 1 869.112 10)" fill="#254E71"/>
<rect width="1" height="1" transform="matrix(-1 0 0 1 859.112 30)" fill="#254E71"/>
<rect width="1" height="1" transform="matrix(-1 0 0 1 859.112 10)" fill="#254E71"/>
<rect width="1" height="1" transform="matrix(-1 0 0 1 849.112 30)" fill="#254E71"/>
<rect width="1" height="1" transform="matrix(-1 0 0 1 849.112 10)" fill="#254E71"/>
<rect width="1" height="1" transform="matrix(-1 0 0 1 839.112 30)" fill="#254E71"/>
<rect width="1" height="1" transform="matrix(-1 0 0 1 839.112 10)" fill="#254E71"/>
<rect width="1" height="1" transform="matrix(-1 0 0 1 829.112 30)" fill="#254E71"/>
<rect width="1" height="1" transform="matrix(-1 0 0 1 829.112 10)" fill="#254E71"/>
<rect width="1" height="1" transform="matrix(-1 0 0 1 819.112 30)" fill="#254E71"/>
<rect width="1" height="1" transform="matrix(-1 0 0 1 819.112 10)" fill="#254E71"/>
<rect x="-0.21301" y="0.21301" width="0.57398" height="0.57398" transform="matrix(-1 0 0 1 808.686 30)" fill="#254E71" stroke="#53ABF7" stroke-width="0.42602"/>
<rect x="-0.21301" y="0.21301" width="0.57398" height="0.57398" transform="matrix(-1 0 0 1 808.686 10)" fill="#254E71" stroke="#53ABF7" stroke-width="0.42602"/>
<rect width="1" height="1" transform="matrix(-1 0 0 1 799.112 30)" fill="#254E71"/>
<rect width="1" height="1" transform="matrix(-1 0 0 1 799.112 10)" fill="#254E71"/>
<rect width="1" height="1" transform="matrix(-1 0 0 1 789.112 30)" fill="#254E71"/>
<rect width="1" height="1" transform="matrix(-1 0 0 1 789.112 10)" fill="#254E71"/>
<rect width="1" height="1" transform="matrix(-1 0 0 1 779.112 30)" fill="#254E71"/>
<rect width="1" height="1" transform="matrix(-1 0 0 1 779.112 10)" fill="#254E71"/>
<rect x="-0.21301" y="0.21301" width="0.57398" height="0.57398" transform="matrix(-1 0 0 1 768.686 30)" fill="#254E71" stroke="#53ABF7" stroke-width="0.42602"/>
<rect x="-0.21301" y="0.21301" width="0.57398" height="0.57398" transform="matrix(-1 0 0 1 768.686 10)" fill="#254E71" stroke="#53ABF7" stroke-width="0.42602"/>
<rect width="1" height="1" transform="matrix(-1 0 0 1 759.112 30)" fill="#254E71"/>
<rect width="1" height="1" transform="matrix(-1 0 0 1 759.112 10)" fill="#254E71"/>
<rect width="1" height="1" transform="matrix(-1 0 0 1 749.112 30)" fill="#254E71"/>
<rect width="1" height="1" transform="matrix(-1 0 0 1 749.112 10)" fill="#254E71"/>
<rect width="1" height="1" transform="matrix(-1 0 0 1 739.112 30)" fill="#254E71"/>
<rect width="1" height="1" transform="matrix(-1 0 0 1 739.112 10)" fill="#254E71"/>
<rect width="1" height="1" transform="matrix(-1 0 0 1 729.112 30)" fill="#254E71"/>
<rect width="1" height="1" transform="matrix(-1 0 0 1 729.112 10)" fill="#254E71"/>
<rect width="1" height="1" transform="matrix(-1 0 0 1 719.112 30)" fill="#254E71"/>
<rect width="1" height="1" transform="matrix(-1 0 0 1 719.112 10)" fill="#254E71"/>
<rect width="1" height="1" transform="matrix(-1 0 0 1 709.112 30)" fill="#254E71"/>
<rect width="1" height="1" transform="matrix(-1 0 0 1 709.112 10)" fill="#254E71"/>
<rect width="1" height="1" transform="matrix(-1 0 0 1 699.112 30)" fill="#254E71"/>
<rect width="1" height="1" transform="matrix(-1 0 0 1 699.112 10)" fill="#254E71"/>
<rect width="1" height="1" transform="matrix(-1 0 0 1 689.112 30)" fill="#254E71"/>
<rect width="1" height="1" transform="matrix(-1 0 0 1 689.112 10)" fill="#254E71"/>
<rect width="1" height="1" transform="matrix(-1 0 0 1 679.112 30)" fill="#254E71"/>
<rect width="1" height="1" transform="matrix(-1 0 0 1 679.112 10)" fill="#254E71"/>
<rect width="1" height="1" transform="matrix(-1 0 0 1 669.112 30)" fill="#254E71"/>
<rect width="1" height="1" transform="matrix(-1 0 0 1 669.112 10)" fill="#254E71"/>
<rect width="1" height="1" transform="matrix(-1 0 0 1 659.112 30)" fill="#254E71"/>
<rect width="1" height="1" transform="matrix(-1 0 0 1 659.112 10)" fill="#254E71"/>
<rect width="1" height="1" transform="matrix(-1 0 0 1 649.112 30)" fill="#254E71"/>
<rect width="1" height="1" transform="matrix(-1 0 0 1 649.112 10)" fill="#254E71"/>
<rect width="1" height="1" transform="matrix(-1 0 0 1 639.112 30)" fill="#254E71"/>
<rect width="1" height="1" transform="matrix(-1 0 0 1 639.112 10)" fill="#254E71"/>
<rect width="1" height="1" transform="matrix(-1 0 0 1 629.112 30)" fill="#254E71"/>
<rect width="1" height="1" transform="matrix(-1 0 0 1 629.112 10)" fill="#254E71"/>
<rect x="-0.21301" y="0.21301" width="0.57398" height="0.57398" transform="matrix(-1 0 0 1 618.686 30)" fill="#254E71" stroke="#53ABF7" stroke-width="0.42602"/>
<rect x="-0.21301" y="0.21301" width="0.57398" height="0.57398" transform="matrix(-1 0 0 1 618.686 10)" fill="#254E71" stroke="#53ABF7" stroke-width="0.42602"/>
<rect width="1" height="1" transform="matrix(-1 0 0 1 609.112 30)" fill="#254E71"/>
<rect width="1" height="1" transform="matrix(-1 0 0 1 609.112 10)" fill="#254E71"/>
<rect width="1" height="1" transform="matrix(-1 0 0 1 599.112 30)" fill="#254E71"/>
<rect width="1" height="1" transform="matrix(-1 0 0 1 599.112 10)" fill="#254E71"/>
<rect width="1" height="1" transform="matrix(-1 0 0 1 589.112 30)" fill="#254E71"/>
<rect width="1" height="1" transform="matrix(-1 0 0 1 589.112 10)" fill="#254E71"/>
<rect width="1" height="1" transform="matrix(-1 0 0 1 579.112 30)" fill="#254E71"/>
<rect width="1" height="1" transform="matrix(-1 0 0 1 579.112 10)" fill="#254E71"/>
<rect width="1" height="1" transform="matrix(-1 0 0 1 569.112 30)" fill="#254E71"/>
<rect width="1" height="1" transform="matrix(-1 0 0 1 569.112 10)" fill="#254E71"/>
<rect width="1" height="1" transform="matrix(-1 0 0 1 559.112 30)" fill="#254E71"/>
<rect width="1" height="1" transform="matrix(-1 0 0 1 559.112 10)" fill="#254E71"/>
<rect width="1" height="1" transform="matrix(-1 0 0 1 549.112 30)" fill="#254E71"/>
<rect width="1" height="1" transform="matrix(-1 0 0 1 549.112 10)" fill="#254E71"/>
<rect width="1" height="1" transform="matrix(-1 0 0 1 539.112 30)" fill="#254E71"/>
<rect width="1" height="1" transform="matrix(-1 0 0 1 539.112 10)" fill="#254E71"/>
<rect width="1" height="1" transform="matrix(-1 0 0 1 529.112 30)" fill="#254E71"/>
<rect width="1" height="1" transform="matrix(-1 0 0 1 529.112 10)" fill="#254E71"/>
<rect width="1" height="1" transform="matrix(-1 0 0 1 519.112 30)" fill="#254E71"/>
<rect width="1" height="1" transform="matrix(-1 0 0 1 519.112 10)" fill="#254E71"/>
<rect width="1" height="1" transform="matrix(-1 0 0 1 1019.11 20)" fill="#254E71"/>
<rect width="1" height="1" transform="matrix(-1 0 0 1 1019.11 0)" fill="#254E71"/>
<rect width="1" height="1" transform="matrix(-1 0 0 1 1009.11 20)" fill="#254E71"/>
<rect width="1" height="1" transform="matrix(-1 0 0 1 1009.11 0)" fill="#254E71"/>
<rect width="1" height="1" transform="matrix(-1 0 0 1 999.112 20)" fill="#254E71"/>
<rect width="1" height="1" transform="matrix(-1 0 0 1 999.112 0)" fill="#254E71"/>
<rect width="1" height="1" transform="matrix(-1 0 0 1 989.112 20)" fill="#254E71"/>
<rect width="1" height="1" transform="matrix(-1 0 0 1 989.112 0)" fill="#254E71"/>
<rect width="1" height="1" transform="matrix(-1 0 0 1 979.112 20)" fill="#254E71"/>
<rect width="1" height="1" transform="matrix(-1 0 0 1 979.112 0)" fill="#254E71"/>
<rect width="1" height="1" transform="matrix(-1 0 0 1 969.112 20)" fill="#254E71"/>
<rect width="1" height="1" transform="matrix(-1 0 0 1 969.112 0)" fill="#254E71"/>
<rect width="1" height="1" transform="matrix(-1 0 0 1 959.112 20)" fill="#254E71"/>
<rect width="1" height="1" transform="matrix(-1 0 0 1 959.112 0)" fill="#254E71"/>
<rect width="1" height="1" transform="matrix(-1 0 0 1 949.112 20)" fill="#254E71"/>
<rect width="1" height="1" transform="matrix(-1 0 0 1 949.112 0)" fill="#254E71"/>
<rect width="1" height="1" transform="matrix(-1 0 0 1 939.112 20)" fill="#254E71"/>
<rect width="1" height="1" transform="matrix(-1 0 0 1 939.112 0)" fill="#254E71"/>
<rect x="-0.21301" y="0.21301" width="0.57398" height="0.57398" transform="matrix(-1 0 0 1 928.686 20)" fill="#254E71" stroke="#53ABF7" stroke-width="0.42602"/>
<rect x="-0.21301" y="0.21301" width="0.57398" height="0.57398" transform="matrix(-1 0 0 1 928.686 0)" fill="#254E71" stroke="#53ABF7" stroke-width="0.42602"/>
<rect width="1" height="1" transform="matrix(-1 0 0 1 919.112 20)" fill="#254E71"/>
<rect width="1" height="1" transform="matrix(-1 0 0 1 919.112 0)" fill="#254E71"/>
<rect width="1" height="1" transform="matrix(-1 0 0 1 909.112 20)" fill="#6695BD"/>
<rect width="1" height="1" transform="matrix(-1 0 0 1 909.112 0)" fill="#6695BD"/>
<rect width="1" height="1" transform="matrix(-1 0 0 1 899.112 20)" fill="#254E71"/>
<rect width="1" height="1" transform="matrix(-1 0 0 1 899.112 0)" fill="#254E71"/>
<rect width="1" height="1" transform="matrix(-1 0 0 1 889.112 20)" fill="#254E71"/>
<rect width="1" height="1" transform="matrix(-1 0 0 1 889.112 0)" fill="#254E71"/>
<rect width="1" height="1" transform="matrix(-1 0 0 1 879.112 20)" fill="#254E71"/>
<rect width="1" height="1" transform="matrix(-1 0 0 1 879.112 0)" fill="#254E71"/>
<rect width="1" height="1" transform="matrix(-1 0 0 1 869.112 20)" fill="#254E71"/>
<rect width="1" height="1" transform="matrix(-1 0 0 1 869.112 0)" fill="#254E71"/>
<rect width="1" height="1" transform="matrix(-1 0 0 1 859.112 20)" fill="#D5FF2F"/>
<rect width="1" height="1" transform="matrix(-1 0 0 1 859.112 0)" fill="#D5FF2F"/>
<rect width="1" height="1" transform="matrix(-1 0 0 1 849.112 20)" fill="#254E71"/>
<rect width="1" height="1" transform="matrix(-1 0 0 1 849.112 0)" fill="#254E71"/>
<rect width="1" height="1" transform="matrix(-1 0 0 1 839.112 20)" fill="#254E71"/>
<rect width="1" height="1" transform="matrix(-1 0 0 1 839.112 0)" fill="#254E71"/>
<rect width="1" height="1" transform="matrix(-1 0 0 1 829.112 20)" fill="#254E71"/>
<rect width="1" height="1" transform="matrix(-1 0 0 1 829.112 0)" fill="#254E71"/>
<rect width="1" height="1" transform="matrix(-1 0 0 1 819.112 20)" fill="#254E71"/>
<rect width="1" height="1" transform="matrix(-1 0 0 1 819.112 0)" fill="#254E71"/>
<rect width="1" height="1" transform="matrix(-1 0 0 1 809.112 20)" fill="#254E71"/>
<rect width="1" height="1" transform="matrix(-1 0 0 1 809.112 0)" fill="#254E71"/>
<rect width="1" height="1" transform="matrix(-1 0 0 1 799.112 20)" fill="#254E71"/>
<rect width="1" height="1" transform="matrix(-1 0 0 1 799.112 0)" fill="#254E71"/>
<rect width="1" height="1" transform="matrix(-1 0 0 1 789.112 20)" fill="#254E71"/>
<rect width="1" height="1" transform="matrix(-1 0 0 1 789.112 0)" fill="#254E71"/>
<rect width="1" height="1" transform="matrix(-1 0 0 1 779.112 20)" fill="#254E71"/>
<rect width="1" height="1" transform="matrix(-1 0 0 1 779.112 0)" fill="#254E71"/>
<rect width="1" height="1" transform="matrix(-1 0 0 1 769.112 20)" fill="#254E71"/>
<rect width="1" height="1" transform="matrix(-1 0 0 1 769.112 0)" fill="#254E71"/>
<rect width="1" height="1" transform="matrix(-1 0 0 1 759.112 20)" fill="#254E71"/>
<rect width="1" height="1" transform="matrix(-1 0 0 1 759.112 0)" fill="#254E71"/>
<rect width="1" height="1" transform="matrix(-1 0 0 1 749.112 20)" fill="#254E71"/>
<rect width="1" height="1" transform="matrix(-1 0 0 1 749.112 0)" fill="#254E71"/>
<rect width="1" height="1" transform="matrix(-1 0 0 1 739.112 20)" fill="#254E71"/>
<rect width="1" height="1" transform="matrix(-1 0 0 1 739.112 0)" fill="#254E71"/>
<rect width="1" height="1" transform="matrix(-1 0 0 1 719.112 20)" fill="#254E71"/>
<rect width="1" height="1" transform="matrix(-1 0 0 1 719.112 0)" fill="#254E71"/>
<rect width="1" height="1" transform="matrix(-1 0 0 1 709.112 20)" fill="#254E71"/>
<rect width="1" height="1" transform="matrix(-1 0 0 1 709.112 0)" fill="#254E71"/>
<rect width="1" height="1" transform="matrix(-1 0 0 1 699.112 20)" fill="#254E71"/>
<rect width="1" height="1" transform="matrix(-1 0 0 1 699.112 0)" fill="#254E71"/>
<rect width="1" height="1" transform="matrix(-1 0 0 1 679.112 20)" fill="#254E71"/>
<rect width="1" height="1" transform="matrix(-1 0 0 1 679.112 0)" fill="#254E71"/>
<rect width="1" height="1" transform="matrix(-1 0 0 1 669.112 20)" fill="#254E71"/>
<rect width="1" height="1" transform="matrix(-1 0 0 1 669.112 0)" fill="#254E71"/>
<rect x="-0.21301" y="0.21301" width="0.57398" height="0.57398" transform="matrix(-1 0 0 1 658.686 20)" fill="#254E71" stroke="#53ABF7" stroke-width="0.42602"/>
<rect x="-0.21301" y="0.21301" width="0.57398" height="0.57398" transform="matrix(-1 0 0 1 658.686 0)" fill="#254E71" stroke="#53ABF7" stroke-width="0.42602"/>
<rect width="1" height="1" transform="matrix(-1 0 0 1 649.112 20)" fill="#254E71"/>
<rect width="1" height="1" transform="matrix(-1 0 0 1 649.112 0)" fill="#254E71"/>
<rect width="1" height="1" transform="matrix(-1 0 0 1 639.112 20)" fill="#254E71"/>
<rect width="1" height="1" transform="matrix(-1 0 0 1 639.112 0)" fill="#254E71"/>
<rect width="1" height="1" transform="matrix(-1 0 0 1 629.112 20)" fill="#254E71"/>
<rect width="1" height="1" transform="matrix(-1 0 0 1 629.112 0)" fill="#254E71"/>
<rect width="1" height="1" transform="matrix(-1 0 0 1 619.112 20)" fill="#254E71"/>
<rect width="1" height="1" transform="matrix(-1 0 0 1 619.112 0)" fill="#254E71"/>
<rect width="1" height="1" transform="matrix(-1 0 0 1 599.112 20)" fill="#6695BD"/>
<rect width="1" height="1" transform="matrix(-1 0 0 1 599.112 0)" fill="#6695BD"/>
<rect width="1" height="1" transform="matrix(-1 0 0 1 589.112 20)" fill="#254E71"/>
<rect width="1" height="1" transform="matrix(-1 0 0 1 589.112 0)" fill="#254E71"/>
<rect width="1" height="1" transform="matrix(-1 0 0 1 579.112 20)" fill="#254E71"/>
<rect width="1" height="1" transform="matrix(-1 0 0 1 579.112 0)" fill="#254E71"/>
<rect width="1" height="1" transform="matrix(-1 0 0 1 569.112 20)" fill="#254E71"/>
<rect width="1" height="1" transform="matrix(-1 0 0 1 569.112 0)" fill="#254E71"/>
<rect width="1" height="1" transform="matrix(-1 0 0 1 559.112 20)" fill="#254E71"/>
<rect width="1" height="1" transform="matrix(-1 0 0 1 559.112 0)" fill="#254E71"/>
<rect width="1" height="1" transform="matrix(-1 0 0 1 549.112 20)" fill="#254E71"/>
<rect width="1" height="1" transform="matrix(-1 0 0 1 549.112 0)" fill="#254E71"/>
<rect width="1" height="1" transform="matrix(-1 0 0 1 539.112 20)" fill="#254E71"/>
<rect width="1" height="1" transform="matrix(-1 0 0 1 539.112 0)" fill="#254E71"/>
<rect width="1" height="1" transform="matrix(-1 0 0 1 529.112 20)" fill="#254E71"/>
<rect width="1" height="1" transform="matrix(-1 0 0 1 529.112 0)" fill="#254E71"/>
<rect width="1" height="1" transform="matrix(-1 0 0 1 519.112 20)" fill="#254E71"/>
<rect width="1" height="1" transform="matrix(-1 0 0 1 519.112 0)" fill="#254E71"/>
</svg>
