<svg width="36" height="37" viewBox="0 0 36 37" fill="none" xmlns="http://www.w3.org/2000/svg">
<g clip-path="url(#clip0_253_20379)">
<path d="M28 0.257538H8C3.58172 0.257538 0 3.83926 0 8.25754V28.2575C0 32.6758 3.58172 36.2575 8 36.2575H28C32.4183 36.2575 36 32.6758 36 28.2575V8.25754C36 3.83926 32.4183 0.257538 28 0.257538Z" fill="#040F24"/>
<path d="M28 0.257538H8C3.58172 0.257538 0 3.83926 0 8.25754V28.2575C0 32.6758 3.58172 36.2575 8 36.2575H28C32.4183 36.2575 36 32.6758 36 28.2575V8.25754C36 3.83926 32.4183 0.257538 28 0.257538Z" fill="url(#paint0_radial_253_20379)"/>
<path d="M8 0.757538H28C32.1421 0.757538 35.5 4.1154 35.5 8.25754V28.2575C35.5 32.3997 32.1421 35.7575 28 35.7575H8C3.85786 35.7575 0.5 32.3997 0.5 28.2575V8.25754C0.5 4.1154 3.85786 0.757538 8 0.757538Z" stroke="white" stroke-opacity="0.08"/>
<path d="M13 22.2575V17.619C13 17.1093 13.1003 16.6199 13.2845 16.1652M23 19.7575V19.0729M15.2222 13.992C16.0167 13.5281 16.9721 13.2575 18 13.2575C20.2795 13.2575 22.2027 14.5882 22.8046 16.4075M16 23.2575V21.081M20 23.2575V18.1104C20 17.0871 19.1046 16.2575 18 16.2575C16.8954 16.2575 16 17.0871 16 18.1104V18.9046M20 28.0575C19.3538 28.1886 18.6849 28.2575 18 28.2575C12.4771 28.2575 8 23.7803 8 18.2575C8 12.7347 12.4771 8.25754 18 8.25754C23.5228 8.25754 28 12.7347 28 18.2575C28 18.5115 27.9905 18.7632 27.9719 19.0124M27.1667 24.7575H27.4C27.7314 24.7575 28 25.0261 28 25.3575V27.6575C28 27.9889 27.7314 28.2575 27.4 28.2575H23.6C23.2686 28.2575 23 27.9889 23 27.6575V25.3575C23 25.0261 23.2686 24.7575 23.6 24.7575H23.8333M27.1667 24.7575V23.0075C27.1667 22.4242 26.8333 21.2575 25.5 21.2575C24.1667 21.2575 23.8333 22.4242 23.8333 23.0075V24.7575M27.1667 24.7575H23.8333" stroke="url(#paint1_linear_253_20379)" stroke-width="1.5" stroke-linecap="round" stroke-linejoin="round"/>
</g>
<defs>
<radialGradient id="paint0_radial_253_20379" cx="0" cy="0" r="1" gradientUnits="userSpaceOnUse" gradientTransform="translate(18 -17.7425) rotate(90) scale(54)">
<stop offset="0.612862" stop-color="#245337" stop-opacity="0"/>
<stop offset="1" stop-color="#3F7BC3"/>
</radialGradient>
<linearGradient id="paint1_linear_253_20379" x1="8.00539" y1="18.2575" x2="28.0243" y2="18.2575" gradientUnits="userSpaceOnUse">
<stop stop-color="#61BFF9"/>
<stop offset="1" stop-color="#61F9F9"/>
</linearGradient>
<clipPath id="clip0_253_20379">
<rect width="36" height="36" fill="white" transform="translate(0 0.257538)"/>
</clipPath>
</defs>
</svg>
