<svg width="51" height="46" viewBox="0 0 51 46" fill="none" xmlns="http://www.w3.org/2000/svg">
<path d="M42.1419 36.6021C41.6729 37.0687 41.3008 37.6234 41.0468 38.2343C40.7928 38.8452 40.6621 39.5002 40.6621 40.1618C40.6621 40.8234 40.7928 41.4785 41.0468 42.0894C41.3008 42.7003 41.6729 43.255 42.1419 43.7216C43.0917 44.6669 44.3771 45.1977 45.7171 45.1977C47.0572 45.1977 48.3426 44.6669 49.2923 43.7216C49.7613 43.255 50.1335 42.7003 50.3875 42.0894C50.6414 41.4785 50.7722 40.8234 50.7722 40.1618C50.7722 39.5002 50.6414 38.8452 50.3875 38.2343C50.1335 37.6234 49.7613 37.0687 49.2923 36.6021C48.3426 35.6567 47.0572 35.126 45.7171 35.126C44.3771 35.126 43.0917 35.6567 42.1419 36.6021Z" fill="white"/>
<path d="M21.7393 2.27735C21.2703 2.74397 20.8982 3.29866 20.6442 3.90957C20.3902 4.52047 20.2595 5.17554 20.2595 5.83712C20.2595 6.49871 20.3902 7.15377 20.6442 7.76467C20.8982 8.37557 21.2703 8.93027 21.7393 9.39689C22.6891 10.3422 23.9745 10.873 25.3145 10.873C26.6546 10.873 27.94 10.3422 28.8897 9.39689C29.3587 8.93027 29.7309 8.37557 29.9849 7.76467C30.2388 7.15377 30.3696 6.49871 30.3696 5.83712C30.3696 5.17554 30.2388 4.52047 29.9849 3.90957C29.7309 3.29866 29.3587 2.74397 28.8897 2.27735C27.94 1.33199 26.6546 0.80127 25.3145 0.80127C23.9745 0.80127 22.6891 1.33199 21.7393 2.27735Z" fill="white"/>
<path d="M21.7396 24.6494C21.2706 25.116 20.8984 25.6707 20.6445 26.2816C20.3905 26.8925 20.2598 27.5476 20.2598 28.2092C20.2598 28.8708 20.3905 29.5258 20.6445 30.1367C20.8984 30.7476 21.2706 31.3023 21.7396 31.769C22.6893 32.7143 23.9748 33.245 25.3148 33.245C26.6548 33.245 27.9403 32.7143 28.89 31.769C29.359 31.3023 29.7312 30.7476 29.9851 30.1367C30.2391 29.5258 30.3698 28.8708 30.3698 28.2092C30.3698 27.5476 30.2391 26.8925 29.9851 26.2816C29.7312 25.6707 29.359 25.116 28.89 24.6494C27.9403 23.7041 26.6548 23.1733 25.3148 23.1733C23.9748 23.1733 22.6893 23.7041 21.7396 24.6494Z" fill="white"/>
<path d="M1.46941 36.6025C0.766209 37.3089 0.288047 38.2078 0.0952603 39.1857C-0.097526 40.1637 0.00370987 41.1768 0.386199 42.0972C0.768688 43.0177 1.41528 43.8042 2.24436 44.3575C3.07345 44.9108 4.04787 45.2061 5.04462 45.2061C6.04137 45.2061 7.01578 44.9108 7.84486 44.3575C8.67395 43.8042 9.32054 43.0177 9.70302 42.0972C10.0855 41.1768 10.1868 40.1637 9.99397 39.1857C9.80119 38.2078 9.32301 37.3089 8.61981 36.6025C8.15213 36.1298 7.59534 35.7545 6.98166 35.4984C6.36798 35.2422 5.7096 35.1104 5.04462 35.1104C4.37963 35.1104 3.72125 35.2422 3.10757 35.4984C2.49389 35.7545 1.9371 36.1298 1.46941 36.6025Z" fill="white"/>
<path d="M41.5551 31.4806L31.2422 13.6162" stroke="white" stroke-width="3.69926" stroke-miterlimit="10" stroke-linecap="square"/>
<path d="M14.9609 41.4468H35.8028" stroke="white" stroke-width="3.69926" stroke-miterlimit="10" stroke-linecap="square"/>
<path d="M19.1262 13.6162L9.01379 31.1335" stroke="white" stroke-width="3.69926" stroke-miterlimit="10" stroke-linecap="square"/>
</svg>
