<svg width="75" height="66" viewBox="0 0 75 66" fill="none" xmlns="http://www.w3.org/2000/svg">
<path d="M61.3385 52.6742C60.6672 53.3421 60.1344 54.1361 59.7709 55.0106C59.4074 55.8851 59.2202 56.8228 59.2202 57.7698C59.2202 58.7168 59.4074 59.6545 59.7709 60.529C60.1344 61.4034 60.6672 62.1974 61.3385 62.8654C62.698 64.2186 64.538 64.9783 66.4562 64.9783C68.3743 64.9783 70.2144 64.2186 71.5738 62.8654C72.2452 62.1974 72.7779 61.4034 73.1415 60.529C73.505 59.6545 73.6921 58.7168 73.6921 57.7698C73.6921 56.8228 73.505 55.8851 73.1415 55.0106C72.7779 54.1361 72.2452 53.3421 71.5738 52.6742C70.2144 51.321 68.3743 50.5613 66.4562 50.5613C64.538 50.5613 62.698 51.321 61.3385 52.6742Z" fill="white"/>
<path d="M32.1335 3.54041C31.4622 4.20834 30.9294 5.00235 30.5659 5.87682C30.2024 6.75129 30.0153 7.68898 30.0153 8.636C30.0153 9.58302 30.2024 10.5207 30.5659 11.3952C30.9294 12.2696 31.4622 13.0637 32.1335 13.7316C33.493 15.0848 35.3331 15.8445 37.2512 15.8445C39.1694 15.8445 41.0094 15.0848 42.3689 13.7316C43.0402 13.0637 43.573 12.2696 43.9365 11.3952C44.3 10.5207 44.4872 9.58302 44.4872 8.636C44.4872 7.68898 44.3 6.75129 43.9365 5.87682C43.573 5.00235 43.0402 4.20834 42.3689 3.54041C41.0094 2.18719 39.1694 1.42749 37.2512 1.42749C35.3331 1.42749 33.493 2.18719 32.1335 3.54041Z" fill="white"/>
<path d="M32.1338 35.5646C31.4625 36.2325 30.9297 37.0265 30.5662 37.901C30.2027 38.7755 30.0156 39.7132 30.0156 40.6602C30.0156 41.6072 30.2027 42.5449 30.5662 43.4193C30.9297 44.2938 31.4625 45.0878 32.1338 45.7558C33.4933 47.109 35.3334 47.8687 37.2515 47.8687C39.1697 47.8687 41.0097 47.109 42.3692 45.7558C43.0405 45.0878 43.5733 44.2938 43.9368 43.4193C44.3003 42.5449 44.4875 41.6072 44.4875 40.6602C44.4875 39.7132 44.3003 38.7755 43.9368 37.901C43.5733 37.0265 43.0405 36.2325 42.3692 35.5646C41.0097 34.2114 39.1697 33.4517 37.2515 33.4517C35.3334 33.4517 33.4933 34.2114 32.1338 35.5646Z" fill="white"/>
<path d="M3.11845 52.6745C2.11186 53.6857 1.4274 54.9724 1.15143 56.3722C0.875473 57.7721 1.02039 59.2223 1.5679 60.5399C2.11541 61.8574 3.04096 62.9833 4.22774 63.7753C5.41452 64.5673 6.80934 64.99 8.23613 64.99C9.66292 64.99 11.0577 64.5673 12.2445 63.7753C13.4313 62.9833 14.3568 61.8574 14.9044 60.5399C15.4519 59.2223 15.5968 57.7721 15.3208 56.3722C15.0449 54.9724 14.3604 53.6857 13.3538 52.6745C12.6843 51.9978 11.8873 51.4606 11.0089 51.094C10.1305 50.7274 9.18801 50.5386 8.23613 50.5386C7.28425 50.5386 6.34182 50.7274 5.46337 51.094C4.58493 51.4606 3.78791 51.9978 3.11845 52.6745Z" fill="white"/>
<path d="M60.4985 45.343L45.7362 19.7712" stroke="white" stroke-width="5.29526" stroke-miterlimit="10" stroke-linecap="square"/>
<path d="M22.4308 59.6086H52.2646" stroke="white" stroke-width="5.29526" stroke-miterlimit="10" stroke-linecap="square"/>
<path d="M28.3932 19.7712L13.918 44.8462" stroke="white" stroke-width="5.29526" stroke-miterlimit="10" stroke-linecap="square"/>
</svg>
