<svg width="294" height="58" viewBox="0 0 294 58" fill="none" xmlns="http://www.w3.org/2000/svg">
<g clip-path="url(#clip0_253_4348)">
<path d="M220.869 28.2218C220.601 27.4798 220.131 26.8271 219.513 26.337C218.84 25.8134 218.001 25.5481 217.149 25.5891C216.582 25.5694 216.017 25.6795 215.499 25.9111C214.98 26.1427 214.522 26.4896 214.158 26.9254C213.434 28.0513 213.049 29.3615 213.049 30.6999C213.049 32.0383 213.434 33.3486 214.158 34.4745C214.528 34.9 214.989 35.2367 215.507 35.4594C216.025 35.6822 216.586 35.7852 217.149 35.7609C217.976 35.7959 218.79 35.5537 219.463 35.0728C220.111 34.646 220.62 34.0395 220.929 33.3276L224.459 34.9432C224.459 34.9432 224.32 35.2523 224.24 35.4119C223.855 36.1682 223.33 36.8449 222.694 37.4064C221.984 38.0186 221.17 38.4983 220.291 38.8224C219.254 39.1899 218.16 39.3689 217.06 39.351C215.567 39.3768 214.091 39.0343 212.762 38.3537C211.499 37.6861 210.459 36.6634 209.77 35.4119C209.002 33.9646 208.624 32.3425 208.673 30.7049C208.618 29.0611 209.004 27.4326 209.79 25.988C210.481 24.7382 211.52 23.7161 212.781 23.0461C214.097 22.3677 215.56 22.0251 217.04 22.0489C218.357 22.0235 219.665 22.2749 220.879 22.7868C221.97 23.2552 222.919 24.0013 223.631 24.9508C223.953 25.4508 224.236 25.9741 224.479 26.5165L220.869 28.2218Z" fill="url(#paint0_linear_253_4348)"/>
<path d="M259.41 30.6749C259.463 32.3259 259.055 33.9591 258.233 35.3918C257.481 36.6545 256.38 37.6728 255.062 38.3237C253.671 39.0092 252.135 39.3512 250.584 39.3209C249.031 39.3455 247.494 39.0039 246.097 38.3237C244.787 37.6793 243.689 36.672 242.936 35.4217C242.17 33.9692 241.769 32.3519 241.769 30.7098C241.769 29.0677 242.17 27.4504 242.936 25.9978C243.683 24.7329 244.781 23.7112 246.097 23.056C247.501 22.3975 249.033 22.0562 250.584 22.0562C252.135 22.0562 253.668 22.3975 255.072 23.056C256.39 23.7106 257.492 24.7322 258.243 25.9978C259.068 27.4296 259.475 29.0635 259.42 30.7148M255.431 30.7148C255.479 30.0309 255.39 29.3442 255.169 28.6952C254.948 28.0461 254.6 27.4478 254.144 26.9352C253.146 26.0923 251.881 25.6299 250.574 25.6299C249.268 25.6299 248.003 26.0923 247.004 26.9352C246.17 28.0184 245.717 29.3474 245.717 30.7148C245.717 32.0822 246.17 33.4111 247.004 34.4943C248.003 35.3373 249.268 35.7997 250.574 35.7997C251.881 35.7997 253.146 35.3373 254.144 34.4943C254.599 33.9812 254.947 33.3827 255.168 32.7338C255.388 32.085 255.478 31.3986 255.431 30.7148Z" fill="url(#paint1_linear_253_4348)"/>
<path d="M179.134 39.1008V22.2475H185.895C186.985 22.2212 188.065 22.4536 189.047 22.9256C189.908 23.3576 190.622 24.034 191.101 24.8702C191.597 25.7878 191.844 26.8192 191.819 27.8619C191.858 28.9086 191.602 29.9452 191.081 30.8537C190.596 31.6697 189.872 32.3172 189.007 32.7085L192.377 39.1208H188.089L185.098 33.3567H183.103V39.1208L179.134 39.1008ZM183.063 30.1257H184.998C185.705 30.1709 186.407 29.9778 186.992 29.5772C187.232 29.3644 187.42 29.0986 187.539 28.8009C187.658 28.5031 187.707 28.1817 187.68 27.8619C187.68 26.3063 186.783 25.5284 184.978 25.5284H183.043L183.063 30.1257Z" fill="url(#paint2_linear_253_4348)"/>
<path d="M263.101 39.0916V22.2382H269.813C270.906 22.2104 271.991 22.4464 272.974 22.9263C273.834 23.3547 274.549 24.0277 275.028 24.861C275.524 25.7786 275.772 26.8099 275.746 27.8527C275.78 28.8989 275.525 29.9341 275.008 30.8444C274.519 31.6612 273.792 32.3085 272.924 32.6993L276.305 39.1115H272.017L269.025 33.3475H267.03V39.1115L263.101 39.0916ZM267.03 30.1164H268.965C269.673 30.1632 270.375 29.97 270.96 29.5679C271.206 29.3598 271.398 29.095 271.52 28.7962C271.641 28.4975 271.689 28.1737 271.658 27.8527C271.658 26.297 270.75 25.5192 268.945 25.5192H267.01L267.03 30.1164Z" fill="url(#paint3_linear_253_4348)"/>
<path d="M78.0745 22.248H82.7016L86.6308 32.6891H86.8103L90.7394 22.248H95.3666V39.1014H91.7267V28.75H91.597L87.8873 39.0017H85.5637L81.844 28.6902H81.7144V39.1014H78.0745V22.248Z" fill="url(#paint4_linear_253_4348)"/>
<path d="M109.218 22.248H113.097V33.4271C113.132 34.5677 112.834 35.6938 112.24 36.6681C111.66 37.5539 110.83 38.248 109.856 38.6626C107.564 39.5803 105.007 39.5803 102.716 38.6626C101.742 38.248 100.912 37.5539 100.332 36.6681C99.7383 35.6938 99.4404 34.5677 99.4749 33.4271V22.248H103.364V33.2177C103.351 33.5643 103.418 33.9093 103.559 34.2258C103.701 34.5424 103.914 34.8219 104.182 35.0426C104.782 35.5152 105.533 35.7559 106.296 35.7207C107.065 35.7537 107.821 35.5135 108.43 35.0426C108.695 34.8199 108.905 34.5397 109.045 34.2235C109.185 33.9073 109.251 33.5633 109.238 33.2177L109.218 22.248Z" fill="url(#paint5_linear_253_4348)"/>
<path d="M116.985 39.1012V22.2479H120.874V35.8003H127.576V39.1012H116.985Z" fill="url(#paint6_linear_253_4348)"/>
<path d="M175.014 22.2479H171.125V39.1012H175.014V22.2479Z" fill="url(#paint7_linear_253_4348)"/>
<path d="M163.726 23.3552C162.286 22.6305 160.69 22.2709 159.078 22.3081H152.796V39.1016H159.078C160.687 39.1367 162.279 38.7772 163.716 38.0545C165.015 37.3819 166.086 36.3413 166.797 35.0628C167.517 33.7141 167.894 32.2088 167.894 30.6799C167.894 29.151 167.517 27.6457 166.797 26.297C166.075 25.0434 165.009 24.0225 163.726 23.3552ZM162.489 34.3248C161.995 34.7741 161.415 35.1196 160.785 35.3405C160.154 35.5615 159.486 35.6536 158.819 35.6113H156.825V25.6887H158.819C159.49 25.6238 160.167 25.7081 160.802 25.9357C161.436 26.1634 162.012 26.5286 162.489 27.0052C162.966 27.4818 163.331 28.0581 163.558 28.6925C163.786 29.327 163.87 30.004 163.805 30.6749C163.849 31.3456 163.754 32.0181 163.528 32.6509C163.301 33.2838 162.948 33.8636 162.489 34.3547V34.3248Z" fill="url(#paint8_linear_253_4348)"/>
<path d="M206.029 25.5091V22.308H195.777V39.1015H206.029V35.9103H199.796V32.1009H205.301V29.0194H199.796V25.5091H206.029Z" fill="url(#paint9_linear_253_4348)"/>
<path d="M288.969 22.3079L285.688 29.4581L285.648 29.3583L282.387 22.3079H277.83L283.644 33.5667V39.1014H287.663L287.673 33.5467L293.477 22.3079H288.969Z" fill="url(#paint10_linear_253_4348)"/>
<path d="M148.029 22.248H144.14V39.1014H148.029V22.248Z" fill="url(#paint11_linear_253_4348)"/>
<path d="M128.006 25.5589V22.248H140.631V25.5589H136.103V39.1014H132.543V25.5589H128.006Z" fill="url(#paint12_linear_253_4348)"/>
<path d="M226.903 25.5589V22.248H239.528V25.5589H235V39.1014H231.44V25.5589H226.903Z" fill="url(#paint13_linear_253_4348)"/>
<path d="M41.5157 40.3078C41.0538 40.8332 40.6873 41.4578 40.4372 42.1456C40.1871 42.8335 40.0583 43.5711 40.0583 44.3161C40.0583 45.061 40.1871 45.7986 40.4372 46.4865C40.6873 47.1744 41.0538 47.799 41.5157 48.3244C42.4509 49.3888 43.7168 49.9864 45.0365 49.9864C46.3561 49.9864 47.622 49.3888 48.5573 48.3244C49.0192 47.799 49.3857 47.1744 49.6358 46.4865C49.8859 45.7986 50.0146 45.061 50.0146 44.3161C50.0146 43.5711 49.8859 42.8335 49.6358 42.1456C49.3857 41.4578 49.0192 40.8332 48.5573 40.3078C47.622 39.2433 46.3561 38.6457 45.0365 38.6457C43.7168 38.6457 42.4509 39.2433 41.5157 40.3078Z" fill="url(#paint14_linear_253_4348)"/>
<path d="M21.4236 1.6581C20.9617 2.18351 20.5952 2.8081 20.3451 3.49598C20.095 4.18385 19.9663 4.92146 19.9663 5.66641C19.9663 6.41136 20.095 7.14895 20.3451 7.83683C20.5952 8.5247 20.9617 9.14929 21.4236 9.6747C22.3589 10.7392 23.6248 11.3368 24.9444 11.3368C26.2641 11.3368 27.53 10.7392 28.4652 9.6747C28.9271 9.14929 29.2936 8.5247 29.5437 7.83683C29.7938 7.14895 29.9226 6.41136 29.9226 5.66641C29.9226 4.92146 29.7938 4.18385 29.5437 3.49598C29.2936 2.8081 28.9271 2.18351 28.4652 1.6581C27.53 0.593629 26.2641 -0.00396729 24.9444 -0.00396729C23.6248 -0.00396729 22.3589 0.593629 21.4236 1.6581Z" fill="url(#paint15_linear_253_4348)"/>
<path d="M21.4236 26.8492C20.9617 27.3746 20.5952 27.9992 20.3451 28.6871C20.095 29.375 19.9663 30.1126 19.9663 30.8575C19.9663 31.6025 20.095 32.3401 20.3451 33.0279C20.5952 33.7158 20.9617 34.3404 21.4236 34.8658C22.3589 35.9303 23.6248 36.5279 24.9444 36.5279C26.2641 36.5279 27.53 35.9303 28.4652 34.8658C28.9271 34.3404 29.2936 33.7158 29.5437 33.0279C29.7938 32.3401 29.9226 31.6025 29.9226 30.8575C29.9226 30.1126 29.7938 29.375 29.5437 28.6871C29.2936 27.9992 28.9271 27.3746 28.4652 26.8492C27.53 25.7847 26.2641 25.1871 24.9444 25.1871C23.6248 25.1871 22.3589 25.7847 21.4236 26.8492Z" fill="url(#paint16_linear_253_4348)"/>
<path d="M1.46171 40.3084C0.769202 41.1038 0.298313 42.116 0.10846 43.2171C-0.081394 44.3183 0.0183019 45.4591 0.394973 46.4955C0.771643 47.5319 1.4084 48.4175 2.22487 49.0405C3.04134 49.6635 4.00094 49.996 4.98253 49.996C5.96412 49.996 6.9237 49.6635 7.74017 49.0405C8.55665 48.4175 9.1934 47.5319 9.57007 46.4955C9.94674 45.4591 10.0464 44.3183 9.8566 43.2171C9.66674 42.116 9.19584 41.1038 8.50333 40.3084C8.04277 39.7761 7.49445 39.3535 6.89011 39.0651C6.28576 38.7767 5.63739 38.6282 4.98253 38.6282C4.32766 38.6282 3.67929 38.7767 3.07495 39.0651C2.47061 39.3535 1.92228 39.7761 1.46171 40.3084Z" fill="url(#paint17_linear_253_4348)"/>
<path d="M40.9378 34.5412L30.7817 14.4258" stroke="url(#paint18_linear_253_4348)" stroke-width="4.78259" stroke-miterlimit="10" stroke-linecap="square"/>
<path d="M14.748 45.7629H35.2728" stroke="url(#paint19_linear_253_4348)" stroke-width="4.78259" stroke-miterlimit="10" stroke-linecap="square"/>
<path d="M18.8499 14.4257L8.89136 34.1502" stroke="url(#paint20_linear_253_4348)" stroke-width="4.78259" stroke-miterlimit="10" stroke-linecap="square"/>
</g>
<defs>
<linearGradient id="paint0_linear_253_4348" x1="208.672" y1="30.6997" x2="224.498" y2="30.6997" gradientUnits="userSpaceOnUse">
<stop stop-color="#61BFF9"/>
<stop offset="1" stop-color="#61F9F9"/>
</linearGradient>
<linearGradient id="paint1_linear_253_4348" x1="241.774" y1="30.6895" x2="259.446" y2="30.6895" gradientUnits="userSpaceOnUse">
<stop stop-color="#61BFF9"/>
<stop offset="1" stop-color="#61F9F9"/>
</linearGradient>
<linearGradient id="paint2_linear_253_4348" x1="179.138" y1="30.6831" x2="192.393" y2="30.6831" gradientUnits="userSpaceOnUse">
<stop stop-color="#61BFF9"/>
<stop offset="1" stop-color="#61F9F9"/>
</linearGradient>
<linearGradient id="paint3_linear_253_4348" x1="263.105" y1="30.6738" x2="276.321" y2="30.6738" gradientUnits="userSpaceOnUse">
<stop stop-color="#61BFF9"/>
<stop offset="1" stop-color="#61F9F9"/>
</linearGradient>
<linearGradient id="paint4_linear_253_4348" x1="78.0791" y1="30.6747" x2="95.3876" y2="30.6747" gradientUnits="userSpaceOnUse">
<stop stop-color="#61BFF9"/>
<stop offset="1" stop-color="#61F9F9"/>
</linearGradient>
<linearGradient id="paint5_linear_253_4348" x1="99.4758" y1="30.7995" x2="113.116" y2="30.7995" gradientUnits="userSpaceOnUse">
<stop stop-color="#61BFF9"/>
<stop offset="1" stop-color="#61F9F9"/>
</linearGradient>
<linearGradient id="paint6_linear_253_4348" x1="116.988" y1="30.6745" x2="127.589" y2="30.6745" gradientUnits="userSpaceOnUse">
<stop stop-color="#61BFF9"/>
<stop offset="1" stop-color="#61F9F9"/>
</linearGradient>
<linearGradient id="paint7_linear_253_4348" x1="171.126" y1="30.6745" x2="175.018" y2="30.6745" gradientUnits="userSpaceOnUse">
<stop stop-color="#61BFF9"/>
<stop offset="1" stop-color="#61F9F9"/>
</linearGradient>
<linearGradient id="paint8_linear_253_4348" x1="152.8" y1="30.7047" x2="167.912" y2="30.7047" gradientUnits="userSpaceOnUse">
<stop stop-color="#61BFF9"/>
<stop offset="1" stop-color="#61F9F9"/>
</linearGradient>
<linearGradient id="paint9_linear_253_4348" x1="195.78" y1="30.7047" x2="206.041" y2="30.7047" gradientUnits="userSpaceOnUse">
<stop stop-color="#61BFF9"/>
<stop offset="1" stop-color="#61F9F9"/>
</linearGradient>
<linearGradient id="paint10_linear_253_4348" x1="277.834" y1="30.7046" x2="293.496" y2="30.7046" gradientUnits="userSpaceOnUse">
<stop stop-color="#61BFF9"/>
<stop offset="1" stop-color="#61F9F9"/>
</linearGradient>
<linearGradient id="paint11_linear_253_4348" x1="144.141" y1="30.6747" x2="148.034" y2="30.6747" gradientUnits="userSpaceOnUse">
<stop stop-color="#61BFF9"/>
<stop offset="1" stop-color="#61F9F9"/>
</linearGradient>
<linearGradient id="paint12_linear_253_4348" x1="128.009" y1="30.6747" x2="140.646" y2="30.6747" gradientUnits="userSpaceOnUse">
<stop stop-color="#61BFF9"/>
<stop offset="1" stop-color="#61F9F9"/>
</linearGradient>
<linearGradient id="paint13_linear_253_4348" x1="226.906" y1="30.6747" x2="239.543" y2="30.6747" gradientUnits="userSpaceOnUse">
<stop stop-color="#61BFF9"/>
<stop offset="1" stop-color="#61F9F9"/>
</linearGradient>
<linearGradient id="paint14_linear_253_4348" x1="40.061" y1="44.3161" x2="50.0267" y2="44.3161" gradientUnits="userSpaceOnUse">
<stop stop-color="#61BFF9"/>
<stop offset="1" stop-color="#61F9F9"/>
</linearGradient>
<linearGradient id="paint15_linear_253_4348" x1="19.969" y1="5.66641" x2="29.9346" y2="5.66641" gradientUnits="userSpaceOnUse">
<stop stop-color="#61BFF9"/>
<stop offset="1" stop-color="#61F9F9"/>
</linearGradient>
<linearGradient id="paint16_linear_253_4348" x1="19.969" y1="30.8575" x2="29.9346" y2="30.8575" gradientUnits="userSpaceOnUse">
<stop stop-color="#61BFF9"/>
<stop offset="1" stop-color="#61F9F9"/>
</linearGradient>
<linearGradient id="paint17_linear_253_4348" x1="0.0173275" y1="44.3121" x2="9.96246" y2="44.3121" gradientUnits="userSpaceOnUse">
<stop stop-color="#61BFF9"/>
<stop offset="1" stop-color="#61F9F9"/>
</linearGradient>
<linearGradient id="paint18_linear_253_4348" x1="30.7845" y1="24.4835" x2="40.9501" y2="24.4835" gradientUnits="userSpaceOnUse">
<stop stop-color="#61BFF9"/>
<stop offset="1" stop-color="#61F9F9"/>
</linearGradient>
<linearGradient id="paint19_linear_253_4348" x1="14.7536" y1="46.2629" x2="35.2977" y2="46.2629" gradientUnits="userSpaceOnUse">
<stop stop-color="#61BFF9"/>
<stop offset="1" stop-color="#61F9F9"/>
</linearGradient>
<linearGradient id="paint20_linear_253_4348" x1="8.89404" y1="24.2879" x2="18.862" y2="24.2879" gradientUnits="userSpaceOnUse">
<stop stop-color="#61BFF9"/>
<stop offset="1" stop-color="#61F9F9"/>
</linearGradient>
<clipPath id="clip0_253_4348">
<rect width="293.477" height="57.3911" fill="white"/>
</clipPath>
</defs>
</svg>
