<svg width="273" height="78" viewBox="0 0 273 78" fill="none" xmlns="http://www.w3.org/2000/svg">
<path d="M193.839 38.6332C193.631 38.0592 193.268 37.5544 192.79 37.1753C192.269 36.7703 191.621 36.5651 190.962 36.5968C190.523 36.5816 190.086 36.6668 189.685 36.8459C189.284 37.025 188.929 37.2933 188.648 37.6304C188.088 38.5013 187.79 39.5147 187.79 40.55C187.79 41.5852 188.088 42.5987 188.648 43.4695C188.934 43.7987 189.29 44.0591 189.691 44.2314C190.092 44.4037 190.526 44.4834 190.962 44.4646C191.601 44.4916 192.231 44.3043 192.751 43.9323C193.252 43.6022 193.646 43.1331 193.885 42.5825L196.616 43.8321C196.616 43.8321 196.508 44.0712 196.446 44.1946C196.148 44.7796 195.743 45.303 195.25 45.7373C194.701 46.2109 194.072 46.5819 193.391 46.8326C192.589 47.1168 191.743 47.2553 190.892 47.2414C189.738 47.2614 188.596 46.9965 187.568 46.4701C186.591 45.9536 185.786 45.1627 185.254 44.1946C184.66 43.0752 184.367 41.8205 184.405 40.5538C184.363 39.2824 184.661 38.0227 185.269 36.9054C185.804 35.9387 186.608 35.1481 187.583 34.6299C188.601 34.1051 189.732 33.8401 190.877 33.8585C191.896 33.8389 192.907 34.0333 193.847 34.4293C194.69 34.7916 195.424 35.3687 195.975 36.1032C196.224 36.4899 196.443 36.8947 196.631 37.3142L193.839 38.6332Z" fill="#3879B4"/>
<path d="M223.65 40.5307C223.69 41.8078 223.375 43.071 222.739 44.1792C222.158 45.1559 221.306 45.9434 220.287 46.447C219.21 46.9772 218.023 47.2417 216.823 47.2183C215.622 47.2373 214.433 46.9731 213.352 46.447C212.339 45.9485 211.49 45.1694 210.907 44.2023C210.315 43.0788 210.005 41.8278 210.005 40.5577C210.005 39.2876 210.315 38.0366 210.907 36.9131C211.485 35.9347 212.335 35.1444 213.352 34.6376C214.438 34.1283 215.623 33.8643 216.823 33.8643C218.023 33.8643 219.208 34.1283 220.294 34.6376C221.314 35.1439 222.166 35.9341 222.747 36.9131C223.385 38.0205 223.7 39.2843 223.657 40.5616M220.572 40.5616C220.609 40.0326 220.54 39.5015 220.369 38.9994C220.199 38.4974 219.929 38.0346 219.577 37.6382C218.804 36.9861 217.826 36.6285 216.815 36.6285C215.805 36.6285 214.826 36.9861 214.054 37.6382C213.409 38.476 213.058 39.5039 213.058 40.5616C213.058 41.6192 213.409 42.6471 214.054 43.485C214.826 44.137 215.805 44.4947 216.815 44.4947C217.826 44.4947 218.804 44.137 219.577 43.485C219.928 43.0881 220.197 42.6252 220.368 42.1233C220.539 41.6214 220.608 41.0905 220.572 40.5616Z" fill="#3879B4"/>
<path d="M161.558 47.0481V34.0123H166.787C167.63 33.992 168.465 34.1717 169.225 34.5368C169.891 34.8709 170.444 35.3942 170.814 36.0409C171.198 36.7507 171.389 37.5484 171.369 38.355C171.399 39.1646 171.202 39.9663 170.798 40.669C170.423 41.3002 169.863 41.801 169.194 42.1037L171.801 47.0635H168.484L166.17 42.6051H164.628V47.0635L161.558 47.0481ZM164.597 40.1059H166.093C166.64 40.1409 167.184 39.9916 167.636 39.6817C167.822 39.5171 167.966 39.3115 168.059 39.0812C168.151 38.8509 168.189 38.6023 168.168 38.355C168.168 37.1517 167.474 36.55 166.078 36.55H164.581L164.597 40.1059Z" fill="#3879B4"/>
<path d="M226.505 47.0409V34.0051H231.696C232.542 33.9836 233.381 34.1661 234.141 34.5374C234.807 34.8687 235.36 35.3893 235.73 36.0338C236.114 36.7435 236.305 37.5412 236.286 38.3478C236.312 39.157 236.114 39.9578 235.715 40.6619C235.337 41.2936 234.774 41.7943 234.103 42.0966L236.718 47.0563H233.401L231.087 42.5979H229.544V47.0563L226.505 47.0409ZM229.544 40.0988H231.04C231.588 40.135 232.131 39.9855 232.583 39.6745C232.774 39.5135 232.922 39.3087 233.016 39.0776C233.11 38.8466 233.147 38.5961 233.123 38.3478C233.123 37.1445 232.421 36.5429 231.025 36.5429H229.529L229.544 40.0988Z" fill="#3879B4"/>
<path d="M83.3896 34.0127H86.9687L90.0078 42.0887H90.1467L93.1858 34.0127H96.7648V47.0485H93.9494V39.0419H93.8491L90.9797 46.9713H89.1825L86.3053 38.9956H86.2051V47.0485H83.3896V34.0127Z" fill="#3879B4"/>
<path d="M107.479 34.0127H110.479V42.6595C110.506 43.5418 110.275 44.4128 109.816 45.1664C109.367 45.8515 108.726 46.3884 107.972 46.7091C106.2 47.4189 104.222 47.4189 102.449 46.7091C101.696 46.3884 101.054 45.8515 100.606 45.1664C100.146 44.4128 99.9158 43.5418 99.9425 42.6595V34.0127H102.951V42.4975C102.94 42.7656 102.992 43.0325 103.102 43.2773C103.212 43.5221 103.376 43.7383 103.583 43.9091C104.048 44.2746 104.628 44.4608 105.219 44.4336C105.813 44.4591 106.398 44.2733 106.869 43.9091C107.074 43.7368 107.237 43.5201 107.345 43.2755C107.453 43.0309 107.504 42.7648 107.494 42.4975L107.479 34.0127Z" fill="#3879B4"/>
<path d="M113.486 47.0485V34.0127H116.494V44.4953H121.678V47.0485H113.486Z" fill="#3879B4"/>
<path d="M158.371 34.0127H155.363V47.0485H158.371V34.0127Z" fill="#3879B4"/>
<path d="M149.64 34.8691C148.526 34.3085 147.292 34.0304 146.045 34.0591H141.186V47.0486H146.045C147.289 47.0758 148.52 46.7977 149.632 46.2387C150.637 45.7185 151.466 44.9136 152.015 43.9247C152.572 42.8815 152.864 41.7172 152.864 40.5346C152.864 39.352 152.572 38.1877 152.015 37.1445C151.457 36.1748 150.633 35.3852 149.64 34.8691ZM148.683 43.3539C148.301 43.7014 147.853 43.9686 147.365 44.1395C146.877 44.3105 146.36 44.3817 145.845 44.3489H144.302V36.674H145.845C146.364 36.6238 146.887 36.689 147.378 36.8651C147.869 37.0411 148.314 37.3236 148.683 37.6923C149.052 38.061 149.334 38.5067 149.51 38.9974C149.686 39.4882 149.752 40.0118 149.701 40.5308C149.735 41.0495 149.662 41.5697 149.487 42.0592C149.311 42.5487 149.038 42.9971 148.683 43.377V43.3539Z" fill="#3879B4"/>
<path d="M182.36 36.5351V34.0591H174.431V47.0486H182.36V44.5803H177.539V41.6337H181.797V39.2503H177.539V36.5351H182.36Z" fill="#3879B4"/>
<path d="M246.514 34.0591L243.976 39.5896L243.945 39.5125L241.423 34.0591H237.898L242.395 42.7676V47.0486H245.503L245.511 42.7522L250 34.0591H246.514Z" fill="#3879B4"/>
<path d="M137.498 34.0127H134.49V47.0485H137.498V34.0127Z" fill="#3879B4"/>
<path d="M122.011 36.5736V34.0127H131.776V36.5736H128.274V47.0485H125.52V36.5736H122.011Z" fill="#3879B4"/>
<path d="M198.506 36.5736V34.0127H208.271V36.5736H204.769V47.0485H202.015V36.5736H198.506Z" fill="#3879B4"/>
<path d="M65.1536 52.6021C64.6846 53.0687 64.3124 53.6234 64.0585 54.2343C63.8045 54.8452 63.6738 55.5002 63.6738 56.1618C63.6738 56.8234 63.8045 57.4785 64.0585 58.0894C64.3124 58.7003 64.6846 59.255 65.1536 59.7216C66.1033 60.6669 67.3888 61.1977 68.7288 61.1977C70.0688 61.1977 71.3543 60.6669 72.304 59.7216C72.773 59.255 73.1452 58.7003 73.3991 58.0894C73.6531 57.4785 73.7838 56.8234 73.7838 56.1618C73.7838 55.5002 73.6531 54.8452 73.3991 54.2343C73.1452 53.6234 72.773 53.0687 72.304 52.6021C71.3543 51.6567 70.0688 51.126 68.7288 51.126C67.3888 51.126 66.1033 51.6567 65.1536 52.6021Z" fill="#3879B4"/>
<path d="M44.7511 18.2773C44.2821 18.744 43.9099 19.2987 43.6559 19.9096C43.402 20.5205 43.2712 21.1755 43.2712 21.8371C43.2712 22.4987 43.402 23.1538 43.6559 23.7647C43.9099 24.3756 44.2821 24.9303 44.7511 25.3969C45.7008 26.3422 46.9863 26.873 48.3263 26.873C49.6663 26.873 50.9518 26.3422 51.9015 25.3969C52.3705 24.9303 52.7426 24.3756 52.9966 23.7647C53.2506 23.1538 53.3813 22.4987 53.3813 21.8371C53.3813 21.1755 53.2506 20.5205 52.9966 19.9096C52.7426 19.2987 52.3705 18.744 51.9015 18.2773C50.9518 17.332 49.6663 16.8013 48.3263 16.8013C46.9863 16.8013 45.7008 17.332 44.7511 18.2773Z" fill="#3879B4"/>
<path d="M44.7513 40.6494C44.2823 41.116 43.9101 41.6707 43.6562 42.2816C43.4022 42.8925 43.2715 43.5476 43.2715 44.2092C43.2715 44.8708 43.4022 45.5258 43.6562 46.1367C43.9101 46.7476 44.2823 47.3023 44.7513 47.769C45.701 48.7143 46.9865 49.245 48.3265 49.245C49.6665 49.245 50.952 48.7143 51.9017 47.769C52.3707 47.3023 52.7429 46.7476 52.9968 46.1367C53.2508 45.5258 53.3815 44.8708 53.3815 44.2092C53.3815 43.5476 53.2508 42.8925 52.9968 42.2816C52.7429 41.6707 52.3707 41.116 51.9017 40.6494C50.952 39.7041 49.6665 39.1733 48.3265 39.1733C46.9865 39.1733 45.701 39.7041 44.7513 40.6494Z" fill="#3879B4"/>
<path d="M24.4811 52.6025C23.7779 53.3089 23.2998 54.2078 23.107 55.1857C22.9142 56.1637 23.0154 57.1768 23.3979 58.0972C23.7804 59.0177 24.427 59.8042 25.2561 60.3575C26.0852 60.9108 27.0596 61.2061 28.0563 61.2061C29.0531 61.2061 30.0275 60.9108 30.8566 60.3575C31.6857 59.8042 32.3323 59.0177 32.7147 58.0972C33.0972 57.1768 33.1985 56.1637 33.0057 55.1857C32.8129 54.2078 32.3347 53.3089 31.6315 52.6025C31.1638 52.1298 30.6071 51.7545 29.9934 51.4984C29.3797 51.2422 28.7213 51.1104 28.0563 51.1104C27.3914 51.1104 26.733 51.2422 26.1193 51.4984C25.5056 51.7545 24.9488 52.1298 24.4811 52.6025Z" fill="#3879B4"/>
<path d="M64.5668 47.4806L54.2539 29.6162" stroke="#3879B4" stroke-width="3.69926" stroke-miterlimit="10" stroke-linecap="square"/>
<path d="M37.9727 57.4468H58.8145" stroke="#3879B4" stroke-width="3.69926" stroke-miterlimit="10" stroke-linecap="square"/>
<path d="M42.1379 29.6162L32.0255 47.1335" stroke="#3879B4" stroke-width="3.69926" stroke-miterlimit="10" stroke-linecap="square"/>
</svg>
