<svg width="1440" height="2164" viewBox="0 0 1440 2164" fill="none" xmlns="http://www.w3.org/2000/svg">
<circle opacity="0.4" cx="719.5" cy="1105.5" r="1057.5" stroke="url(#paint0_linear_253_4370)" stroke-width="2" stroke-linecap="round" stroke-dasharray="0.01 14.01"/>
<circle cx="259" cy="152" r="16" fill="#040F24"/>
<circle cx="259" cy="152" r="16" fill="url(#paint1_radial_253_4370)" fill-opacity="0.2"/>
<circle cx="259" cy="152" r="15.6923" stroke="white" stroke-opacity="0.04" stroke-width="0.615385"/>
<g opacity="0.4">
<path d="M254.385 152.462L257.154 155.231L263.615 148.769M259 161.231C264.098 161.231 268.231 157.098 268.231 152C268.231 146.902 264.098 142.769 259 142.769C253.902 142.769 249.769 146.902 249.769 152C249.769 157.098 253.902 161.231 259 161.231Z" stroke="url(#paint2_linear_253_4370)" stroke-width="1.5" stroke-linecap="round" stroke-linejoin="round"/>
</g>
<circle cx="1177" cy="152" r="16" fill="#040F24"/>
<circle cx="1177" cy="152" r="16" fill="url(#paint3_radial_253_4370)" fill-opacity="0.2"/>
<circle cx="1177" cy="152" r="15.6923" stroke="white" stroke-opacity="0.04" stroke-width="0.615385"/>
<g opacity="0.4">
<path d="M1177 155.556C1178.96 155.556 1180.56 153.964 1180.56 152C1180.56 150.036 1178.96 148.444 1177 148.444C1175.04 148.444 1173.44 150.036 1173.44 152C1173.44 153.964 1175.04 155.556 1177 155.556ZM1177 155.556V160M1169.47 147.817L1173.8 150.222M1184.56 147.802L1180.2 150.222M1185 147.869V156.131C1185 156.324 1184.9 156.503 1184.73 156.597L1177.26 160.745C1177.1 160.834 1176.9 160.834 1176.74 160.745L1169.27 156.597C1169.11 156.503 1169 156.324 1169 156.131L1169 147.869C1169 147.676 1169.11 147.497 1169.27 147.403L1176.74 143.255C1176.9 143.165 1177.1 143.165 1177.26 143.255L1184.73 147.403C1184.89 147.497 1185 147.676 1185 147.869Z" stroke="url(#paint4_linear_253_4370)" stroke-width="1.5" stroke-linecap="round" stroke-linejoin="round"/>
</g>
<circle cx="1308" cy="225" r="16" fill="#040F24"/>
<circle cx="1308" cy="225" r="16" fill="url(#paint5_radial_253_4370)" fill-opacity="0.2"/>
<circle cx="1308" cy="225" r="15.6923" stroke="white" stroke-opacity="0.04" stroke-width="0.615385"/>
<g opacity="0.4">
<path d="M1308 228.556C1309.96 228.556 1311.56 226.964 1311.56 225C1311.56 223.036 1309.96 221.444 1308 221.444C1306.04 221.444 1304.44 223.036 1304.44 225C1304.44 226.964 1306.04 228.556 1308 228.556ZM1308 228.556V233M1300.47 220.817L1304.8 223.222M1315.56 220.802L1311.2 223.222M1316 220.869V229.131C1316 229.324 1315.9 229.503 1315.73 229.597L1308.26 233.745C1308.1 233.834 1307.9 233.834 1307.74 233.745L1300.27 229.597C1300.11 229.503 1300 229.324 1300 229.131L1300 220.869C1300 220.676 1300.11 220.497 1300.27 220.403L1307.74 216.255C1307.9 216.165 1308.1 216.165 1308.26 216.255L1315.73 220.403C1315.89 220.497 1316 220.676 1316 220.869Z" stroke="url(#paint6_linear_253_4370)" stroke-width="1.5" stroke-linecap="round" stroke-linejoin="round"/>
</g>
<circle cx="130" cy="225" r="16" fill="#040F24"/>
<circle cx="130" cy="225" r="16" fill="url(#paint7_radial_253_4370)" fill-opacity="0.2"/>
<circle cx="130" cy="225" r="15.6923" stroke="white" stroke-opacity="0.04" stroke-width="0.615385"/>
<g opacity="0.4">
<path d="M125.385 225.462L128.154 228.231L134.615 221.769M130 234.231C135.098 234.231 139.231 230.098 139.231 225C139.231 219.902 135.098 215.769 130 215.769C124.902 215.769 120.769 219.902 120.769 225C120.769 230.098 124.902 234.231 130 234.231Z" stroke="url(#paint8_linear_253_4370)" stroke-width="1.5" stroke-linecap="round" stroke-linejoin="round"/>
</g>
<circle cx="1418" cy="310" r="16" fill="#040F24"/>
<circle cx="1418" cy="310" r="16" fill="url(#paint9_radial_253_4370)" fill-opacity="0.2"/>
<circle cx="1418" cy="310" r="15.6923" stroke="white" stroke-opacity="0.04" stroke-width="0.615385"/>
<g opacity="0.4">
<path d="M1418 313.556C1419.96 313.556 1421.56 311.964 1421.56 310C1421.56 308.036 1419.96 306.444 1418 306.444C1416.04 306.444 1414.44 308.036 1414.44 310C1414.44 311.964 1416.04 313.556 1418 313.556ZM1418 313.556V318M1410.47 305.817L1414.8 308.222M1425.56 305.802L1421.2 308.222M1426 305.869V314.131C1426 314.324 1425.9 314.503 1425.73 314.597L1418.26 318.745C1418.1 318.834 1417.9 318.834 1417.74 318.745L1410.27 314.597C1410.11 314.503 1410 314.324 1410 314.131L1410 305.869C1410 305.676 1410.11 305.497 1410.27 305.403L1417.74 301.255C1417.9 301.165 1418.1 301.165 1418.26 301.255L1425.73 305.403C1425.89 305.497 1426 305.676 1426 305.869Z" stroke="url(#paint10_linear_253_4370)" stroke-width="1.5" stroke-linecap="round" stroke-linejoin="round"/>
</g>
<circle cx="21" cy="310" r="16" fill="#040F24"/>
<circle cx="21" cy="310" r="16" fill="url(#paint11_radial_253_4370)" fill-opacity="0.2"/>
<circle cx="21" cy="310" r="15.6923" stroke="white" stroke-opacity="0.04" stroke-width="0.615385"/>
<g opacity="0.4">
<path d="M16.3847 310.462L19.1539 313.231L25.6154 306.769M21.0001 319.231C26.098 319.231 30.2308 315.098 30.2308 310C30.2308 304.902 26.098 300.769 21.0001 300.769C15.902 300.769 11.7693 304.902 11.7693 310C11.7693 315.098 15.902 319.231 21.0001 319.231Z" stroke="url(#paint12_linear_253_4370)" stroke-width="1.5" stroke-linecap="round" stroke-linejoin="round"/>
</g>
<circle opacity="0.3" cx="719.5" cy="1125.5" r="914.5" stroke="url(#paint13_linear_253_4370)" stroke-width="2" stroke-linecap="round" stroke-dasharray="0.01 14.01"/>
<circle opacity="0.12" cx="719.5" cy="1125.5" r="784.5" stroke="url(#paint14_linear_253_4370)" stroke-width="2" stroke-linecap="round" stroke-dasharray="0.01 14.01"/>
<defs>
<linearGradient id="paint0_linear_253_4370" x1="798.22" y1="48" x2="798.22" y2="365" gradientUnits="userSpaceOnUse">
<stop stop-color="#FFFFFE"/>
<stop offset="0.0001" stop-color="#FFFFFE" stop-opacity="0.85"/>
<stop offset="0.953125" stop-color="#FFFFFE" stop-opacity="0.16"/>
</linearGradient>
<radialGradient id="paint1_radial_253_4370" cx="0" cy="0" r="1" gradientUnits="userSpaceOnUse" gradientTransform="translate(259 120) rotate(90) scale(48)">
<stop offset="0.612862" stop-color="#04060F" stop-opacity="0"/>
<stop offset="1" stop-color="#3F52C3"/>
</radialGradient>
<linearGradient id="paint2_linear_253_4370" x1="259" y1="142.769" x2="259" y2="161.231" gradientUnits="userSpaceOnUse">
<stop stop-color="white"/>
<stop offset="1" stop-color="#BFCBFF" stop-opacity="0.32"/>
</linearGradient>
<radialGradient id="paint3_radial_253_4370" cx="0" cy="0" r="1" gradientUnits="userSpaceOnUse" gradientTransform="translate(1177 120) rotate(90) scale(48)">
<stop offset="0.612862" stop-color="#04060F" stop-opacity="0"/>
<stop offset="1" stop-color="#3F52C3"/>
</radialGradient>
<linearGradient id="paint4_linear_253_4370" x1="1177" y1="143.188" x2="1177" y2="160.812" gradientUnits="userSpaceOnUse">
<stop stop-color="white"/>
<stop offset="1" stop-color="#BFCBFF" stop-opacity="0.32"/>
</linearGradient>
<radialGradient id="paint5_radial_253_4370" cx="0" cy="0" r="1" gradientUnits="userSpaceOnUse" gradientTransform="translate(1308 193) rotate(90) scale(48)">
<stop offset="0.612862" stop-color="#04060F" stop-opacity="0"/>
<stop offset="1" stop-color="#3F52C3"/>
</radialGradient>
<linearGradient id="paint6_linear_253_4370" x1="1308" y1="216.188" x2="1308" y2="233.812" gradientUnits="userSpaceOnUse">
<stop stop-color="white"/>
<stop offset="1" stop-color="#BFCBFF" stop-opacity="0.32"/>
</linearGradient>
<radialGradient id="paint7_radial_253_4370" cx="0" cy="0" r="1" gradientUnits="userSpaceOnUse" gradientTransform="translate(130 193) rotate(90) scale(48)">
<stop offset="0.612862" stop-color="#04060F" stop-opacity="0"/>
<stop offset="1" stop-color="#3F52C3"/>
</radialGradient>
<linearGradient id="paint8_linear_253_4370" x1="130" y1="215.769" x2="130" y2="234.231" gradientUnits="userSpaceOnUse">
<stop stop-color="white"/>
<stop offset="1" stop-color="#BFCBFF" stop-opacity="0.32"/>
</linearGradient>
<radialGradient id="paint9_radial_253_4370" cx="0" cy="0" r="1" gradientUnits="userSpaceOnUse" gradientTransform="translate(1418 278) rotate(90) scale(48)">
<stop offset="0.612862" stop-color="#04060F" stop-opacity="0"/>
<stop offset="1" stop-color="#3F52C3"/>
</radialGradient>
<linearGradient id="paint10_linear_253_4370" x1="1418" y1="301.188" x2="1418" y2="318.812" gradientUnits="userSpaceOnUse">
<stop stop-color="white"/>
<stop offset="1" stop-color="#BFCBFF" stop-opacity="0.32"/>
</linearGradient>
<radialGradient id="paint11_radial_253_4370" cx="0" cy="0" r="1" gradientUnits="userSpaceOnUse" gradientTransform="translate(21 278) rotate(90) scale(48)">
<stop offset="0.612862" stop-color="#04060F" stop-opacity="0"/>
<stop offset="1" stop-color="#3F52C3"/>
</radialGradient>
<linearGradient id="paint12_linear_253_4370" x1="21.0001" y1="300.769" x2="21.0001" y2="319.231" gradientUnits="userSpaceOnUse">
<stop stop-color="white"/>
<stop offset="1" stop-color="#BFCBFF" stop-opacity="0.32"/>
</linearGradient>
<linearGradient id="paint13_linear_253_4370" x1="787.575" y1="211" x2="787.575" y2="485.134" gradientUnits="userSpaceOnUse">
<stop stop-color="#FFFFFE"/>
<stop offset="0.0001" stop-color="#FFFFFE" stop-opacity="0.85"/>
<stop offset="0.953125" stop-color="#FFFFFE" stop-opacity="0.16"/>
</linearGradient>
<linearGradient id="paint14_linear_253_4370" x1="777.898" y1="341" x2="777.898" y2="576.165" gradientUnits="userSpaceOnUse">
<stop stop-color="#FFFFFE"/>
<stop offset="0.0001" stop-color="#FFFFFE" stop-opacity="0.85"/>
<stop offset="0.953125" stop-color="#FFFFFE" stop-opacity="0.16"/>
</linearGradient>
</defs>
</svg>
