<svg width="1024" height="2117" viewBox="0 0 1024 2117" fill="none" xmlns="http://www.w3.org/2000/svg">
<circle opacity="0.4" cx="511.5" cy="1058.5" r="1057.5" stroke="url(#paint0_linear_2957_2187)" stroke-width="2" stroke-linecap="round" stroke-dasharray="0.01 14.01"/>
<circle cx="51" cy="105" r="16" fill="#040F24"/>
<circle cx="51" cy="105" r="16" fill="url(#paint1_radial_2957_2187)" fill-opacity="0.2"/>
<circle cx="51" cy="105" r="15.6923" stroke="white" stroke-opacity="0.04" stroke-width="0.615385"/>
<g opacity="0.4">
<path d="M46.3847 105.462L49.1539 108.231L55.6154 101.769M51.0001 114.231C56.098 114.231 60.2308 110.098 60.2308 105C60.2308 99.902 56.098 95.7692 51.0001 95.7692C45.902 95.7692 41.7693 99.902 41.7693 105C41.7693 110.098 45.902 114.231 51.0001 114.231Z" stroke="url(#paint2_linear_2957_2187)" stroke-width="1.5" stroke-linecap="round" stroke-linejoin="round"/>
</g>
<circle cx="969" cy="105" r="16" fill="#040F24"/>
<circle cx="969" cy="105" r="16" fill="url(#paint3_radial_2957_2187)" fill-opacity="0.2"/>
<circle cx="969" cy="105" r="15.6923" stroke="white" stroke-opacity="0.04" stroke-width="0.615385"/>
<g opacity="0.4">
<path d="M969 108.556C970.964 108.556 972.556 106.964 972.556 105C972.556 103.036 970.964 101.444 969 101.444C967.036 101.444 965.444 103.036 965.444 105C965.444 106.964 967.036 108.556 969 108.556ZM969 108.556V113M961.47 100.817L965.8 103.222M976.556 100.803L972.2 103.222M977 100.869V109.131C977 109.324 976.895 109.503 976.726 109.597L969.259 113.745C969.098 113.834 968.902 113.834 968.741 113.745L961.274 109.597C961.105 109.503 961 109.324 961 109.131L961 100.869C961 100.676 961.105 100.497 961.274 100.403L968.741 96.255C968.902 96.1656 969.098 96.1656 969.259 96.255L976.726 100.403C976.895 100.497 977 100.676 977 100.869Z" stroke="url(#paint4_linear_2957_2187)" stroke-width="1.5" stroke-linecap="round" stroke-linejoin="round"/>
</g>
<circle opacity="0.3" cx="511.5" cy="1078.5" r="914.5" stroke="url(#paint5_linear_2957_2187)" stroke-width="2" stroke-linecap="round" stroke-dasharray="0.01 14.01"/>
<circle opacity="0.12" cx="511.5" cy="1078.5" r="784.5" stroke="url(#paint6_linear_2957_2187)" stroke-width="2" stroke-linecap="round" stroke-dasharray="0.01 14.01"/>
<defs>
<linearGradient id="paint0_linear_2957_2187" x1="590.22" y1="1" x2="590.22" y2="318" gradientUnits="userSpaceOnUse">
<stop stop-color="#FFFFFE"/>
<stop offset="0.0001" stop-color="#FFFFFE" stop-opacity="0.85"/>
<stop offset="0.953125" stop-color="#FFFFFE" stop-opacity="0.16"/>
</linearGradient>
<radialGradient id="paint1_radial_2957_2187" cx="0" cy="0" r="1" gradientUnits="userSpaceOnUse" gradientTransform="translate(51 73) rotate(90) scale(48)">
<stop offset="0.612862" stop-color="#04060F" stop-opacity="0"/>
<stop offset="1" stop-color="#3F52C3"/>
</radialGradient>
<linearGradient id="paint2_linear_2957_2187" x1="51.0001" y1="95.7692" x2="51.0001" y2="114.231" gradientUnits="userSpaceOnUse">
<stop stop-color="white"/>
<stop offset="1" stop-color="#BFCBFF" stop-opacity="0.32"/>
</linearGradient>
<radialGradient id="paint3_radial_2957_2187" cx="0" cy="0" r="1" gradientUnits="userSpaceOnUse" gradientTransform="translate(969 73) rotate(90) scale(48)">
<stop offset="0.612862" stop-color="#04060F" stop-opacity="0"/>
<stop offset="1" stop-color="#3F52C3"/>
</radialGradient>
<linearGradient id="paint4_linear_2957_2187" x1="969" y1="96.1879" x2="969" y2="113.812" gradientUnits="userSpaceOnUse">
<stop stop-color="white"/>
<stop offset="1" stop-color="#BFCBFF" stop-opacity="0.32"/>
</linearGradient>
<linearGradient id="paint5_linear_2957_2187" x1="579.575" y1="164" x2="579.575" y2="438.134" gradientUnits="userSpaceOnUse">
<stop stop-color="#FFFFFE"/>
<stop offset="0.0001" stop-color="#FFFFFE" stop-opacity="0.85"/>
<stop offset="0.953125" stop-color="#FFFFFE" stop-opacity="0.16"/>
</linearGradient>
<linearGradient id="paint6_linear_2957_2187" x1="569.898" y1="294" x2="569.898" y2="529.165" gradientUnits="userSpaceOnUse">
<stop stop-color="#FFFFFE"/>
<stop offset="0.0001" stop-color="#FFFFFE" stop-opacity="0.85"/>
<stop offset="0.953125" stop-color="#FFFFFE" stop-opacity="0.16"/>
</linearGradient>
</defs>
</svg>
