<svg width="85" height="84" viewBox="0 0 85 84" fill="none" xmlns="http://www.w3.org/2000/svg">
<circle cx="42.5" cy="42" r="42" fill="#040F24"/>
<circle cx="42.5" cy="42" r="42" fill="url(#paint0_radial_253_4402)"/>
<circle cx="42.5" cy="42" r="41.5" stroke="white" stroke-opacity="0.08"/>
<g clip-path="url(#clip0_253_4402)">
<path d="M43 48.561C46.9273 48.561 50.1111 45.3996 50.1111 41.5C50.1111 37.6003 46.9273 34.439 43 34.439C39.0727 34.439 35.8889 37.6003 35.8889 41.5C35.8889 45.3996 39.0727 48.561 43 48.561ZM43 48.561V57.3872M27.9395 33.1921L36.6001 37.9697M58.1111 33.1642L49.4 37.9697M59 33.297V49.7031C59 50.0878 58.79 50.442 58.4514 50.629L43.5181 58.8667C43.1959 59.0444 42.8041 59.0444 42.482 58.8667L27.5487 50.629C27.2101 50.442 27 50.0878 27 49.7031L27 33.297C27 32.9123 27.21 32.5579 27.5487 32.3711L42.482 24.1333C42.8041 23.9556 43.1959 23.9556 43.5181 24.1333L58.4514 32.3711C58.7899 32.5579 59 32.9123 59 33.297Z" stroke="url(#paint1_linear_253_4402)" stroke-width="1.5" stroke-linecap="round" stroke-linejoin="round"/>
</g>
<defs>
<radialGradient id="paint0_radial_253_4402" cx="0" cy="0" r="1" gradientUnits="userSpaceOnUse" gradientTransform="translate(42.5 -42) rotate(90) scale(126)">
<stop offset="0.612862" stop-color="#245337" stop-opacity="0"/>
<stop offset="1" stop-color="#3F7BC3"/>
</radialGradient>
<linearGradient id="paint1_linear_253_4402" x1="27.0086" y1="41.5" x2="59.0388" y2="41.5" gradientUnits="userSpaceOnUse">
<stop stop-color="#61BFF9"/>
<stop offset="1" stop-color="#61F9F9"/>
</linearGradient>
<clipPath id="clip0_253_4402">
<rect width="36" height="36" fill="white" transform="translate(25 24)"/>
</clipPath>
</defs>
</svg>
