<svg width="36" height="36" viewBox="0 0 36 36" fill="none" xmlns="http://www.w3.org/2000/svg">
<rect x="0.5" y="0.5" width="35" height="35" rx="17.5" stroke="white" stroke-opacity="0.24"/>
<path d="M26.1818 18H27M18 9.81818V9M18 27V26.1818M24.5455 24.5455L23.7273 23.7273M24.5455 11.4545L23.7273 12.2727M11.4545 24.5455L12.2727 23.7273M11.4545 11.4545L12.2727 12.2727M9 18H9.81818M18 22.9091C20.7112 22.9091 22.9091 20.7112 22.9091 18C22.9091 15.2888 20.7112 13.0909 18 13.0909C15.2888 13.0909 13.0909 15.2888 13.0909 18C13.0909 20.7112 15.2888 22.9091 18 22.9091Z" stroke="white" stroke-width="1.5" stroke-linecap="round" stroke-linejoin="round"/>
</svg>
