<svg width="315" height="49" viewBox="0 0 315 49" fill="none" xmlns="http://www.w3.org/2000/svg">
<g opacity="0.5">
<rect x="0.908203" y="-0.00292969" width="313.684" height="48.23" rx="24.115" fill="white" fill-opacity="0.12"/>
<rect x="1.4082" y="0.49707" width="312.684" height="47.23" rx="23.615" stroke="white" stroke-opacity="0.12"/>
<path opacity="0.7" d="M25.8683 29.3071C24.9323 29.3071 24.1241 29.1034 23.4438 28.6961C22.7678 28.2887 22.2456 27.7189 21.8773 26.9866C21.5133 26.2542 21.3313 25.4027 21.3313 24.4321C21.3313 23.4614 21.5133 22.6099 21.8773 21.8776C22.2456 21.1452 22.7678 20.5754 23.4438 20.1681C24.1241 19.7607 24.9323 19.5571 25.8683 19.5571C26.8043 19.5571 27.6103 19.7607 28.2863 20.1681C28.9666 20.5754 29.4888 21.1452 29.8528 21.8776C30.2211 22.6099 30.4053 23.4614 30.4053 24.4321C30.4053 25.4027 30.2211 26.2542 29.8528 26.9866C29.4888 27.7189 28.9666 28.2887 28.2863 28.6961C27.6103 29.1034 26.8043 29.3071 25.8683 29.3071ZM25.8683 27.6431C26.4619 27.6517 26.9559 27.5239 27.3503 27.2596C27.7446 26.9952 28.0393 26.6204 28.2343 26.1351C28.4336 25.6497 28.5333 25.0821 28.5333 24.4321C28.5333 23.7821 28.4336 23.2187 28.2343 22.7421C28.0393 22.2654 27.7446 21.8949 27.3503 21.6306C26.9559 21.3662 26.4619 21.2297 25.8683 21.2211C25.2746 21.2124 24.7806 21.3402 24.3863 21.6046C23.9919 21.8689 23.6951 22.2437 23.4958 22.7291C23.3008 23.2144 23.2033 23.7821 23.2033 24.4321C23.2033 25.0821 23.3008 25.6454 23.4958 26.1221C23.6951 26.5987 23.9919 26.9692 24.3863 27.2336C24.7806 27.4979 25.2746 27.6344 25.8683 27.6431ZM34.1399 29.1121V21.4031H31.1889V19.7521H38.8589V21.4031H35.9079V29.1121H34.1399ZM47.1695 29.3071C46.2335 29.3071 45.4253 29.1034 44.745 28.6961C44.069 28.2887 43.5468 27.7189 43.1785 26.9866C42.8145 26.2542 42.6325 25.4027 42.6325 24.4321C42.6325 23.4614 42.8145 22.6099 43.1785 21.8776C43.5468 21.1452 44.069 20.5754 44.745 20.1681C45.4253 19.7607 46.2335 19.5571 47.1695 19.5571C48.2441 19.5571 49.1455 19.8236 49.8735 20.3566C50.6058 20.8896 51.1215 21.6111 51.4205 22.5211L49.6395 23.0151C49.4661 22.4474 49.1736 22.0076 48.762 21.6956C48.3503 21.3792 47.8195 21.2211 47.1695 21.2211C46.5758 21.2211 46.0796 21.3532 45.681 21.6176C45.2866 21.8819 44.9898 22.2546 44.7905 22.7356C44.5911 23.2166 44.4915 23.7821 44.4915 24.4321C44.4915 25.0821 44.5911 25.6476 44.7905 26.1286C44.9898 26.6096 45.2866 26.9822 45.681 27.2466C46.0796 27.5109 46.5758 27.6431 47.1695 27.6431C47.8195 27.6431 48.3503 27.4849 48.762 27.1686C49.1736 26.8522 49.4661 26.4124 49.6395 25.8491L51.4205 26.3431C51.1215 27.2531 50.6058 27.9746 49.8735 28.5076C49.1455 29.0406 48.2441 29.3071 47.1695 29.3071ZM57.3887 29.3071C56.4527 29.3071 55.6445 29.1034 54.9642 28.6961C54.2882 28.2887 53.766 27.7189 53.3977 26.9866C53.0337 26.2542 52.8517 25.4027 52.8517 24.4321C52.8517 23.4614 53.0337 22.6099 53.3977 21.8776C53.766 21.1452 54.2882 20.5754 54.9642 20.1681C55.6445 19.7607 56.4527 19.5571 57.3887 19.5571C58.3247 19.5571 59.1307 19.7607 59.8067 20.1681C60.487 20.5754 61.0092 21.1452 61.3732 21.8776C61.7415 22.6099 61.9257 23.4614 61.9257 24.4321C61.9257 25.4027 61.7415 26.2542 61.3732 26.9866C61.0092 27.7189 60.487 28.2887 59.8067 28.6961C59.1307 29.1034 58.3247 29.3071 57.3887 29.3071ZM57.3887 27.6431C57.9824 27.6517 58.4764 27.5239 58.8707 27.2596C59.265 26.9952 59.5597 26.6204 59.7547 26.1351C59.954 25.6497 60.0537 25.0821 60.0537 24.4321C60.0537 23.7821 59.954 23.2187 59.7547 22.7421C59.5597 22.2654 59.265 21.8949 58.8707 21.6306C58.4764 21.3662 57.9824 21.2297 57.3887 21.2211C56.795 21.2124 56.301 21.3402 55.9067 21.6046C55.5124 21.8689 55.2155 22.2437 55.0162 22.7291C54.8212 23.2144 54.7237 23.7821 54.7237 24.4321C54.7237 25.0821 54.8212 25.6454 55.0162 26.1221C55.2155 26.5987 55.5124 26.9692 55.9067 27.2336C56.301 27.4979 56.795 27.6344 57.3887 27.6431ZM62.9694 30.6721V27.4611C63.251 27.4611 63.4894 27.3917 63.6844 27.2531C63.8837 27.1101 64.0462 26.9107 64.1719 26.6551C64.2975 26.3951 64.3972 26.0917 64.4709 25.7451C64.5445 25.3984 64.5987 25.0214 64.6334 24.6141C64.6767 24.0941 64.7157 23.5827 64.7504 23.0801C64.785 22.5731 64.8197 22.0487 64.8544 21.5071C64.889 20.9611 64.928 20.3717 64.9714 19.7391L71.1854 19.7521V27.4611H71.9004V30.6721H70.1324V29.1121H64.7374V30.6721H62.9694ZM65.6084 27.4611H69.4174V21.4031L66.5834 21.3901C66.553 21.8191 66.527 22.2134 66.5054 22.5731C66.488 22.9327 66.4664 23.2967 66.4404 23.6651C66.4144 24.0334 66.3797 24.4451 66.3364 24.9001C66.293 25.3551 66.2497 25.7299 66.2064 26.0246C66.163 26.3149 66.0959 26.5684 66.0049 26.7851C65.9182 27.0017 65.786 27.2271 65.6084 27.4611ZM73.1982 29.1121L76.0582 19.7521H78.6972L81.5572 29.1121H79.7372L77.1892 20.8571H77.5272L75.0182 29.1121H73.1982ZM74.9142 27.1621V25.5111H79.8542V27.1621H74.9142ZM84.6388 29.1121V21.4031H81.6878V19.7521H89.3578V21.4031H86.4068V29.1121H84.6388ZM90.9224 29.1121V19.7521H97.0324V21.4031H92.6904V23.4051H96.2524V25.0561H92.6904V27.4611H97.0324V29.1121H90.9224ZM98.4604 29.1121V27.6431C98.6597 27.6561 98.8287 27.6387 98.9674 27.5911C99.106 27.5434 99.223 27.4567 99.3184 27.3311C99.418 27.2011 99.5047 27.0234 99.5784 26.7981C99.652 26.5684 99.7214 26.2824 99.7864 25.9401C99.8904 25.3984 99.977 24.8286 100.046 24.2306C100.12 23.6282 100.181 23.0389 100.228 22.4626C100.276 21.8862 100.313 21.3619 100.339 20.8896C100.365 20.4129 100.384 20.0337 100.397 19.7521H106.78V29.1121H105.012V21.4031H102.022C102.005 21.6457 101.981 21.9621 101.951 22.3521C101.925 22.7421 101.888 23.1732 101.84 23.6456C101.793 24.1179 101.734 24.6076 101.665 25.1146C101.596 25.6216 101.511 26.1134 101.411 26.5901C101.32 27.0537 101.21 27.4654 101.08 27.8251C100.95 28.1804 100.777 28.4729 100.56 28.7026C100.348 28.9279 100.072 29.0774 99.7344 29.1511C99.3964 29.2247 98.9717 29.2117 98.4604 29.1121ZM109.126 29.1121V19.7521H115.236V21.4031H110.894V23.4051H114.456V25.0561H110.894V27.4611H115.236V29.1121H109.126ZM117.314 29.1121V19.7521H119.108V25.9921L123.177 19.7521H124.971V29.1121H123.177V22.8721L119.108 29.1121H117.314ZM121.11 18.9721C120.729 18.9721 120.382 18.8789 120.07 18.6926C119.758 18.5062 119.509 18.2571 119.323 17.9451C119.137 17.6331 119.043 17.2864 119.043 16.9051H120.408C120.408 17.1001 120.476 17.2669 120.61 17.4056C120.749 17.5399 120.915 17.6071 121.11 17.6071C121.305 17.6071 121.47 17.5399 121.604 17.4056C121.743 17.2669 121.812 17.1001 121.812 16.9051H123.177C123.177 17.2864 123.084 17.6331 122.898 17.9451C122.712 18.2571 122.462 18.5062 122.15 18.6926C121.838 18.8789 121.492 18.9721 121.11 18.9721Z" fill="#C8D4EE"/>
<g clip-path="url(#clip0_253_73803)">
<path d="M139.908 12.9971V35.2271H194.648V12.9971H139.908ZM192.538 33.1578H142V15.0663H192.538V33.1578Z" fill="#C8D4EE"/>
<path d="M152.385 27.3335C154.176 26.5992 155.027 24.5669 154.285 22.7943C153.543 21.0216 151.489 20.1799 149.697 20.9141C147.906 21.6484 147.055 23.6807 147.797 25.4533C148.539 27.226 150.593 28.0677 152.385 27.3335Z" fill="#C8D4EE"/>
<path d="M163.148 27.3303C164.94 26.596 165.79 24.5638 165.048 22.7911C164.306 21.0185 162.252 20.1767 160.461 20.911C158.669 21.6452 157.818 23.6775 158.56 25.4501C159.302 27.2228 161.356 28.0646 163.148 27.3303Z" fill="#C8D4EE"/>
<path d="M173.911 27.3271C175.703 26.5928 176.554 24.5606 175.812 22.7879C175.07 21.0153 173.016 20.1735 171.224 20.9078C169.432 21.6421 168.582 23.6743 169.324 25.447C170.066 27.2196 172.12 28.0614 173.911 27.3271Z" fill="#C8D4EE"/>
<path d="M184.657 27.3313C186.449 26.597 187.299 24.5647 186.557 22.7921C185.815 21.0194 183.761 20.1777 181.97 20.9119C180.178 21.6462 179.327 23.6785 180.069 25.4511C180.811 27.2238 182.865 28.0655 184.657 27.3313Z" fill="#C8D4EE"/>
<path d="M201.824 19.6033H204.318L206.429 25.1845H206.524L208.635 19.6033H211.129V28.6016H209.172V23.0773H209.096L207.119 28.5636H205.872L203.877 23.0583H203.8V28.6206H201.843V19.6033H201.824Z" fill="#C8D4EE"/>
<path d="M218.631 19.6033H220.723V25.5452C220.723 26.2286 220.569 26.7981 220.262 27.2727C219.955 27.7473 219.533 28.108 218.977 28.3358C218.42 28.5826 217.787 28.6965 217.058 28.6965C216.329 28.6965 215.677 28.5826 215.139 28.3358C214.583 28.089 214.161 27.7283 213.854 27.2727C213.547 26.7981 213.393 26.2286 213.393 25.5452V19.6033H215.485V25.4693C215.485 25.8679 215.638 26.2096 215.926 26.4374C216.214 26.6842 216.598 26.7981 217.058 26.7981C217.538 26.7981 217.921 26.6842 218.209 26.4374C218.497 26.1906 218.65 25.8679 218.65 25.4693V19.6033H218.631Z" fill="#C8D4EE"/>
<path d="M222.814 28.6206V19.6033H224.906V26.8551H228.513V28.6206H222.814Z" fill="#C8D4EE"/>
<path d="M228.781 21.3878V19.6223H235.593V21.3878H233.156V28.6206H231.237V21.3878H228.781Z" fill="#C8D4EE"/>
<path d="M239.584 19.6033V28.6016H237.492V19.6033H239.584Z" fill="#C8D4EE"/>
<path d="M242.154 28.6206V19.6033H247.718V21.3688H244.111V23.2102H247.354V24.9757H244.111V28.6016H242.154V28.6206Z" fill="#C8D4EE"/>
<path d="M250.462 28.6206H248.102L251.153 19.6223H254.069L257.139 28.6206H254.779L254.184 26.7222H251.057L250.462 28.6206ZM251.575 25.0707H253.666L252.65 21.8814H252.573L251.575 25.0707Z" fill="#C8D4EE"/>
<path d="M264.603 22.7925C264.449 22.3559 264.2 22.0521 263.874 21.7864C263.548 21.5206 263.126 21.3877 262.608 21.3877C261.917 21.3877 261.36 21.6345 260.977 22.1091C260.574 22.5837 260.382 23.2481 260.382 24.1024C260.382 24.9946 260.574 25.678 260.977 26.1336C261.38 26.5892 261.917 26.8171 262.588 26.8171C263.087 26.8171 263.509 26.7032 263.835 26.4564C264.162 26.2096 264.488 25.8869 264.622 25.5262L266.522 26.3994C266.522 26.3994 266.445 26.5703 266.407 26.6462C266.195 27.0259 265.927 27.3866 265.562 27.7093C265.198 28.032 264.776 28.2788 264.277 28.4686C263.778 28.6585 263.183 28.7534 262.531 28.7534C261.667 28.7534 260.9 28.5825 260.209 28.2219C259.518 27.8612 258.981 27.3486 258.597 26.6462C258.195 25.9628 258.003 25.1275 258.003 24.1403C258.003 23.1532 258.195 22.2989 258.597 21.6155C259 20.9321 259.538 20.4005 260.228 20.0398C260.919 19.6792 261.687 19.5083 262.531 19.5083C263.298 19.5083 263.989 19.6412 264.603 19.907C265.217 20.1727 265.716 20.5524 266.08 21.065C266.272 21.3118 266.541 21.9003 266.541 21.9003L264.603 22.7925Z" fill="#C8D4EE"/>
<path d="M267.903 21.3878V19.6223H274.714V21.3878H272.278V28.6206H270.359V21.3878H267.903Z" fill="#C8D4EE"/>
<path d="M285.459 24.1214C285.459 25.1085 285.248 25.9438 284.826 26.6462C284.404 27.3296 283.828 27.8612 283.118 28.2219C282.408 28.5825 281.602 28.7534 280.701 28.7534C279.799 28.7534 278.993 28.5825 278.283 28.2219C277.573 27.8612 276.998 27.3486 276.576 26.6462C276.153 25.9628 275.942 25.1275 275.942 24.1403C275.942 23.1532 276.153 22.2989 276.576 21.6155C276.998 20.9321 277.554 20.4005 278.283 20.0398C278.993 19.6792 279.818 19.5083 280.701 19.5083C281.602 19.5083 282.408 19.6792 283.118 20.0398C283.828 20.4005 284.404 20.9131 284.826 21.6155C285.248 22.2799 285.459 23.1152 285.459 24.1214ZM283.31 24.1214C283.31 23.2481 283.08 22.5647 282.619 22.1091C282.159 21.6535 281.507 21.4067 280.701 21.4067C279.876 21.4067 279.243 21.6345 278.782 22.1091C278.322 22.5647 278.091 23.2481 278.091 24.1214C278.091 24.9946 278.322 25.678 278.782 26.1336C279.243 26.5892 279.895 26.836 280.701 26.836C281.526 26.836 282.159 26.6082 282.619 26.1336C283.08 25.659 283.31 24.9946 283.31 24.1214Z" fill="#C8D4EE"/>
<path d="M287.473 28.6206V19.6033H291.1C291.752 19.6033 292.328 19.7172 292.807 19.964C293.287 20.2108 293.652 20.5525 293.92 21.0081C294.189 21.4637 294.304 21.9952 294.304 22.6027C294.304 23.2292 294.17 23.7607 293.901 24.1973C293.632 24.634 293.268 24.9567 292.769 25.1845L294.592 28.6206H292.27L290.678 25.5262H289.584V28.6016H287.473V28.6206ZM289.584 23.8177H290.62C291.1 23.8177 291.464 23.7228 291.714 23.5329C291.963 23.3431 292.078 23.0393 292.078 22.6217C292.078 21.7864 291.599 21.3688 290.62 21.3688H289.584V23.8177Z" fill="#C8D4EE"/>
</g>
</g>
<defs>
<clipPath id="clip0_253_73803">
<rect width="154.684" height="22.23" fill="white" transform="translate(139.908 12.9971)"/>
</clipPath>
</defs>
</svg>
