<svg width="688" height="49" viewBox="0 0 688 49" fill="none" xmlns="http://www.w3.org/2000/svg">
<g opacity="0.5">
<rect y="0.391113" width="688" height="48.23" rx="24.115" fill="white" fill-opacity="0.12"/>
<rect x="0.5" y="0.891113" width="687" height="47.23" rx="23.615" stroke="white" stroke-opacity="0.12"/>
<path opacity="0.7" d="M212.118 29.7011C211.182 29.7011 210.374 29.4974 209.694 29.0901C209.018 28.6828 208.496 28.1129 208.127 27.3806C207.763 26.6483 207.581 25.7968 207.581 24.8261C207.581 23.8554 207.763 23.0039 208.127 22.2716C208.496 21.5393 209.018 20.9694 209.694 20.5621C210.374 20.1548 211.182 19.9511 212.118 19.9511C213.054 19.9511 213.86 20.1548 214.536 20.5621C215.217 20.9694 215.739 21.5393 216.103 22.2716C216.471 23.0039 216.655 23.8554 216.655 24.8261C216.655 25.7968 216.471 26.6483 216.103 27.3806C215.739 28.1129 215.217 28.6828 214.536 29.0901C213.86 29.4974 213.054 29.7011 212.118 29.7011ZM212.118 28.0371C212.712 28.0458 213.206 27.9179 213.6 27.6536C213.995 27.3893 214.289 27.0144 214.484 26.5291C214.684 26.0438 214.783 25.4761 214.783 24.8261C214.783 24.1761 214.684 23.6128 214.484 23.1361C214.289 22.6594 213.995 22.2889 213.6 22.0246C213.206 21.7603 212.712 21.6238 212.118 21.6151C211.525 21.6064 211.031 21.7343 210.636 21.9986C210.242 22.2629 209.945 22.6378 209.746 23.1231C209.551 23.6084 209.453 24.1761 209.453 24.8261C209.453 25.4761 209.551 26.0394 209.746 26.5161C209.945 26.9928 210.242 27.3633 210.636 27.6276C211.031 27.8919 211.525 28.0284 212.118 28.0371ZM220.39 29.5061V21.7971H217.439V20.1461H225.109V21.7971H222.158V29.5061H220.39ZM233.419 29.7011C232.483 29.7011 231.675 29.4974 230.995 29.0901C230.319 28.6828 229.797 28.1129 229.428 27.3806C229.064 26.6483 228.882 25.7968 228.882 24.8261C228.882 23.8554 229.064 23.0039 229.428 22.2716C229.797 21.5393 230.319 20.9694 230.995 20.5621C231.675 20.1548 232.483 19.9511 233.419 19.9511C234.494 19.9511 235.395 20.2176 236.123 20.7506C236.856 21.2836 237.371 22.0051 237.67 22.9151L235.889 23.4091C235.716 22.8414 235.424 22.4016 235.012 22.0896C234.6 21.7733 234.069 21.6151 233.419 21.6151C232.826 21.6151 232.33 21.7473 231.931 22.0116C231.537 22.2759 231.24 22.6486 231.04 23.1296C230.841 23.6106 230.741 24.1761 230.741 24.8261C230.741 25.4761 230.841 26.0416 231.04 26.5226C231.24 27.0036 231.537 27.3763 231.931 27.6406C232.33 27.9049 232.826 28.0371 233.419 28.0371C234.069 28.0371 234.6 27.8789 235.012 27.5626C235.424 27.2463 235.716 26.8064 235.889 26.2431L237.67 26.7371C237.371 27.6471 236.856 28.3686 236.123 28.9016C235.395 29.4346 234.494 29.7011 233.419 29.7011ZM243.639 29.7011C242.703 29.7011 241.895 29.4974 241.214 29.0901C240.538 28.6828 240.016 28.1129 239.648 27.3806C239.284 26.6483 239.102 25.7968 239.102 24.8261C239.102 23.8554 239.284 23.0039 239.648 22.2716C240.016 21.5393 240.538 20.9694 241.214 20.5621C241.895 20.1548 242.703 19.9511 243.639 19.9511C244.575 19.9511 245.381 20.1548 246.057 20.5621C246.737 20.9694 247.259 21.5393 247.623 22.2716C247.992 23.0039 248.176 23.8554 248.176 24.8261C248.176 25.7968 247.992 26.6483 247.623 27.3806C247.259 28.1129 246.737 28.6828 246.057 29.0901C245.381 29.4974 244.575 29.7011 243.639 29.7011ZM243.639 28.0371C244.232 28.0458 244.726 27.9179 245.121 27.6536C245.515 27.3893 245.81 27.0144 246.005 26.5291C246.204 26.0438 246.304 25.4761 246.304 24.8261C246.304 24.1761 246.204 23.6128 246.005 23.1361C245.81 22.6594 245.515 22.2889 245.121 22.0246C244.726 21.7603 244.232 21.6238 243.639 21.6151C243.045 21.6064 242.551 21.7343 242.157 21.9986C241.762 22.2629 241.466 22.6378 241.266 23.1231C241.071 23.6084 240.974 24.1761 240.974 24.8261C240.974 25.4761 241.071 26.0394 241.266 26.5161C241.466 26.9928 241.762 27.3633 242.157 27.6276C242.551 27.8919 243.045 28.0284 243.639 28.0371ZM249.219 31.0661V27.8551C249.501 27.8551 249.739 27.7858 249.934 27.6471C250.134 27.5041 250.296 27.3048 250.422 27.0491C250.548 26.7891 250.647 26.4858 250.721 26.1391C250.795 25.7924 250.849 25.4154 250.883 25.0081C250.927 24.4881 250.966 23.9768 251 23.4741C251.035 22.9671 251.07 22.4428 251.104 21.9011C251.139 21.3551 251.178 20.7658 251.221 20.1331L257.435 20.1461V27.8551H258.15V31.0661H256.382V29.5061H250.987V31.0661H249.219ZM251.858 27.8551H255.667V21.7971L252.833 21.7841C252.803 22.2131 252.777 22.6074 252.755 22.9671C252.738 23.3268 252.716 23.6908 252.69 24.0591C252.664 24.4274 252.63 24.8391 252.586 25.2941C252.543 25.7491 252.5 26.1239 252.456 26.4186C252.413 26.7089 252.346 26.9624 252.255 27.1791C252.168 27.3958 252.036 27.6211 251.858 27.8551ZM259.448 29.5061L262.308 20.1461H264.947L267.807 29.5061H265.987L263.439 21.2511H263.777L261.268 29.5061H259.448ZM261.164 27.5561V25.9051H266.104V27.5561H261.164ZM270.889 29.5061V21.7971H267.938V20.1461H275.608V21.7971H272.657V29.5061H270.889ZM277.172 29.5061V20.1461H283.282V21.7971H278.94V23.7991H282.502V25.4501H278.94V27.8551H283.282V29.5061H277.172ZM284.71 29.5061V28.0371C284.91 28.0501 285.079 28.0328 285.217 27.9851C285.356 27.9374 285.473 27.8508 285.568 27.7251C285.668 27.5951 285.755 27.4174 285.828 27.1921C285.902 26.9624 285.971 26.6764 286.036 26.3341C286.14 25.7924 286.227 25.2226 286.296 24.6246C286.37 24.0223 286.431 23.4329 286.478 22.8566C286.526 22.2803 286.563 21.7559 286.589 21.2836C286.615 20.8069 286.634 20.4278 286.647 20.1461H293.03V29.5061H291.262V21.7971H288.272C288.255 22.0398 288.231 22.3561 288.201 22.7461C288.175 23.1361 288.138 23.5673 288.09 24.0396C288.043 24.5119 287.984 25.0016 287.915 25.5086C287.846 26.0156 287.761 26.5074 287.661 26.9841C287.57 27.4478 287.46 27.8594 287.33 28.2191C287.2 28.5744 287.027 28.8669 286.81 29.0966C286.598 29.3219 286.322 29.4714 285.984 29.5451C285.646 29.6188 285.222 29.6058 284.71 29.5061ZM295.376 29.5061V20.1461H301.486V21.7971H297.144V23.7991H300.706V25.4501H297.144V27.8551H301.486V29.5061H295.376ZM303.564 29.5061V20.1461H305.358V26.3861L309.427 20.1461H311.221V29.5061H309.427V23.2661L305.358 29.5061H303.564ZM307.36 19.3661C306.979 19.3661 306.632 19.2729 306.32 19.0866C306.008 18.9003 305.759 18.6511 305.573 18.3391C305.387 18.0271 305.293 17.6804 305.293 17.2991H306.658C306.658 17.4941 306.726 17.6609 306.86 17.7996C306.999 17.9339 307.165 18.0011 307.36 18.0011C307.555 18.0011 307.72 17.9339 307.854 17.7996C307.993 17.6609 308.062 17.4941 308.062 17.2991H309.427C309.427 17.6804 309.334 18.0271 309.148 18.3391C308.962 18.6511 308.712 18.9003 308.4 19.0866C308.088 19.2729 307.742 19.3661 307.36 19.3661Z" fill="#C8D4EE"/>
<g clip-path="url(#clip0_493_18669)">
<path d="M326.158 13.3911V35.6211H380.898V13.3911H326.158ZM378.788 33.5519H328.25V15.4603H378.788V33.5519Z" fill="#C8D4EE"/>
<path d="M338.635 27.7275C340.426 26.9932 341.277 24.961 340.535 23.1883C339.793 21.4157 337.739 20.5739 335.947 21.3082C334.156 22.0425 333.305 24.0747 334.047 25.8474C334.789 27.62 336.843 28.4618 338.635 27.7275Z" fill="#C8D4EE"/>
<path d="M349.398 27.7243C351.189 26.9901 352.04 24.9578 351.298 23.1852C350.556 21.4125 348.502 20.5707 346.71 21.305C344.919 22.0393 344.068 24.0715 344.81 25.8442C345.552 27.6168 347.606 28.4586 349.398 27.7243Z" fill="#C8D4EE"/>
<path d="M360.161 27.7211C361.953 26.9869 362.804 24.9546 362.062 23.182C361.32 21.4093 359.266 20.5676 357.474 21.3018C355.682 22.0361 354.832 24.0684 355.574 25.841C356.316 27.6136 358.37 28.4554 360.161 27.7211Z" fill="#C8D4EE"/>
<path d="M370.907 27.7253C372.699 26.991 373.549 24.9588 372.807 23.1861C372.065 21.4135 370.011 20.5717 368.22 21.306C366.428 22.0403 365.577 24.0725 366.319 25.8452C367.061 27.6178 369.115 28.4596 370.907 27.7253Z" fill="#C8D4EE"/>
<path d="M388.074 19.9973H390.568L392.679 25.5785H392.774L394.885 19.9973H397.379V28.9956H395.422V23.4713H395.346L393.369 28.9577H392.122L390.127 23.4524H390.05V29.0146H388.093V19.9973H388.074Z" fill="#C8D4EE"/>
<path d="M404.882 19.9973H406.973V25.9392C406.973 26.6227 406.819 27.1922 406.512 27.6668C406.205 28.1414 405.783 28.502 405.227 28.7299C404.67 28.9766 404.037 29.0905 403.308 29.0905C402.579 29.0905 401.927 28.9766 401.39 28.7299C400.833 28.4831 400.411 28.1224 400.104 27.6668C399.797 27.1922 399.644 26.6227 399.644 25.9392V19.9973H401.735V25.8633C401.735 26.262 401.888 26.6037 402.176 26.8315C402.464 27.0783 402.848 27.1922 403.308 27.1922C403.788 27.1922 404.172 27.0783 404.459 26.8315C404.747 26.5847 404.901 26.262 404.901 25.8633V19.9973H404.882Z" fill="#C8D4EE"/>
<path d="M409.064 29.0146V19.9973H411.155V27.2491H414.762V29.0146H409.064Z" fill="#C8D4EE"/>
<path d="M415.031 21.7818V20.0164H421.843V21.7818H419.406V29.0147H417.487V21.7818H415.031Z" fill="#C8D4EE"/>
<path d="M425.834 19.9973V28.9956H423.742V19.9973H425.834Z" fill="#C8D4EE"/>
<path d="M428.404 29.0146V19.9973H433.968V21.7628H430.361V23.6042H433.604V25.3697H430.361V28.9956H428.404V29.0146Z" fill="#C8D4EE"/>
<path d="M436.712 29.0147H434.352L437.403 20.0164H440.319L443.389 29.0147H441.029L440.434 27.1163H437.307L436.712 29.0147ZM437.825 25.4647H439.916L438.899 22.2754H438.823L437.825 25.4647Z" fill="#C8D4EE"/>
<path d="M450.853 23.1865C450.699 22.7499 450.45 22.4462 450.124 22.1804C449.797 21.9146 449.375 21.7817 448.857 21.7817C448.167 21.7817 447.61 22.0285 447.226 22.5031C446.823 22.9777 446.632 23.6421 446.632 24.4964C446.632 25.3887 446.823 26.0721 447.226 26.5277C447.629 26.9833 448.167 27.2111 448.838 27.2111C449.337 27.2111 449.759 27.0972 450.085 26.8504C450.411 26.6036 450.738 26.2809 450.872 25.9202L452.771 26.7935C452.771 26.7935 452.695 26.9643 452.656 27.0402C452.445 27.4199 452.177 27.7806 451.812 28.1033C451.448 28.4261 451.025 28.6728 450.527 28.8627C450.028 29.0525 449.433 29.1474 448.781 29.1474C447.917 29.1474 447.15 28.9766 446.459 28.6159C445.768 28.2552 445.231 27.7426 444.847 27.0402C444.444 26.3568 444.252 25.5215 444.252 24.5344C444.252 23.5472 444.444 22.693 444.847 22.0095C445.25 21.3261 445.787 20.7946 446.478 20.4339C447.169 20.0732 447.936 19.9023 448.781 19.9023C449.548 19.9023 450.239 20.0352 450.853 20.301C451.467 20.5668 451.966 20.9465 452.33 21.459C452.522 21.7058 452.791 22.2943 452.791 22.2943L450.853 23.1865Z" fill="#C8D4EE"/>
<path d="M454.153 21.7818V20.0164H460.964V21.7818H458.527V29.0147H456.609V21.7818H454.153Z" fill="#C8D4EE"/>
<path d="M471.709 24.5154C471.709 25.5026 471.498 26.3378 471.076 27.0402C470.654 27.7237 470.078 28.2552 469.368 28.6159C468.658 28.9766 467.852 29.1474 466.951 29.1474C466.049 29.1474 465.243 28.9766 464.533 28.6159C463.823 28.2552 463.248 27.7426 462.826 27.0402C462.403 26.3568 462.192 25.5215 462.192 24.5344C462.192 23.5472 462.403 22.693 462.826 22.0095C463.248 21.3261 463.804 20.7946 464.533 20.4339C465.243 20.0732 466.068 19.9023 466.951 19.9023C467.852 19.9023 468.658 20.0732 469.368 20.4339C470.078 20.7946 470.654 21.3071 471.076 22.0095C471.498 22.674 471.709 23.5093 471.709 24.5154ZM469.56 24.5154C469.56 23.6421 469.33 22.9587 468.869 22.5031C468.409 22.0475 467.757 21.8007 466.951 21.8007C466.126 21.8007 465.493 22.0285 465.032 22.5031C464.572 22.9587 464.341 23.6421 464.341 24.5154C464.341 25.3887 464.572 26.0721 465.032 26.5277C465.493 26.9833 466.145 27.2301 466.951 27.2301C467.776 27.2301 468.409 27.0023 468.869 26.5277C469.33 26.0531 469.56 25.3887 469.56 24.5154Z" fill="#C8D4EE"/>
<path d="M473.724 29.0146V19.9973H477.35C478.002 19.9973 478.578 20.1112 479.058 20.358C479.537 20.6048 479.902 20.9465 480.17 21.4021C480.439 21.8577 480.554 22.3893 480.554 22.9968C480.554 23.6232 480.42 24.1548 480.151 24.5914C479.883 25.028 479.518 25.3507 479.019 25.5785L480.842 29.0146H478.52L476.928 25.9203H475.834V28.9956H473.724V29.0146ZM475.834 24.2117H476.87C477.35 24.2117 477.714 24.1168 477.964 23.927C478.213 23.7371 478.328 23.4334 478.328 23.0157C478.328 22.1804 477.849 21.7628 476.87 21.7628H475.834V24.2117Z" fill="#C8D4EE"/>
</g>
</g>
<defs>
<clipPath id="clip0_493_18669">
<rect width="154.684" height="22.23" fill="white" transform="translate(326.158 13.3911)"/>
</clipPath>
</defs>
</svg>
