<svg width="32" height="33" viewBox="0 0 32 33" fill="none" xmlns="http://www.w3.org/2000/svg">
  <g clip-path="url(#clip0_253_16819)">
    <path d="M16 0.425781C7.168 0.425781 0 7.59378 0 16.4258C0 25.2578 7.168 32.4258 16 32.4258C24.832 32.4258 32 25.2578 32 16.4258C32 7.59378 24.832 0.425781 16 0.425781ZM23.424 11.3058C23.184 13.8338 22.144 19.9778 21.616 22.8098C21.392 24.0098 20.944 24.4098 20.528 24.4578C19.6 24.5378 18.896 23.8498 18 23.2578C16.592 22.3298 15.792 21.7538 14.432 20.8578C12.848 19.8178 13.872 19.2418 14.784 18.3138C15.024 18.0738 19.12 14.3458 19.2 14.0098C19.2111 13.9589 19.2096 13.9061 19.1957 13.8559C19.1818 13.8057 19.1558 13.7597 19.12 13.7218C19.024 13.6418 18.896 13.6738 18.784 13.6898C18.64 13.7218 16.4 15.2098 12.032 18.1538C11.392 18.5858 10.816 18.8098 10.304 18.7938C9.728 18.7778 8.64 18.4738 7.824 18.2018C6.816 17.8818 6.032 17.7058 6.096 17.1458C6.128 16.8578 6.528 16.5698 7.28 16.2658C11.952 14.2338 15.056 12.8898 16.608 12.2498C21.056 10.3938 21.968 10.0738 22.576 10.0738C22.704 10.0738 23.008 10.1058 23.2 10.2658C23.36 10.3938 23.408 10.5698 23.424 10.6978C23.408 10.7938 23.44 11.0818 23.424 11.3058Z" />
    <path d="M23.424 11.3058C23.184 13.8338 22.144 19.9778 21.616 22.8098C21.392 24.0098 20.944 24.4098 20.528 24.4578C19.6 24.5378 18.896 23.8498 18 23.2578C16.592 22.3298 15.792 21.7538 14.432 20.8578C12.848 19.8178 13.872 19.2418 14.784 18.3138C15.024 18.0738 19.12 14.3458 19.2 14.0098C19.2111 13.9589 19.2096 13.9061 19.1957 13.8559C19.1818 13.8057 19.1558 13.7597 19.12 13.7218C19.024 13.6418 18.896 13.6738 18.784 13.6898C18.64 13.7218 16.4 15.2098 12.032 18.1538C11.392 18.5858 10.816 18.8098 10.304 18.7938C9.728 18.7778 8.64 18.4738 7.824 18.2018C6.816 17.8818 6.032 17.7058 6.096 17.1458C6.128 16.8578 6.528 16.5698 7.28 16.2658C11.952 14.2338 15.056 12.8898 16.608 12.2498C21.056 10.3938 21.968 10.0738 22.576 10.0738C22.704 10.0738 23.008 10.1058 23.2 10.2658C23.36 10.3938 23.408 10.5698 23.424 10.6978C23.408 10.7938 23.44 11.0818 23.424 11.3058Z" fill="#050611" />
    <path d="M16 0.425781C7.168 0.425781 0 7.59378 0 16.4258C0 25.2578 7.168 32.4258 16 32.4258C24.832 32.4258 32 25.2578 32 16.4258C32 7.59378 24.832 0.425781 16 0.425781ZM23.424 11.3058C23.184 13.8338 22.144 19.9778 21.616 22.8098C21.392 24.0098 20.944 24.4098 20.528 24.4578C19.6 24.5378 18.896 23.8498 18 23.2578C16.592 22.3298 15.792 21.7538 14.432 20.8578C12.848 19.8178 13.872 19.2418 14.784 18.3138C15.024 18.0738 19.12 14.3458 19.2 14.0098C19.2111 13.9589 19.2096 13.9061 19.1957 13.8559C19.1818 13.8057 19.1558 13.7597 19.12 13.7218C19.024 13.6418 18.896 13.6738 18.784 13.6898C18.64 13.7218 16.4 15.2098 12.032 18.1538C11.392 18.5858 10.816 18.8098 10.304 18.7938C9.728 18.7778 8.64 18.4738 7.824 18.2018C6.816 17.8818 6.032 17.7058 6.096 17.1458C6.128 16.8578 6.528 16.5698 7.28 16.2658C11.952 14.2338 15.056 12.8898 16.608 12.2498C21.056 10.3938 21.968 10.0738 22.576 10.0738C22.704 10.0738 23.008 10.1058 23.2 10.2658C23.36 10.3938 23.408 10.5698 23.424 10.6978C23.408 10.7938 23.44 11.0818 23.424 11.3058Z" />
    <path d="M16 0.425781C7.168 0.425781 0 7.59378 0 16.4258C0 25.2578 7.168 32.4258 16 32.4258C24.832 32.4258 32 25.2578 32 16.4258C32 7.59378 24.832 0.425781 16 0.425781ZM23.424 11.3058C23.184 13.8338 22.144 19.9778 21.616 22.8098C21.392 24.0098 20.944 24.4098 20.528 24.4578C19.6 24.5378 18.896 23.8498 18 23.2578C16.592 22.3298 15.792 21.7538 14.432 20.8578C12.848 19.8178 13.872 19.2418 14.784 18.3138C15.024 18.0738 19.12 14.3458 19.2 14.0098C19.2111 13.9589 19.2096 13.9061 19.1957 13.8559C19.1818 13.8057 19.1558 13.7597 19.12 13.7218C19.024 13.6418 18.896 13.6738 18.784 13.6898C18.64 13.7218 16.4 15.2098 12.032 18.1538C11.392 18.5858 10.816 18.8098 10.304 18.7938C9.728 18.7778 8.64 18.4738 7.824 18.2018C6.816 17.8818 6.032 17.7058 6.096 17.1458C6.128 16.8578 6.528 16.5698 7.28 16.2658C11.952 14.2338 15.056 12.8898 16.608 12.2498C21.056 10.3938 21.968 10.0738 22.576 10.0738C22.704 10.0738 23.008 10.1058 23.2 10.2658C23.36 10.3938 23.408 10.5698 23.424 10.6978C23.408 10.7938 23.44 11.0818 23.424 11.3058Z" fill="url(#paint0_linear_493_99594)" />
  </g>
  <defs>
    <linearGradient id="paint0_linear_493_99594" x1="0.00862859" y1="16.4258" x2="32.0388" y2="16.4258" gradientUnits="userSpaceOnUse">
      <stop stop-color="#61BFF9" />
      <stop offset="1" stop-color="#61F9F9" />
    </linearGradient>
    <clipPath id="clip0_253_16819">
      <rect y="0.425781" width="32" height="32" rx="16" fill="#050611" />
    </clipPath>
  </defs>
</svg>