<svg width="33" height="30" viewBox="0 0 33 30" fill="none" xmlns="http://www.w3.org/2000/svg">
<g clip-path="url(#clip0_253_79267)">
<path d="M26.8627 23.3249C26.5638 23.6223 26.3267 23.9758 26.1648 24.3651C26.003 24.7544 25.9197 25.1718 25.9197 25.5934C25.9197 26.015 26.003 26.4324 26.1648 26.8217C26.3267 27.211 26.5638 27.5645 26.8627 27.8619C27.4679 28.4643 28.2871 28.8025 29.141 28.8025C29.9949 28.8025 30.8141 28.4643 31.4193 27.8619C31.7182 27.5645 31.9554 27.211 32.1172 26.8217C32.279 26.4324 32.3624 26.015 32.3624 25.5934C32.3624 25.1718 32.279 24.7544 32.1172 24.3651C31.9554 23.9758 31.7182 23.6223 31.4193 23.3249C30.8141 22.7225 29.9949 22.3843 29.141 22.3843C28.2871 22.3843 27.4679 22.7225 26.8627 23.3249Z" fill="white"/>
<path d="M13.861 1.45114C13.5621 1.74849 13.3249 2.10197 13.1631 2.49127C13.0013 2.88058 12.918 3.29802 12.918 3.71962C12.918 4.14122 13.0013 4.55866 13.1631 4.94796C13.3249 5.33726 13.5621 5.69074 13.861 5.9881C14.4662 6.59053 15.2854 6.92874 16.1393 6.92874C16.9932 6.92874 17.8124 6.59053 18.4176 5.9881C18.7165 5.69074 18.9537 5.33726 19.1155 4.94796C19.2773 4.55866 19.3606 4.14122 19.3606 3.71962C19.3606 3.29802 19.2773 2.88058 19.1155 2.49127C18.9537 2.10197 18.7165 1.74849 18.4176 1.45114C17.8124 0.848705 16.9932 0.510498 16.1393 0.510498C15.2854 0.510498 14.4662 0.848705 13.861 1.45114Z" fill="white"/>
<path d="M13.8615 15.708C13.5626 16.0053 13.3254 16.3588 13.1636 16.7481C13.0018 17.1374 12.9185 17.5549 12.9185 17.9765C12.9185 18.3981 13.0018 18.8155 13.1636 19.2048C13.3254 19.5941 13.5626 19.9476 13.8615 20.2449C14.4667 20.8474 15.2859 21.1856 16.1398 21.1856C16.9937 21.1856 17.8129 20.8474 18.4181 20.2449C18.717 19.9476 18.9542 19.5941 19.116 19.2048C19.2778 18.8155 19.3611 18.3981 19.3611 17.9765C19.3611 17.5549 19.2778 17.1374 19.116 16.7481C18.9542 16.3588 18.717 16.0053 18.4181 15.708C17.8129 15.1055 16.9937 14.7673 16.1398 14.7673C15.2859 14.7673 14.4667 15.1055 13.8615 15.708Z" fill="white"/>
<path d="M0.943959 23.3251C0.495839 23.7753 0.191128 24.3481 0.0682735 24.9713C-0.0545806 25.5945 0.00993249 26.2401 0.253676 26.8267C0.497419 27.4133 0.909461 27.9145 1.4378 28.2671C1.96614 28.6196 2.58709 28.8078 3.22228 28.8078C3.85746 28.8078 4.47841 28.6196 5.00674 28.2671C5.53508 27.9145 5.94713 27.4133 6.19087 26.8267C6.43461 26.2401 6.49913 25.5945 6.37628 24.9713C6.25342 24.3481 5.9487 23.7753 5.50059 23.3251C5.20255 23.0239 4.84774 22.7847 4.45667 22.6215C4.0656 22.4583 3.64604 22.3743 3.22228 22.3743C2.79851 22.3743 2.37895 22.4583 1.98788 22.6215C1.59681 22.7847 1.24199 23.0239 0.943959 23.3251Z" fill="white"/>
<path d="M26.4887 20.0612L19.9167 8.677" stroke="white" stroke-width="2.35737" stroke-miterlimit="10" stroke-linecap="square"/>
<path d="M9.5415 26.4121H22.8231" stroke="white" stroke-width="2.35737" stroke-miterlimit="10" stroke-linecap="square"/>
<path d="M12.1959 8.677L5.75171 19.84" stroke="white" stroke-width="2.35737" stroke-miterlimit="10" stroke-linecap="square"/>
</g>
<defs>
<clipPath id="clip0_253_79267">
<rect width="32.5" height="29.3137" fill="white"/>
</clipPath>
</defs>
</svg>
