<svg width="227" height="45" viewBox="0 0 227 45" fill="none" xmlns="http://www.w3.org/2000/svg">
<g clip-path="url(#clip0_253_7924)">
<path d="M170.839 22.1284C170.631 21.5466 170.268 21.0348 169.79 20.6505C169.269 20.24 168.621 20.0319 167.962 20.0641C167.523 20.0486 167.086 20.135 166.685 20.3166C166.284 20.4982 165.929 20.7702 165.648 21.1119C165.088 21.9947 164.79 23.022 164.79 24.0715C164.79 25.1209 165.088 26.1483 165.648 27.0311C165.934 27.3648 166.29 27.6287 166.691 27.8034C167.092 27.978 167.526 28.0588 167.962 28.0398C168.601 28.0672 169.231 27.8773 169.751 27.5002C170.253 27.1656 170.647 26.6901 170.885 26.1319L173.616 27.3986C173.616 27.3986 173.508 27.641 173.446 27.7661C173.148 28.3591 172.743 28.8897 172.25 29.3299C171.702 29.81 171.072 30.1861 170.392 30.4403C169.59 30.7284 168.743 30.8687 167.892 30.8547C166.738 30.875 165.596 30.6064 164.568 30.0728C163.591 29.5493 162.787 28.7474 162.254 27.7661C161.66 26.6313 161.368 25.3594 161.405 24.0754C161.363 22.7865 161.661 21.5096 162.269 20.3769C162.804 19.3969 163.608 18.5955 164.583 18.0702C165.601 17.5382 166.732 17.2696 167.877 17.2882C168.896 17.2683 169.908 17.4654 170.847 17.8669C171.69 18.2341 172.424 18.8192 172.976 19.5637C173.224 19.9557 173.443 20.366 173.631 20.7913L170.839 22.1284Z" fill="white"/>
<path d="M200.65 24.0521C200.69 25.3466 200.375 26.6272 199.739 27.7506C199.158 28.7407 198.306 29.5391 197.287 30.0495C196.21 30.587 195.023 30.8551 193.823 30.8314C192.622 30.8507 191.433 30.5828 190.352 30.0495C189.339 29.5442 188.49 28.7544 187.907 27.7741C187.315 26.6352 187.005 25.367 187.005 24.0795C187.005 22.7919 187.315 21.5238 187.907 20.3848C188.485 19.393 189.335 18.5919 190.352 18.0782C191.438 17.5618 192.623 17.2942 193.823 17.2942C195.023 17.2942 196.208 17.5618 197.294 18.0782C198.314 18.5914 199.166 19.3924 199.747 20.3848C200.385 21.5075 200.7 22.7886 200.657 24.0834M197.572 24.0834C197.609 23.5471 197.54 23.0087 197.369 22.4998C197.199 21.9909 196.929 21.5217 196.577 21.1199C195.804 20.4589 194.826 20.0963 193.815 20.0963C192.805 20.0963 191.826 20.4589 191.054 21.1199C190.409 21.9692 190.058 23.0112 190.058 24.0834C190.058 25.1555 190.409 26.1976 191.054 27.0469C191.826 27.7078 192.805 28.0704 193.815 28.0704C194.826 28.0704 195.804 27.7078 196.577 27.0469C196.928 26.6445 197.197 26.1753 197.368 25.6665C197.539 25.1577 197.608 24.6196 197.572 24.0834Z" fill="white"/>
<path d="M138.558 30.6588V17.4442H143.787C144.63 17.4236 145.465 17.6058 146.225 17.9759C146.891 18.3146 147.444 18.845 147.814 19.5007C148.197 20.2202 148.389 21.0288 148.369 21.8465C148.399 22.6671 148.201 23.4799 147.798 24.1922C147.423 24.8321 146.863 25.3398 146.194 25.6466L148.801 30.6744H145.484L143.17 26.1549H141.628V30.6744L138.558 30.6588ZM141.597 23.6214H143.093C143.64 23.6569 144.183 23.5055 144.636 23.1914C144.822 23.0245 144.966 22.8161 145.059 22.5827C145.151 22.3492 145.189 22.0971 145.168 21.8465C145.168 20.6267 144.474 20.0168 143.078 20.0168H141.581L141.597 23.6214Z" fill="white"/>
<path d="M203.505 30.6514V17.4368H208.696C209.542 17.4149 210.381 17.6 211.141 17.9763C211.807 18.3122 212.36 18.8399 212.73 19.4933C213.114 20.2128 213.305 21.0214 213.286 21.8391C213.312 22.6593 213.114 23.4711 212.715 24.1848C212.337 24.8253 211.774 25.3328 211.103 25.6392L213.718 30.667H210.401L208.087 26.1475H206.544V30.667L203.505 30.6514ZM206.544 23.614H208.04C208.588 23.6507 209.131 23.4992 209.583 23.184C209.774 23.0208 209.922 22.8131 210.016 22.5789C210.11 22.3446 210.147 22.0908 210.123 21.8391C210.123 20.6192 209.421 20.0093 208.025 20.0093H206.529L206.544 23.614Z" fill="white"/>
<path d="M60.3896 17.4446H63.9687L67.0078 25.6314H67.1467L70.1858 17.4446H73.7648V30.6592H70.9494V22.5428H70.8491L67.9797 30.581H66.1825L63.3053 22.4958H63.2051V30.6592H60.3896V17.4446Z" fill="white"/>
<path d="M84.4786 17.4446H87.4791V26.21C87.5058 27.1044 87.2753 27.9873 86.8158 28.7513C86.3673 29.4458 85.7257 29.99 84.9722 30.3151C83.1997 31.0347 81.2219 31.0347 79.4494 30.3151C78.6959 29.99 78.0544 29.4458 77.6059 28.7513C77.1463 27.9873 76.9158 27.1044 76.9425 26.21V17.4446H79.9508V26.0458C79.9405 26.3176 79.9922 26.5881 80.1019 26.8363C80.2116 27.0845 80.3763 27.3036 80.5833 27.4767C81.0477 27.8473 81.6281 28.036 82.2185 28.0084C82.8134 28.0343 83.3982 27.8459 83.8692 27.4767C84.0739 27.3021 84.2365 27.0824 84.3448 26.8345C84.453 26.5865 84.5041 26.3168 84.494 26.0458L84.4786 17.4446Z" fill="white"/>
<path d="M90.4863 30.6589V17.4443H93.4946V28.0708H98.678V30.6589H90.4863Z" fill="white"/>
<path d="M135.371 17.4443H132.363V30.6589H135.371V17.4443Z" fill="white"/>
<path d="M126.64 18.3128C125.526 17.7446 124.291 17.4627 123.045 17.4918H118.186V30.6595H123.045C124.289 30.687 125.52 30.4051 126.632 29.8384C127.637 29.3111 128.466 28.4951 129.015 27.4927C129.572 26.4352 129.864 25.2549 129.864 24.0561C129.864 22.8573 129.572 21.677 129.015 20.6195C128.457 19.6365 127.632 18.8361 126.64 18.3128ZM125.683 26.914C125.301 27.2663 124.852 27.5372 124.365 27.7105C123.877 27.8837 123.36 27.9559 122.844 27.9227H121.302V20.1425H122.844C123.363 20.0916 123.887 20.1577 124.378 20.3362C124.869 20.5147 125.314 20.8011 125.683 21.1748C126.052 21.5485 126.334 22.0003 126.51 22.4978C126.686 22.9953 126.751 23.5261 126.701 24.0522C126.735 24.5781 126.662 25.1054 126.486 25.6016C126.311 26.0978 126.038 26.5524 125.683 26.9375V26.914Z" fill="white"/>
<path d="M159.36 20.0014V17.4915H151.431V30.6591H159.36V28.157H154.539V25.17H158.797V22.7538H154.539V20.0014H159.36Z" fill="white"/>
<path d="M223.514 17.4915L220.976 23.0979L220.945 23.0197L218.423 17.4915H214.898L219.395 26.3194V30.6591H222.503L222.511 26.3038L227 17.4915H223.514Z" fill="white"/>
<path d="M114.498 17.4446H111.49V30.6592H114.498V17.4446Z" fill="white"/>
<path d="M99.0107 20.0406V17.4446H108.776V20.0406H105.274V30.6592H102.52V20.0406H99.0107Z" fill="white"/>
<path d="M175.506 20.0406V17.4446H185.271V20.0406H181.769V30.6592H179.015V20.0406H175.506Z" fill="white"/>
<path d="M42.1537 35.7979C41.6847 36.2645 41.3125 36.8192 41.0585 37.4301C40.8046 38.041 40.6738 38.696 40.6738 39.3576C40.6738 40.0192 40.8046 40.6743 41.0585 41.2852C41.3125 41.8961 41.6847 42.4508 42.1537 42.9174C43.1034 43.8627 44.3888 44.3935 45.7289 44.3935C47.0689 44.3935 48.3543 43.8627 49.304 42.9174C49.7731 42.4508 50.1452 41.8961 50.3992 41.2852C50.6531 40.6743 50.7839 40.0192 50.7839 39.3576C50.7839 38.696 50.6531 38.041 50.3992 37.4301C50.1452 36.8192 49.7731 36.2645 49.304 35.7979C48.3543 34.8525 47.0689 34.3218 45.7289 34.3218C44.3888 34.3218 43.1034 34.8525 42.1537 35.7979Z" fill="white"/>
<path d="M21.7511 1.47315C21.2821 1.93977 20.9099 2.49446 20.6559 3.10537C20.402 3.71627 20.2712 4.37134 20.2712 5.03292C20.2712 5.69451 20.402 6.34957 20.6559 6.96047C20.9099 7.57137 21.2821 8.12607 21.7511 8.59269C22.7008 9.53804 23.9863 10.0688 25.3263 10.0688C26.6663 10.0688 27.9518 9.53804 28.9015 8.59269C29.3705 8.12607 29.7426 7.57137 29.9966 6.96047C30.2506 6.34957 30.3813 5.69451 30.3813 5.03292C30.3813 4.37134 30.2506 3.71627 29.9966 3.10537C29.7426 2.49446 29.3705 1.93977 28.9015 1.47315C27.9518 0.527795 26.6663 -0.00292969 25.3263 -0.00292969C23.9863 -0.00292969 22.7008 0.527795 21.7511 1.47315Z" fill="white"/>
<path d="M21.7513 23.8452C21.2823 24.3118 20.9101 24.8665 20.6562 25.4774C20.4022 26.0883 20.2715 26.7434 20.2715 27.405C20.2715 28.0666 20.4022 28.7216 20.6562 29.3325C20.9101 29.9434 21.2823 30.4981 21.7513 30.9648C22.701 31.9101 23.9865 32.4408 25.3265 32.4408C26.6665 32.4408 27.952 31.9101 28.9017 30.9648C29.3707 30.4981 29.7429 29.9434 29.9968 29.3325C30.2508 28.7216 30.3815 28.0666 30.3815 27.405C30.3815 26.7434 30.2508 26.0883 29.9968 25.4774C29.7429 24.8665 29.3707 24.3118 28.9017 23.8452C27.952 22.8999 26.6665 22.3691 25.3265 22.3691C23.9865 22.3691 22.701 22.8999 21.7513 23.8452Z" fill="white"/>
<path d="M1.48113 35.7983C0.777928 36.5047 0.299765 37.4036 0.106979 38.3815C-0.0858072 39.3595 0.0154286 40.3726 0.397918 41.293C0.780407 42.2135 1.427 43 2.25608 43.5533C3.08516 44.1066 4.05958 44.4019 5.05634 44.4019C6.05309 44.4019 7.0275 44.1066 7.85658 43.5533C8.68567 43 9.33225 42.2135 9.71474 41.293C10.0972 40.3726 10.1985 39.3595 10.0057 38.3815C9.81291 37.4036 9.33473 36.5047 8.63153 35.7983C8.16385 35.3256 7.60706 34.9503 6.99338 34.6942C6.3797 34.438 5.72132 34.3062 5.05634 34.3062C4.39135 34.3062 3.73297 34.438 3.11929 34.6942C2.50561 34.9503 1.94882 35.3256 1.48113 35.7983Z" fill="white"/>
<path d="M41.5668 30.6764L31.2539 12.812" stroke="white" stroke-width="3.69926" stroke-miterlimit="10" stroke-linecap="square"/>
<path d="M14.9727 40.6426H35.8145" stroke="white" stroke-width="3.69926" stroke-miterlimit="10" stroke-linecap="square"/>
<path d="M19.1378 12.812L9.02539 30.3293" stroke="white" stroke-width="3.69926" stroke-miterlimit="10" stroke-linecap="square"/>
</g>
<defs>
<clipPath id="clip0_253_7924">
<rect width="227" height="45" fill="white"/>
</clipPath>
</defs>
</svg>
