<svg width="32" height="33" viewBox="0 0 32 33" fill="none" xmlns="http://www.w3.org/2000/svg">
<g clip-path="url(#clip0_253_16825)">
<path d="M16 32.4258C24.8366 32.4258 32 25.2623 32 16.4258C32 7.58923 24.8366 0.425781 16 0.425781C7.16344 0.425781 0 7.58923 0 16.4258C0 25.2623 7.16344 32.4258 16 32.4258Z" fill="#2E3D64"/>
<path d="M15.9944 10.4258C15.9944 10.4258 10.3687 10.4258 8.9567 10.7753C8.20067 10.9765 7.57815 11.5696 7.3669 12.3004C7.00001 13.6455 7 16.4311 7 16.4311C7 16.4311 7.00001 19.2272 7.3669 20.5512C7.57815 21.282 8.18956 21.8644 8.9567 22.0657C10.3798 22.4258 15.9944 22.4258 15.9944 22.4258C15.9944 22.4258 21.6313 22.4258 23.0433 22.0763C23.8104 21.875 24.4218 21.3032 24.6219 20.5618C25 19.2272 25 16.4417 25 16.4417C25 16.4417 25.0111 13.6455 24.6219 12.3004C24.4218 11.5696 23.8104 10.9871 23.0433 10.7965C21.6313 10.4258 15.9944 10.4258 15.9944 10.4258ZM14.2044 13.8574L18.8852 16.4311L14.2044 18.9941V13.8574Z" fill="white"/>
</g>
<defs>
<clipPath id="clip0_253_16825">
<rect y="0.425781" width="32" height="32" rx="16" fill="white"/>
</clipPath>
</defs>
</svg>
