<svg width="288" height="34" viewBox="0 0 288 34" fill="none" xmlns="http://www.w3.org/2000/svg">
<rect x="0.5" y="0.963867" width="287" height="32" rx="16" stroke="url(#paint0_linear_253_79327)"/>
<path d="M85.598 23.9248V20.1613H86.2692C86.4979 19.9691 86.7116 19.6956 86.9105 19.341C87.1094 18.9864 87.2784 18.5074 87.4176 17.9042C87.5568 17.301 87.6529 16.5271 87.706 15.5825L87.9446 11.282H94.2237V20.1613H95.3771V23.9099H93.9055V21.4639H87.0696V23.9248H85.598ZM88.0788 20.1613H92.7521V12.6045H89.3366L89.1776 15.5825C89.1345 16.3017 89.0632 16.948 88.9638 17.5214C88.8677 18.0948 88.7434 18.6019 88.5909 19.0427C88.4418 19.4802 88.2711 19.8531 88.0788 20.1613ZM100.157 21.618C99.4414 21.618 98.8166 21.4539 98.283 21.1258C97.7494 20.7977 97.3351 20.3386 97.0401 19.7487C96.7451 19.1587 96.5977 18.4693 96.5977 17.6805C96.5977 16.8883 96.7451 16.1956 97.0401 15.6024C97.3351 15.0091 97.7494 14.5484 98.283 14.2203C98.8166 13.8921 99.4414 13.7281 100.157 13.7281C100.873 13.7281 101.498 13.8921 102.032 14.2203C102.565 14.5484 102.98 15.0091 103.275 15.6024C103.569 16.1956 103.717 16.8883 103.717 17.6805C103.717 18.4693 103.569 19.1587 103.275 19.7487C102.98 20.3386 102.565 20.7977 102.032 21.1258C101.498 21.4539 100.873 21.618 100.157 21.618ZM100.162 20.3701C100.626 20.3701 101.011 20.2475 101.316 20.0022C101.621 19.757 101.846 19.4305 101.992 19.0228C102.141 18.6151 102.216 18.166 102.216 17.6755C102.216 17.1883 102.141 16.7409 101.992 16.3332C101.846 15.9222 101.621 15.5924 101.316 15.3438C101.011 15.0953 100.626 14.971 100.162 14.971C99.695 14.971 99.3072 15.0953 98.9989 15.3438C98.694 15.5924 98.467 15.9222 98.3178 16.3332C98.172 16.7409 98.0991 17.1883 98.0991 17.6755C98.0991 18.166 98.172 18.6151 98.3178 19.0228C98.467 19.4305 98.694 19.757 98.9989 20.0022C99.3072 20.2475 99.695 20.3701 100.162 20.3701ZM105.376 21.4639V13.8275H106.863V17.0292H107.579L110.099 13.8275H111.939L108.981 17.5413L111.974 21.4639H110.129L107.827 18.4113H106.863V21.4639H105.376ZM114.109 24.3275C113.887 24.3275 113.685 24.3093 113.502 24.2728C113.32 24.2397 113.184 24.2032 113.095 24.1634L113.453 22.9454C113.724 23.0183 113.966 23.0498 114.178 23.0399C114.391 23.0299 114.578 22.9504 114.74 22.8012C114.906 22.6521 115.052 22.4085 115.178 22.0704L115.362 21.5633L112.568 13.8275H114.159L116.093 19.7536H116.172L118.106 13.8275H119.702L116.555 22.483C116.409 22.8808 116.223 23.2172 115.998 23.4923C115.773 23.7707 115.504 23.9795 115.193 24.1187C114.881 24.2579 114.52 24.3275 114.109 24.3275ZM125.384 19.6244L127.85 13.8275H129.133L125.936 21.4639H124.833L121.7 13.8275H122.968L125.384 19.6244ZM122.556 13.8275V21.4639H121.099V13.8275H122.556ZM128.253 21.4639V13.8275H129.7V21.4639H128.253ZM134.972 21.618C134.22 21.618 133.572 21.4572 133.028 21.1357C132.488 20.8109 132.07 20.3552 131.775 19.7686C131.484 19.1786 131.338 18.4875 131.338 17.6954C131.338 16.9132 131.484 16.2238 131.775 15.6272C132.07 15.0306 132.481 14.565 133.008 14.2302C133.539 13.8954 134.158 13.7281 134.868 13.7281C135.299 13.7281 135.716 13.7993 136.121 13.9419C136.525 14.0844 136.888 14.3081 137.209 14.613C137.531 14.9179 137.784 15.314 137.97 15.8012C138.156 16.2851 138.248 16.8734 138.248 17.5661V18.0931H132.178V16.9795H136.792C136.792 16.5884 136.712 16.242 136.553 15.9404C136.394 15.6355 136.17 15.3952 135.882 15.2195C135.597 15.0439 135.262 14.9561 134.878 14.9561C134.46 14.9561 134.095 15.0588 133.784 15.2643C133.476 15.4665 133.237 15.7316 133.068 16.0597C132.902 16.3846 132.819 16.7375 132.819 17.1187V17.9887C132.819 18.4991 132.909 18.9333 133.088 19.2913C133.27 19.6492 133.524 19.9227 133.849 20.1116C134.173 20.2972 134.553 20.39 134.987 20.39C135.269 20.39 135.526 20.3502 135.758 20.2707C135.99 20.1878 136.19 20.0652 136.359 19.9028C136.528 19.7404 136.657 19.5399 136.747 19.3012L138.154 19.5548C138.041 19.9691 137.839 20.332 137.547 20.6436C137.259 20.9518 136.896 21.1921 136.459 21.3644C136.024 21.5335 135.529 21.618 134.972 21.618ZM145.073 17.0044V18.292H140.937V17.0044H145.073ZM141.354 13.8275V21.4639H139.898V13.8275H141.354ZM146.112 13.8275V21.4639H144.661V13.8275H146.112ZM147.154 15.1102V13.8275H153.597V15.1102H151.106V21.4639H149.654V15.1102H147.154ZM157.036 21.6329C156.552 21.6329 156.115 21.5434 155.724 21.3644C155.332 21.1821 155.023 20.9186 154.794 20.574C154.568 20.2293 154.456 19.8067 154.456 19.3062C154.456 18.8753 154.539 18.5207 154.704 18.2423C154.87 17.9639 155.094 17.7435 155.376 17.5811C155.657 17.4186 155.972 17.296 156.32 17.2132C156.668 17.1303 157.023 17.0673 157.384 17.0242C157.841 16.9712 158.213 16.9281 158.498 16.895C158.783 16.8585 158.99 16.8005 159.119 16.721C159.248 16.6414 159.313 16.5122 159.313 16.3332V16.2984C159.313 15.8642 159.19 15.5278 158.945 15.2892C158.703 15.0505 158.342 14.9312 157.861 14.9312C157.361 14.9312 156.966 15.0422 156.678 15.2643C156.393 15.483 156.196 15.7267 156.086 15.9951L154.689 15.6769C154.855 15.2129 155.097 14.8384 155.415 14.5534C155.737 14.265 156.106 14.0562 156.524 13.9269C156.942 13.7944 157.381 13.7281 157.841 13.7281C158.146 13.7281 158.47 13.7645 158.811 13.8374C159.156 13.907 159.477 14.0363 159.775 14.2252C160.077 14.4142 160.324 14.6843 160.516 15.0356C160.708 15.3836 160.805 15.836 160.805 16.3928V21.4639H159.353V20.4198H159.293C159.197 20.6121 159.053 20.801 158.861 20.9866C158.668 21.1722 158.421 21.3263 158.12 21.449C157.818 21.5716 157.457 21.6329 157.036 21.6329ZM157.359 20.4397C157.77 20.4397 158.122 20.3585 158.413 20.1961C158.708 20.0337 158.932 19.8216 159.084 19.5597C159.24 19.2946 159.318 19.0112 159.318 18.7096V17.7252C159.265 17.7783 159.162 17.828 159.01 17.8744C158.861 17.9175 158.69 17.9556 158.498 17.9887C158.305 18.0186 158.118 18.0467 157.936 18.0732C157.754 18.0964 157.601 18.1163 157.479 18.1329C157.19 18.1694 156.927 18.2307 156.688 18.3169C156.453 18.403 156.264 18.5273 156.121 18.6897C155.982 18.8488 155.912 19.0609 155.912 19.3261C155.912 19.694 156.048 19.9724 156.32 20.1613C156.592 20.3469 156.938 20.4397 157.359 20.4397ZM169.014 13.8275V20.2458H170.132V23.9248H168.666V21.4639H162.784V13.8275H164.241V20.1812H167.562V13.8275H169.014ZM173.237 19.3808L176.603 13.8275H178.204V21.4639H176.747V15.9056L173.396 21.4639H171.781V13.8275H173.237V19.3808ZM184.756 21.4639V15.0953H182.927C182.493 15.0953 182.155 15.1963 181.913 15.3985C181.671 15.6007 181.55 15.8659 181.55 16.194C181.55 16.5188 181.661 16.7806 181.883 16.9795C182.108 17.175 182.423 17.2728 182.827 17.2728H185.189V18.4759H182.827C182.264 18.4759 181.777 18.3831 181.366 18.1975C180.958 18.0086 180.643 17.7418 180.421 17.3971C180.202 17.0524 180.093 16.6447 180.093 16.1741C180.093 15.6935 180.206 15.2792 180.431 14.9312C180.66 14.5799 180.986 14.3081 181.411 14.1159C181.838 13.9236 182.344 13.8275 182.927 13.8275H186.153V21.4639H184.756ZM179.745 21.4639L181.898 17.6059H183.419L181.266 21.4639H179.745Z" fill="url(#paint1_linear_253_79327)"/>
<path d="M197.47 20.4336C197.177 20.7265 197.177 21.2013 197.47 21.4942C197.763 21.7871 198.237 21.7871 198.53 21.4942L202.53 17.4942C202.821 17.2039 202.824 16.734 202.537 16.4401L198.634 12.4401C198.345 12.1436 197.87 12.1378 197.574 12.4271C197.277 12.7163 197.271 13.1912 197.561 13.4876L200.946 16.9574L197.47 20.4336Z" fill="#61F9FA"/>
<defs>
<linearGradient id="paint0_linear_253_79327" x1="0.0776573" y1="16.9639" x2="288.349" y2="16.9638" gradientUnits="userSpaceOnUse">
<stop stop-color="#61BFF9"/>
<stop offset="1" stop-color="#61F9F9"/>
</linearGradient>
<linearGradient id="paint1_linear_253_79327" x1="85.2775" y1="16.9639" x2="187.374" y2="16.9639" gradientUnits="userSpaceOnUse">
<stop stop-color="#61BFF9"/>
<stop offset="1" stop-color="#61F9F9"/>
</linearGradient>
</defs>
</svg>
