<svg width="227" height="45" viewBox="0 0 227 45" fill="none" xmlns="http://www.w3.org/2000/svg">
<g clip-path="url(#clip0_253_16776)">
<path d="M170.839 21.829C170.631 21.255 170.268 20.7502 169.79 20.3711C169.269 19.9661 168.621 19.7609 167.962 19.7926C167.523 19.7774 167.086 19.8626 166.685 20.0417C166.284 20.2208 165.929 20.4892 165.648 20.8262C165.088 21.6971 164.79 22.7105 164.79 23.7458C164.79 24.781 165.088 25.7945 165.648 26.6653C165.934 26.9945 166.29 27.2549 166.691 27.4272C167.092 27.5995 167.526 27.6792 167.962 27.6604C168.601 27.6874 169.231 27.5001 169.751 27.1281C170.253 26.798 170.647 26.3289 170.885 25.7783L173.616 27.0279C173.616 27.0279 173.508 27.267 173.446 27.3904C173.148 27.9754 172.743 28.4988 172.25 28.9331C171.702 29.4067 171.072 29.7777 170.392 30.0284C169.59 30.3126 168.743 30.4511 167.892 30.4372C166.738 30.4572 165.596 30.1923 164.568 29.6659C163.591 29.1494 162.787 28.3585 162.254 27.3904C161.66 26.271 161.368 25.0163 161.405 23.7496C161.363 22.4782 161.661 21.2186 162.269 20.1012C162.804 19.1345 163.608 18.3439 164.583 17.8257C165.601 17.3009 166.732 17.0359 167.877 17.0543C168.896 17.0347 169.908 17.2291 170.847 17.6251C171.69 17.9874 172.424 18.5645 172.976 19.299C173.224 19.6857 173.443 20.0905 173.631 20.51L170.839 21.829Z" fill="white"/>
<path d="M200.65 23.7268C200.69 25.0038 200.375 26.267 199.739 27.3752C199.158 28.3519 198.306 29.1395 197.287 29.643C196.21 30.1732 195.023 30.4377 193.823 30.4143C192.622 30.4334 191.433 30.1691 190.352 29.643C189.339 29.1445 188.49 28.3654 187.907 27.3984C187.315 26.2749 187.005 25.0239 187.005 23.7537C187.005 22.4836 187.315 21.2326 187.907 20.1091C188.485 19.1307 189.335 18.3405 190.352 17.8337C191.438 17.3243 192.623 17.0603 193.823 17.0603C195.023 17.0603 196.208 17.3243 197.294 17.8337C198.314 18.34 199.166 19.1302 199.747 20.1091C200.385 21.2166 200.7 22.4804 200.657 23.7576M197.572 23.7576C197.609 23.2286 197.54 22.6975 197.369 22.1955C197.199 21.6934 196.929 21.2306 196.577 20.8342C195.804 20.1822 194.826 19.8245 193.815 19.8245C192.805 19.8245 191.826 20.1822 191.054 20.8342C190.409 21.672 190.058 22.7 190.058 23.7576C190.058 24.8153 190.409 25.8432 191.054 26.681C191.826 27.333 192.805 27.6907 193.815 27.6907C194.826 27.6907 195.804 27.333 196.577 26.681C196.928 26.2841 197.197 25.8212 197.368 25.3193C197.539 24.8174 197.608 24.2865 197.572 23.7576Z" fill="white"/>
<path d="M138.558 30.2439V17.2081H143.787C144.63 17.1878 145.465 17.3675 146.225 17.7326C146.891 18.0667 147.444 18.59 147.814 19.2367C148.197 19.9465 148.389 20.7442 148.369 21.5508C148.399 22.3604 148.201 23.1621 147.798 23.8648C147.423 24.496 146.863 24.9968 146.194 25.2995L148.801 30.2593H145.484L143.17 25.8009H141.628V30.2593L138.558 30.2439ZM141.597 23.3017H143.093C143.64 23.3367 144.183 23.1874 144.636 22.8775C144.822 22.7129 144.966 22.5073 145.059 22.277C145.151 22.0467 145.189 21.7981 145.168 21.5508C145.168 20.3475 144.474 19.7458 143.078 19.7458H141.581L141.597 23.3017Z" fill="white"/>
<path d="M203.505 30.2369V17.2012H208.696C209.542 17.1796 210.381 17.3622 211.141 17.7334C211.807 18.0647 212.36 18.5853 212.73 19.2298C213.114 19.9396 213.305 20.7373 213.286 21.5439C213.312 22.3531 213.114 23.1538 212.715 23.8579C212.337 24.4897 211.774 24.9904 211.103 25.2926L213.718 30.2524H210.401L208.087 25.794H206.544V30.2524L203.505 30.2369ZM206.544 23.2948H208.04C208.588 23.331 209.131 23.1816 209.583 22.8706C209.774 22.7096 209.922 22.5048 210.016 22.2737C210.11 22.0426 210.147 21.7922 210.123 21.5439C210.123 20.3406 209.421 19.7389 208.025 19.7389H206.529L206.544 23.2948Z" fill="white"/>
<path d="M60.3896 17.2085H63.9687L67.0078 25.2845H67.1467L70.1858 17.2085H73.7648V30.2443H70.9494V22.2377H70.8491L67.9797 30.1671H66.1825L63.3053 22.1914H63.2051V30.2443H60.3896V17.2085Z" fill="white"/>
<path d="M84.4786 17.2085H87.4791V25.8553C87.5058 26.7376 87.2753 27.6086 86.8158 28.3622C86.3673 29.0473 85.7257 29.5842 84.9722 29.9049C83.1997 30.6147 81.2219 30.6147 79.4494 29.9049C78.6959 29.5842 78.0544 29.0473 77.6059 28.3622C77.1463 27.6086 76.9158 26.7376 76.9425 25.8553V17.2085H79.9508V25.6933C79.9405 25.9614 79.9922 26.2283 80.1019 26.4731C80.2116 26.7179 80.3763 26.9341 80.5833 27.1049C81.0477 27.4704 81.6281 27.6566 82.2185 27.6294C82.8134 27.6549 83.3982 27.4691 83.8692 27.1049C84.0739 26.9326 84.2365 26.7159 84.3448 26.4713C84.453 26.2267 84.5041 25.9606 84.494 25.6933L84.4786 17.2085Z" fill="white"/>
<path d="M90.4863 30.2443V17.2085H93.4946V27.6911H98.678V30.2443H90.4863Z" fill="white"/>
<path d="M135.371 17.2085H132.363V30.2443H135.371V17.2085Z" fill="white"/>
<path d="M126.64 18.0649C125.526 17.5043 124.291 17.2262 123.045 17.2549H118.186V30.2444H123.045C124.289 30.2716 125.52 29.9935 126.632 29.4345C127.637 28.9143 128.466 28.1094 129.015 27.1205C129.572 26.0773 129.864 24.913 129.864 23.7304C129.864 22.5478 129.572 21.3835 129.015 20.3403C128.457 19.3706 127.632 18.581 126.64 18.0649ZM125.683 26.5497C125.301 26.8972 124.852 27.1644 124.365 27.3353C123.877 27.5063 123.36 27.5775 122.844 27.5447H121.302V19.8698H122.844C123.363 19.8196 123.887 19.8848 124.378 20.0609C124.869 20.2369 125.314 20.5194 125.683 20.8881C126.052 21.2568 126.334 21.7025 126.51 22.1932C126.686 22.684 126.751 23.2076 126.701 23.7266C126.735 24.2453 126.662 24.7655 126.486 25.255C126.311 25.7445 126.038 26.1929 125.683 26.5728V26.5497Z" fill="white"/>
<path d="M159.36 19.7309V17.2549H151.431V30.2444H159.36V27.7761H154.539V24.8295H158.797V22.4461H154.539V19.7309H159.36Z" fill="white"/>
<path d="M223.514 17.2549L220.976 22.7854L220.945 22.7083L218.423 17.2549H214.898L219.395 25.9634V30.2444H222.503L222.511 25.948L227 17.2549H223.514Z" fill="white"/>
<path d="M114.498 17.2085H111.49V30.2443H114.498V17.2085Z" fill="white"/>
<path d="M99.0107 19.7694V17.2085H108.776V19.7694H105.274V30.2443H102.52V19.7694H99.0107Z" fill="white"/>
<path d="M175.506 19.7694V17.2085H185.271V19.7694H181.769V30.2443H179.015V19.7694H175.506Z" fill="white"/>
<path d="M42.1537 35.7979C41.6847 36.2645 41.3125 36.8192 41.0585 37.4301C40.8046 38.041 40.6738 38.696 40.6738 39.3576C40.6738 40.0192 40.8046 40.6743 41.0585 41.2852C41.3125 41.8961 41.6847 42.4508 42.1537 42.9174C43.1034 43.8627 44.3888 44.3935 45.7289 44.3935C47.0689 44.3935 48.3543 43.8627 49.304 42.9174C49.7731 42.4508 50.1452 41.8961 50.3992 41.2852C50.6531 40.6743 50.7839 40.0192 50.7839 39.3576C50.7839 38.696 50.6531 38.041 50.3992 37.4301C50.1452 36.8192 49.7731 36.2645 49.304 35.7979C48.3543 34.8525 47.0689 34.3218 45.7289 34.3218C44.3888 34.3218 43.1034 34.8525 42.1537 35.7979Z" fill="white"/>
<path d="M21.7511 1.47315C21.2821 1.93977 20.9099 2.49446 20.6559 3.10537C20.402 3.71627 20.2712 4.37134 20.2712 5.03292C20.2712 5.69451 20.402 6.34957 20.6559 6.96047C20.9099 7.57137 21.2821 8.12607 21.7511 8.59269C22.7008 9.53804 23.9863 10.0688 25.3263 10.0688C26.6663 10.0688 27.9518 9.53804 28.9015 8.59269C29.3705 8.12607 29.7426 7.57137 29.9966 6.96047C30.2506 6.34957 30.3813 5.69451 30.3813 5.03292C30.3813 4.37134 30.2506 3.71627 29.9966 3.10537C29.7426 2.49446 29.3705 1.93977 28.9015 1.47315C27.9518 0.527795 26.6663 -0.00292969 25.3263 -0.00292969C23.9863 -0.00292969 22.7008 0.527795 21.7511 1.47315Z" fill="white"/>
<path d="M21.7513 23.845C21.2823 24.3116 20.9101 24.8663 20.6562 25.4772C20.4022 26.0881 20.2715 26.7432 20.2715 27.4048C20.2715 28.0663 20.4022 28.7214 20.6562 29.3323C20.9101 29.9432 21.2823 30.4979 21.7513 30.9645C22.701 31.9099 23.9865 32.4406 25.3265 32.4406C26.6665 32.4406 27.952 31.9099 28.9017 30.9645C29.3707 30.4979 29.7429 29.9432 29.9968 29.3323C30.2508 28.7214 30.3815 28.0663 30.3815 27.4048C30.3815 26.7432 30.2508 26.0881 29.9968 25.4772C29.7429 24.8663 29.3707 24.3116 28.9017 23.845C27.952 22.8996 26.6665 22.3689 25.3265 22.3689C23.9865 22.3689 22.701 22.8996 21.7513 23.845Z" fill="white"/>
<path d="M1.48113 35.7981C0.777928 36.5045 0.299765 37.4034 0.106979 38.3813C-0.0858072 39.3592 0.0154286 40.3724 0.397918 41.2928C0.780407 42.2132 1.427 42.9998 2.25608 43.553C3.08516 44.1063 4.05958 44.4016 5.05634 44.4016C6.05309 44.4016 7.0275 44.1063 7.85658 43.553C8.68567 42.9998 9.33225 42.2132 9.71474 41.2928C10.0972 40.3724 10.1985 39.3592 10.0057 38.3813C9.81291 37.4034 9.33473 36.5045 8.63153 35.7981C8.16385 35.3253 7.60706 34.95 6.99338 34.6939C6.3797 34.4378 5.72132 34.3059 5.05634 34.3059C4.39135 34.3059 3.73297 34.4378 3.11929 34.6939C2.50561 34.95 1.94882 35.3253 1.48113 35.7981Z" fill="white"/>
<path d="M41.5668 30.6764L31.2539 12.812" stroke="white" stroke-width="3.69926" stroke-miterlimit="10" stroke-linecap="square"/>
<path d="M14.9727 40.6423H35.8145" stroke="white" stroke-width="3.69926" stroke-miterlimit="10" stroke-linecap="square"/>
<path d="M19.138 12.812L9.02563 30.3293" stroke="white" stroke-width="3.69926" stroke-miterlimit="10" stroke-linecap="square"/>
</g>
<defs>
<clipPath id="clip0_253_16776">
<rect width="227" height="44.3911" fill="white"/>
</clipPath>
</defs>
</svg>
