<svg width="36" height="37" viewBox="0 0 36 37" fill="none" xmlns="http://www.w3.org/2000/svg">
<g clip-path="url(#clip0_253_20401)">
<path d="M28 0.257523H8C3.58172 0.257523 0 3.83924 0 8.25752V28.2575C0 32.6758 3.58172 36.2575 8 36.2575H28C32.4183 36.2575 36 32.6758 36 28.2575V8.25752C36 3.83924 32.4183 0.257523 28 0.257523Z" fill="#040F24"/>
<path d="M28 0.257523H8C3.58172 0.257523 0 3.83924 0 8.25752V28.2575C0 32.6758 3.58172 36.2575 8 36.2575H28C32.4183 36.2575 36 32.6758 36 28.2575V8.25752C36 3.83924 32.4183 0.257523 28 0.257523Z" fill="url(#paint0_radial_253_20401)"/>
<path d="M8 0.757523H28C32.1421 0.757523 35.5 4.11539 35.5 8.25752V28.2575C35.5 32.3997 32.1421 35.7575 28 35.7575H8C3.85786 35.7575 0.5 32.3997 0.5 28.2575V8.25752C0.5 4.11539 3.85786 0.757523 8 0.757523Z" stroke="white" stroke-opacity="0.08"/>
<path d="M23.5 14.2575C23.5 14.2575 25 15.7575 25 18.2575C25 20.7575 23.5 22.2575 23.5 22.2575M26.5 11.2575C26.5 11.2575 29 13.7575 29 18.2575C29 22.7575 26.5 25.2575 26.5 25.2575M12.5 14.2575C12.5 14.2575 11 15.7575 11 18.2575C11 20.7575 12.5 22.2575 12.5 22.2575M9.5 11.2575C9.5 11.2575 7 13.7575 7 18.2575C7 22.7575 9.5 25.2575 9.5 25.2575M18 19.2575C18.5523 19.2575 19 18.8098 19 18.2575C19 17.7052 18.5523 17.2575 18 17.2575C17.4477 17.2575 17 17.7052 17 18.2575C17 18.8098 17.4477 19.2575 18 19.2575Z" stroke="url(#paint1_linear_253_20401)" stroke-width="1.5" stroke-linecap="round" stroke-linejoin="round"/>
</g>
<defs>
<radialGradient id="paint0_radial_253_20401" cx="0" cy="0" r="1" gradientUnits="userSpaceOnUse" gradientTransform="translate(18 -17.7425) rotate(90) scale(54)">
<stop offset="0.612862" stop-color="#245337" stop-opacity="0"/>
<stop offset="1" stop-color="#3F7BC3"/>
</radialGradient>
<linearGradient id="paint1_linear_253_20401" x1="7.00593" y1="18.2575" x2="29.0267" y2="18.2575" gradientUnits="userSpaceOnUse">
<stop stop-color="#61BFF9"/>
<stop offset="1" stop-color="#61F9F9"/>
</linearGradient>
<clipPath id="clip0_253_20401">
<rect width="36" height="36" fill="white" transform="translate(0 0.257523)"/>
</clipPath>
</defs>
</svg>
