<svg width="36" height="37" viewBox="0 0 36 37" fill="none" xmlns="http://www.w3.org/2000/svg">
<g clip-path="url(#clip0_253_20411)">
<path d="M28 0.757523H8C3.58172 0.757523 0 4.33924 0 8.75752V28.7575C0 33.1758 3.58172 36.7575 8 36.7575H28C32.4183 36.7575 36 33.1758 36 28.7575V8.75752C36 4.33924 32.4183 0.757523 28 0.757523Z" fill="#040F24"/>
<path d="M28 0.757523H8C3.58172 0.757523 0 4.33924 0 8.75752V28.7575C0 33.1758 3.58172 36.7575 8 36.7575H28C32.4183 36.7575 36 33.1758 36 28.7575V8.75752C36 4.33924 32.4183 0.757523 28 0.757523Z" fill="url(#paint0_radial_253_20411)"/>
<path d="M8 1.25752H28C32.1421 1.25752 35.5 4.61539 35.5 8.75752V28.7575C35.5 32.8997 32.1421 36.2575 28 36.2575H8C3.85786 36.2575 0.5 32.8997 0.5 28.7575V8.75752C0.5 4.61539 3.85786 1.25752 8 1.25752Z" stroke="white" stroke-opacity="0.08"/>
<g clip-path="url(#clip1_253_20411)">
<path d="M18 28.2575C18.5523 28.2575 19 28.7052 19 29.2575C19 29.8098 18.5523 30.2575 18 30.2575C17.4477 30.2575 17 29.8098 17 29.2575C17 28.7052 17.4477 28.2575 18 28.2575ZM18 28.2575V19.2575M9.52844 14.5512L17.7086 19.0957C17.8898 19.1963 18.1102 19.1963 18.2914 19.0957L26.5 14.5354M9 15.2575C9.55228 15.2575 10 14.8098 10 14.2575C10 13.7052 9.55228 13.2575 9 13.2575C8.44772 13.2575 8 13.7052 8 14.2575C8 14.8098 8.44772 15.2575 9 15.2575ZM9 25.2575C9.55228 25.2575 10 24.8098 10 24.2575C10 23.7052 9.55228 23.2575 9 23.2575C8.44772 23.2575 8 23.7052 8 24.2575C8 24.8098 8.44772 25.2575 9 25.2575ZM27 14.6106V23.9045C27 24.1224 26.8819 24.3231 26.6914 24.429L18.2914 29.0956C18.1102 29.1963 17.8898 29.1963 17.7086 29.0956L9.30861 24.429C9.11814 24.3231 9 24.1224 9 23.9045L8.99998 14.6106C8.99998 14.3927 9.11812 14.1919 9.3086 14.0861L17.7086 9.4194C17.8898 9.31873 18.1102 9.31873 18.2914 9.4194L26.6914 14.0861C26.8818 14.1919 27 14.3927 27 14.6106Z" stroke="url(#paint1_linear_253_20411)" stroke-width="1.5" stroke-linecap="round" stroke-linejoin="round"/>
</g>
</g>
<defs>
<radialGradient id="paint0_radial_253_20411" cx="0" cy="0" r="1" gradientUnits="userSpaceOnUse" gradientTransform="translate(18 -17.2425) rotate(90) scale(54)">
<stop offset="0.612862" stop-color="#245337" stop-opacity="0"/>
<stop offset="1" stop-color="#3F7BC3"/>
</radialGradient>
<linearGradient id="paint1_linear_253_20411" x1="8.00512" y1="19.8007" x2="27.0231" y2="19.8007" gradientUnits="userSpaceOnUse">
<stop stop-color="#61BFF9"/>
<stop offset="1" stop-color="#61F9F9"/>
</linearGradient>
<clipPath id="clip0_253_20411">
<rect width="36" height="36" fill="white" transform="translate(0 0.757523)"/>
</clipPath>
<clipPath id="clip1_253_20411">
<rect width="24" height="24" fill="white" transform="translate(6 7.25752)"/>
</clipPath>
</defs>
</svg>
