<svg width="36" height="37" viewBox="0 0 36 37" fill="none" xmlns="http://www.w3.org/2000/svg">
<g clip-path="url(#clip0_253_20392)">
<path d="M28 0.757523H8C3.58172 0.757523 0 4.33924 0 8.75752V28.7575C0 33.1758 3.58172 36.7575 8 36.7575H28C32.4183 36.7575 36 33.1758 36 28.7575V8.75752C36 4.33924 32.4183 0.757523 28 0.757523Z" fill="#040F24"/>
<path d="M28 0.757523H8C3.58172 0.757523 0 4.33924 0 8.75752V28.7575C0 33.1758 3.58172 36.7575 8 36.7575H28C32.4183 36.7575 36 33.1758 36 28.7575V8.75752C36 4.33924 32.4183 0.757523 28 0.757523Z" fill="url(#paint0_radial_253_20392)"/>
<path d="M8 1.25752H28C32.1421 1.25752 35.5 4.61539 35.5 8.75752V28.7575C35.5 32.8997 32.1421 36.2575 28 36.2575H8C3.85786 36.2575 0.5 32.8997 0.5 28.7575V8.75752C0.5 4.61539 3.85786 1.25752 8 1.25752Z" stroke="white" stroke-opacity="0.08"/>
<path d="M16 23.7575H15.3333C14.2288 23.7575 13.3333 22.8622 13.3333 21.7577C13.3333 21.0859 13.3333 20.3786 13.3333 19.8686C13.3333 19.3131 12 18.7575 12 18.7575C12 18.7575 13.3333 18.2019 13.3333 17.6464C13.3333 17.1934 13.3333 16.4634 13.3333 15.7575C13.3333 14.6529 14.2288 13.7575 15.3333 13.7575H16M20 23.7575H20.6667C21.7712 23.7575 22.6667 22.8622 22.6667 21.7577C22.6667 21.0859 22.6667 20.3786 22.6667 19.8686C22.6667 19.3131 24 18.7575 24 18.7575C24 18.7575 22.6667 18.2019 22.6667 17.6464C22.6667 17.1934 22.6667 16.4634 22.6667 15.7575C22.6667 14.6529 21.7712 13.7575 20.6667 13.7575H20M27 10.3575V27.1575C27 27.4889 26.7314 27.7575 26.4 27.7575H9.6C9.26863 27.7575 9 27.4889 9 27.1575V10.3575C9 10.0262 9.26863 9.75752 9.6 9.75752H26.4C26.7314 9.75752 27 10.0262 27 10.3575Z" stroke="url(#paint1_linear_253_20392)" stroke-width="1.5" stroke-linecap="round" stroke-linejoin="round"/>
</g>
<defs>
<radialGradient id="paint0_radial_253_20392" cx="0" cy="0" r="1" gradientUnits="userSpaceOnUse" gradientTransform="translate(18 -17.2425) rotate(90) scale(54)">
<stop offset="0.612862" stop-color="#245337" stop-opacity="0"/>
<stop offset="1" stop-color="#3F7BC3"/>
</radialGradient>
<linearGradient id="paint1_linear_253_20392" x1="9.00485" y1="18.7575" x2="27.0218" y2="18.7575" gradientUnits="userSpaceOnUse">
<stop stop-color="#61BFF9"/>
<stop offset="1" stop-color="#61F9F9"/>
</linearGradient>
<clipPath id="clip0_253_20392">
<rect width="36" height="36" fill="white" transform="translate(0 0.757523)"/>
</clipPath>
</defs>
</svg>
