<svg width="294" height="58" viewBox="0 0 294 58" fill="none" xmlns="http://www.w3.org/2000/svg">
<g clip-path="url(#clip0_255_86100)">
<path d="M220.869 28.2218C220.601 27.4798 220.131 26.8271 219.513 26.337C218.84 25.8134 218.001 25.5481 217.149 25.5891C216.582 25.5694 216.017 25.6795 215.499 25.9111C214.98 26.1427 214.522 26.4896 214.158 26.9254C213.434 28.0513 213.049 29.3615 213.049 30.6999C213.049 32.0383 213.434 33.3486 214.158 34.4745C214.527 34.9 214.989 35.2367 215.506 35.4594C216.024 35.6822 216.586 35.7852 217.149 35.7609C217.976 35.7959 218.79 35.5537 219.463 35.0728C220.111 34.646 220.62 34.0395 220.929 33.3276L224.459 34.9432C224.459 34.9432 224.319 35.2523 224.24 35.4119C223.855 36.1682 223.33 36.8449 222.694 37.4064C221.984 38.0186 221.17 38.4983 220.291 38.8224C219.254 39.1899 218.159 39.3689 217.06 39.351C215.567 39.3768 214.09 39.0343 212.761 38.3537C211.498 37.6861 210.459 36.6634 209.77 35.4119C209.002 33.9646 208.624 32.3425 208.673 30.7049C208.618 29.0611 209.003 27.4326 209.79 25.988C210.481 24.7382 211.52 23.7161 212.781 23.0461C214.097 22.3677 215.56 22.0251 217.04 22.0489C218.357 22.0235 219.665 22.2749 220.879 22.7868C221.97 23.2552 222.919 24.0013 223.631 24.9508C223.953 25.4508 224.236 25.9741 224.479 26.5165L220.869 28.2218Z" fill="url(#paint0_linear_255_86100)"/>
<path d="M259.41 30.6749C259.463 32.3259 259.055 33.9591 258.233 35.3918C257.481 36.6545 256.38 37.6727 255.062 38.3237C253.67 39.0092 252.135 39.3512 250.584 39.3209C249.031 39.3455 247.493 39.0039 246.097 38.3237C244.787 37.6792 243.689 36.6719 242.935 35.4217C242.169 33.9692 241.769 32.3518 241.769 30.7098C241.769 29.0677 242.169 27.4503 242.935 25.9978C243.683 24.7328 244.781 23.7112 246.097 23.056C247.501 22.3975 249.033 22.0561 250.584 22.0561C252.135 22.0561 253.667 22.3975 255.072 23.056C256.39 23.7106 257.491 24.7321 258.243 25.9978C259.068 27.4296 259.475 29.0634 259.42 30.7147M255.431 30.7147C255.479 30.0308 255.39 29.3442 255.169 28.6951C254.948 28.0461 254.6 27.4477 254.144 26.9352C253.146 26.0923 251.881 25.6298 250.574 25.6298C249.267 25.6298 248.003 26.0923 247.004 26.9352C246.17 28.0184 245.717 29.3474 245.717 30.7147C245.717 32.0821 246.17 33.4111 247.004 34.4943C248.003 35.3373 249.267 35.7997 250.574 35.7997C251.881 35.7997 253.146 35.3373 254.144 34.4943C254.599 33.9812 254.947 33.3827 255.167 32.7338C255.388 32.0849 255.478 31.3986 255.431 30.7147Z" fill="url(#paint1_linear_255_86100)"/>
<path d="M179.134 39.1009V22.2475H185.895C186.985 22.2212 188.065 22.4536 189.047 22.9256C189.908 23.3576 190.622 24.0341 191.101 24.8703C191.597 25.7879 191.844 26.8192 191.819 27.862C191.858 28.9086 191.602 29.9452 191.081 30.8537C190.596 31.6697 189.872 32.3172 189.007 32.7086L192.377 39.1208H188.089L185.098 33.3568H183.103V39.1208L179.134 39.1009ZM183.063 30.1257H184.998C185.705 30.1709 186.407 29.9778 186.992 29.5772C187.232 29.3645 187.42 29.0986 187.539 28.8009C187.658 28.5032 187.707 28.1817 187.68 27.862C187.68 26.3063 186.783 25.5284 184.978 25.5284H183.043L183.063 30.1257Z" fill="url(#paint2_linear_255_86100)"/>
<path d="M263.101 39.0916V22.2382H269.813C270.906 22.2104 271.991 22.4464 272.974 22.9263C273.834 23.3547 274.549 24.0277 275.028 24.861C275.524 25.7786 275.772 26.8099 275.746 27.8527C275.78 28.8989 275.525 29.9341 275.008 30.8444C274.519 31.6612 273.792 32.3085 272.924 32.6993L276.305 39.1115H272.017L269.025 33.3475H267.03V39.1115L263.101 39.0916ZM267.03 30.1164H268.965C269.673 30.1632 270.375 29.97 270.96 29.5679C271.206 29.3598 271.398 29.095 271.52 28.7962C271.641 28.4975 271.689 28.1737 271.658 27.8527C271.658 26.297 270.75 25.5192 268.945 25.5192H267.01L267.03 30.1164Z" fill="url(#paint3_linear_255_86100)"/>
<path d="M78.0745 22.248H82.7016L86.6308 32.6891H86.8103L90.7394 22.248H95.3666V39.1014H91.7267V28.75H91.597L87.8873 39.0017H85.5637L81.844 28.6902H81.7144V39.1014H78.0745V22.248Z" fill="url(#paint4_linear_255_86100)"/>
<path d="M109.218 22.248H113.097V33.4271C113.132 34.5677 112.834 35.6938 112.24 36.6681C111.66 37.5539 110.83 38.248 109.856 38.6626C107.564 39.5803 105.007 39.5803 102.716 38.6626C101.742 38.248 100.912 37.5539 100.332 36.6681C99.7383 35.6938 99.4404 34.5677 99.4749 33.4271V22.248H103.364V33.2177C103.351 33.5643 103.418 33.9093 103.559 34.2258C103.701 34.5424 103.914 34.8219 104.182 35.0426C104.782 35.5152 105.533 35.7559 106.296 35.7207C107.065 35.7537 107.821 35.5135 108.43 35.0426C108.695 34.8199 108.905 34.5397 109.045 34.2235C109.185 33.9073 109.251 33.5633 109.238 33.2177L109.218 22.248Z" fill="url(#paint5_linear_255_86100)"/>
<path d="M116.985 39.1012V22.2479H120.874V35.8003H127.576V39.1012H116.985Z" fill="url(#paint6_linear_255_86100)"/>
<path d="M175.014 22.2479H171.125V39.1012H175.014V22.2479Z" fill="url(#paint7_linear_255_86100)"/>
<path d="M163.726 23.3552C162.286 22.6305 160.69 22.2709 159.079 22.3081H152.796V39.1016H159.079C160.687 39.1367 162.279 38.7772 163.716 38.0545C165.015 37.3819 166.087 36.3413 166.797 35.0628C167.517 33.7141 167.894 32.2088 167.894 30.6799C167.894 29.151 167.517 27.6457 166.797 26.297C166.075 25.0434 165.009 24.0225 163.726 23.3552ZM162.489 34.3248C161.995 34.7741 161.415 35.1196 160.785 35.3405C160.154 35.5615 159.486 35.6536 158.819 35.6113H156.825V25.6887H158.819C159.49 25.6238 160.167 25.7081 160.802 25.9357C161.436 26.1634 162.012 26.5286 162.489 27.0052C162.966 27.4818 163.331 28.0581 163.559 28.6925C163.786 29.327 163.87 30.004 163.806 30.6749C163.849 31.3456 163.754 32.0181 163.528 32.6509C163.301 33.2838 162.948 33.8636 162.489 34.3547V34.3248Z" fill="url(#paint8_linear_255_86100)"/>
<path d="M206.029 25.5091V22.308H195.777V39.1015H206.029V35.9103H199.796V32.1009H205.301V29.0194H199.796V25.5091H206.029Z" fill="url(#paint9_linear_255_86100)"/>
<path d="M288.969 22.3079L285.688 29.4581L285.649 29.3583L282.388 22.3079H277.83L283.644 33.5667V39.1014H287.663L287.673 33.5467L293.477 22.3079H288.969Z" fill="url(#paint10_linear_255_86100)"/>
<path d="M148.029 22.248H144.14V39.1014H148.029V22.248Z" fill="url(#paint11_linear_255_86100)"/>
<path d="M128.006 25.5589V22.248H140.631V25.5589H136.103V39.1014H132.543V25.5589H128.006Z" fill="url(#paint12_linear_255_86100)"/>
<path d="M226.903 25.5589V22.248H239.528V25.5589H235V39.1014H231.44V25.5589H226.903Z" fill="url(#paint13_linear_255_86100)"/>
<path d="M54.498 46.2812C53.8917 46.8844 53.4105 47.6016 53.0822 48.3914C52.7539 49.1812 52.5848 50.0281 52.5848 50.8834C52.5848 51.7387 52.7539 52.5856 53.0822 53.3754C53.4105 54.1653 53.8917 54.8824 54.498 55.4857C55.7259 56.7079 57.3878 57.394 59.1202 57.394C60.8527 57.394 62.5146 56.7079 63.7424 55.4857C64.3488 54.8824 64.83 54.1653 65.1583 53.3754C65.4866 52.5856 65.6556 51.7387 65.6556 50.8834C65.6556 50.0281 65.4866 49.1812 65.1583 48.3914C64.83 47.6016 64.3488 46.8844 63.7424 46.2812C62.5146 45.059 60.8527 44.3728 59.1202 44.3728C57.3878 44.3728 55.7259 45.059 54.498 46.2812Z" fill="url(#paint14_linear_255_86100)"/>
<path d="M28.1208 1.90441C27.5145 2.50768 27.0333 3.22482 26.705 4.01463C26.3767 4.80444 26.2076 5.65134 26.2076 6.50668C26.2076 7.36201 26.3767 8.2089 26.705 8.99871C27.0333 9.78851 27.5145 10.5057 28.1208 11.1089C29.3487 12.3311 31.0106 13.0173 32.743 13.0173C34.4755 13.0173 36.1374 12.3311 37.3652 11.1089C37.9716 10.5057 38.4528 9.78851 38.7811 8.99871C39.1094 8.2089 39.2784 7.36201 39.2784 6.50668C39.2784 5.65134 39.1094 4.80444 38.7811 4.01463C38.4528 3.22482 37.9716 2.50768 37.3652 1.90441C36.1374 0.682212 34.4755 -0.00393677 32.743 -0.00393677C31.0106 -0.00393677 29.3487 0.682212 28.1208 1.90441Z" fill="url(#paint15_linear_255_86100)"/>
<path d="M28.1208 30.8283C27.5145 31.4316 27.0333 32.1487 26.705 32.9385C26.3767 33.7284 26.2076 34.5753 26.2076 35.4306C26.2076 36.2859 26.3767 37.1328 26.705 37.9226C27.0333 38.7124 27.5145 39.4296 28.1208 40.0328C29.3487 41.255 31.0106 41.9412 32.743 41.9412C34.4755 41.9412 36.1374 41.255 37.3652 40.0328C37.9716 39.4296 38.4528 38.7124 38.7811 37.9226C39.1094 37.1328 39.2784 36.2859 39.2784 35.4306C39.2784 34.5753 39.1094 33.7284 38.7811 32.9385C38.4528 32.1487 37.9716 31.4316 37.3652 30.8283C36.1374 29.6061 34.4755 28.92 32.743 28.92C31.0106 28.92 29.3487 29.6061 28.1208 30.8283Z" fill="url(#paint16_linear_255_86100)"/>
<path d="M1.9145 46.2819C1.00537 47.1952 0.387172 48.3573 0.137928 49.6216C-0.111316 50.8859 0.0195668 52.1958 0.514068 53.3858C1.00857 54.5758 1.84451 55.5926 2.9164 56.3079C3.98828 57.0233 5.24806 57.405 6.53671 57.405C7.82537 57.405 9.08513 57.0233 10.157 56.3079C11.2289 55.5926 12.0648 54.5758 12.5593 53.3858C13.0538 52.1958 13.1847 50.8859 12.9355 49.6216C12.6863 48.3573 12.068 47.1952 11.1589 46.2819C10.5543 45.6707 9.83442 45.1855 9.04102 44.8544C8.24763 44.5233 7.39644 44.3528 6.53671 44.3528C5.67699 44.3528 4.8258 44.5233 4.0324 44.8544C3.23901 45.1855 2.51915 45.6707 1.9145 46.2819Z" fill="url(#paint17_linear_255_86100)"/>
<path d="M53.7393 39.6601L40.4062 16.564" stroke="url(#paint18_linear_255_86100)" stroke-width="4.78259" stroke-miterlimit="10" stroke-linecap="square"/>
<path d="M19.3571 52.5447H46.3024" stroke="url(#paint19_linear_255_86100)" stroke-width="4.78259" stroke-miterlimit="10" stroke-linecap="square"/>
<path d="M24.7419 16.5639L11.6681 39.2112" stroke="url(#paint20_linear_255_86100)" stroke-width="4.78259" stroke-miterlimit="10" stroke-linecap="square"/>
</g>
<defs>
<linearGradient id="paint0_linear_255_86100" x1="208.672" y1="30.6997" x2="224.498" y2="30.6997" gradientUnits="userSpaceOnUse">
<stop stop-color="#61BFF9"/>
<stop offset="1" stop-color="#61F9F9"/>
</linearGradient>
<linearGradient id="paint1_linear_255_86100" x1="241.774" y1="30.6894" x2="259.446" y2="30.6894" gradientUnits="userSpaceOnUse">
<stop stop-color="#61BFF9"/>
<stop offset="1" stop-color="#61F9F9"/>
</linearGradient>
<linearGradient id="paint2_linear_255_86100" x1="179.138" y1="30.6832" x2="192.393" y2="30.6832" gradientUnits="userSpaceOnUse">
<stop stop-color="#61BFF9"/>
<stop offset="1" stop-color="#61F9F9"/>
</linearGradient>
<linearGradient id="paint3_linear_255_86100" x1="263.105" y1="30.6738" x2="276.321" y2="30.6738" gradientUnits="userSpaceOnUse">
<stop stop-color="#61BFF9"/>
<stop offset="1" stop-color="#61F9F9"/>
</linearGradient>
<linearGradient id="paint4_linear_255_86100" x1="78.0791" y1="30.6747" x2="95.3876" y2="30.6747" gradientUnits="userSpaceOnUse">
<stop stop-color="#61BFF9"/>
<stop offset="1" stop-color="#61F9F9"/>
</linearGradient>
<linearGradient id="paint5_linear_255_86100" x1="99.4758" y1="30.7995" x2="113.116" y2="30.7995" gradientUnits="userSpaceOnUse">
<stop stop-color="#61BFF9"/>
<stop offset="1" stop-color="#61F9F9"/>
</linearGradient>
<linearGradient id="paint6_linear_255_86100" x1="116.988" y1="30.6745" x2="127.589" y2="30.6745" gradientUnits="userSpaceOnUse">
<stop stop-color="#61BFF9"/>
<stop offset="1" stop-color="#61F9F9"/>
</linearGradient>
<linearGradient id="paint7_linear_255_86100" x1="171.126" y1="30.6745" x2="175.018" y2="30.6745" gradientUnits="userSpaceOnUse">
<stop stop-color="#61BFF9"/>
<stop offset="1" stop-color="#61F9F9"/>
</linearGradient>
<linearGradient id="paint8_linear_255_86100" x1="152.8" y1="30.7047" x2="167.913" y2="30.7047" gradientUnits="userSpaceOnUse">
<stop stop-color="#61BFF9"/>
<stop offset="1" stop-color="#61F9F9"/>
</linearGradient>
<linearGradient id="paint9_linear_255_86100" x1="195.78" y1="30.7048" x2="206.041" y2="30.7048" gradientUnits="userSpaceOnUse">
<stop stop-color="#61BFF9"/>
<stop offset="1" stop-color="#61F9F9"/>
</linearGradient>
<linearGradient id="paint10_linear_255_86100" x1="277.834" y1="30.7046" x2="293.496" y2="30.7046" gradientUnits="userSpaceOnUse">
<stop stop-color="#61BFF9"/>
<stop offset="1" stop-color="#61F9F9"/>
</linearGradient>
<linearGradient id="paint11_linear_255_86100" x1="144.141" y1="30.6747" x2="148.034" y2="30.6747" gradientUnits="userSpaceOnUse">
<stop stop-color="#61BFF9"/>
<stop offset="1" stop-color="#61F9F9"/>
</linearGradient>
<linearGradient id="paint12_linear_255_86100" x1="128.009" y1="30.6747" x2="140.646" y2="30.6747" gradientUnits="userSpaceOnUse">
<stop stop-color="#61BFF9"/>
<stop offset="1" stop-color="#61F9F9"/>
</linearGradient>
<linearGradient id="paint13_linear_255_86100" x1="226.906" y1="30.6747" x2="239.543" y2="30.6747" gradientUnits="userSpaceOnUse">
<stop stop-color="#61BFF9"/>
<stop offset="1" stop-color="#61F9F9"/>
</linearGradient>
<linearGradient id="paint14_linear_255_86100" x1="52.5884" y1="50.8834" x2="65.6715" y2="50.8834" gradientUnits="userSpaceOnUse">
<stop stop-color="#61BFF9"/>
<stop offset="1" stop-color="#61F9F9"/>
</linearGradient>
<linearGradient id="paint15_linear_255_86100" x1="26.2112" y1="6.50667" x2="39.2943" y2="6.50667" gradientUnits="userSpaceOnUse">
<stop stop-color="#61BFF9"/>
<stop offset="1" stop-color="#61F9F9"/>
</linearGradient>
<linearGradient id="paint16_linear_255_86100" x1="26.2112" y1="35.4306" x2="39.2943" y2="35.4306" gradientUnits="userSpaceOnUse">
<stop stop-color="#61BFF9"/>
<stop offset="1" stop-color="#61F9F9"/>
</linearGradient>
<linearGradient id="paint17_linear_255_86100" x1="0.0182877" y1="50.8789" x2="13.0745" y2="50.8789" gradientUnits="userSpaceOnUse">
<stop stop-color="#61BFF9"/>
<stop offset="1" stop-color="#61F9F9"/>
</linearGradient>
<linearGradient id="paint18_linear_255_86100" x1="40.4098" y1="28.112" x2="53.7555" y2="28.112" gradientUnits="userSpaceOnUse">
<stop stop-color="#61BFF9"/>
<stop offset="1" stop-color="#61F9F9"/>
</linearGradient>
<linearGradient id="paint19_linear_255_86100" x1="19.3643" y1="53.0447" x2="46.3351" y2="53.0447" gradientUnits="userSpaceOnUse">
<stop stop-color="#61BFF9"/>
<stop offset="1" stop-color="#61F9F9"/>
</linearGradient>
<linearGradient id="paint20_linear_255_86100" x1="11.6716" y1="27.8875" x2="24.7578" y2="27.8875" gradientUnits="userSpaceOnUse">
<stop stop-color="#61BFF9"/>
<stop offset="1" stop-color="#61F9F9"/>
</linearGradient>
<clipPath id="clip0_255_86100">
<rect width="293.477" height="57.3911" fill="white"/>
</clipPath>
</defs>
</svg>
