<svg width="227" height="46" viewBox="0 0 227 46" fill="none" xmlns="http://www.w3.org/2000/svg">
<g clip-path="url(#clip0_253_7924)">
<path d="M170.839 22.6332C170.631 22.0592 170.268 21.5544 169.79 21.1753C169.269 20.7703 168.621 20.5651 167.962 20.5968C167.523 20.5816 167.086 20.6668 166.685 20.8459C166.284 21.025 165.929 21.2933 165.648 21.6304C165.088 22.5013 164.79 23.5147 164.79 24.55C164.79 25.5852 165.088 26.5987 165.648 27.4695C165.934 27.7987 166.29 28.0591 166.691 28.2314C167.092 28.4037 167.526 28.4834 167.962 28.4646C168.601 28.4916 169.231 28.3043 169.751 27.9323C170.253 27.6022 170.647 27.1331 170.885 26.5825L173.616 27.8321C173.616 27.8321 173.508 28.0712 173.446 28.1946C173.148 28.7796 172.743 29.303 172.25 29.7373C171.702 30.2109 171.072 30.5819 170.392 30.8326C169.59 31.1168 168.743 31.2553 167.892 31.2414C166.738 31.2614 165.596 30.9965 164.568 30.4701C163.591 29.9536 162.787 29.1627 162.254 28.1946C161.66 27.0752 161.368 25.8205 161.405 24.5538C161.363 23.2824 161.661 22.0227 162.269 20.9054C162.804 19.9387 163.608 19.1481 164.583 18.6299C165.601 18.1051 166.732 17.8401 167.877 17.8585C168.896 17.8389 169.908 18.0333 170.847 18.4293C171.69 18.7916 172.424 19.3687 172.976 20.1032C173.224 20.4899 173.443 20.8947 173.631 21.3142L170.839 22.6332Z" fill="white"/>
<path d="M200.65 24.5307C200.69 25.8078 200.375 27.071 199.739 28.1792C199.158 29.1559 198.306 29.9434 197.287 30.447C196.21 30.9772 195.023 31.2417 193.823 31.2183C192.622 31.2373 191.433 30.9731 190.352 30.447C189.339 29.9485 188.49 29.1694 187.907 28.2023C187.315 27.0788 187.005 25.8278 187.005 24.5577C187.005 23.2876 187.315 22.0366 187.907 20.9131C188.485 19.9347 189.335 19.1444 190.352 18.6376C191.438 18.1283 192.623 17.8643 193.823 17.8643C195.023 17.8643 196.208 18.1283 197.294 18.6376C198.314 19.1439 199.166 19.9341 199.747 20.9131C200.385 22.0205 200.7 23.2843 200.657 24.5616M197.572 24.5616C197.609 24.0326 197.54 23.5015 197.369 22.9994C197.199 22.4974 196.929 22.0346 196.577 21.6382C195.804 20.9861 194.826 20.6285 193.815 20.6285C192.805 20.6285 191.826 20.9861 191.054 21.6382C190.409 22.476 190.058 23.5039 190.058 24.5616C190.058 25.6192 190.409 26.6471 191.054 27.485C191.826 28.137 192.805 28.4947 193.815 28.4947C194.826 28.4947 195.804 28.137 196.577 27.485C196.928 27.0881 197.197 26.6252 197.368 26.1233C197.539 25.6214 197.608 25.0905 197.572 24.5616Z" fill="white"/>
<path d="M138.558 31.0481V18.0123H143.787C144.63 17.992 145.465 18.1717 146.225 18.5368C146.891 18.8709 147.444 19.3942 147.814 20.0409C148.197 20.7507 148.389 21.5484 148.369 22.355C148.399 23.1646 148.201 23.9663 147.798 24.669C147.423 25.3002 146.863 25.801 146.194 26.1037L148.801 31.0635H145.484L143.17 26.6051H141.628V31.0635L138.558 31.0481ZM141.597 24.1059H143.093C143.64 24.1409 144.183 23.9916 144.636 23.6817C144.822 23.5171 144.966 23.3115 145.059 23.0812C145.151 22.8509 145.189 22.6023 145.168 22.355C145.168 21.1517 144.474 20.55 143.078 20.55H141.581L141.597 24.1059Z" fill="white"/>
<path d="M203.505 31.0409V18.0051H208.696C209.542 17.9836 210.381 18.1661 211.141 18.5374C211.807 18.8687 212.36 19.3893 212.73 20.0338C213.114 20.7435 213.305 21.5412 213.286 22.3478C213.312 23.157 213.114 23.9578 212.715 24.6619C212.337 25.2936 211.774 25.7943 211.103 26.0966L213.718 31.0563H210.401L208.087 26.5979H206.544V31.0563L203.505 31.0409ZM206.544 24.0988H208.04C208.588 24.135 209.131 23.9855 209.583 23.6745C209.774 23.5135 209.922 23.3087 210.016 23.0776C210.11 22.8466 210.147 22.5961 210.123 22.3478C210.123 21.1445 209.421 20.5429 208.025 20.5429H206.529L206.544 24.0988Z" fill="white"/>
<path d="M60.3896 18.0127H63.9687L67.0078 26.0887H67.1467L70.1858 18.0127H73.7648V31.0485H70.9494V23.0419H70.8491L67.9797 30.9713H66.1825L63.3053 22.9956H63.2051V31.0485H60.3896V18.0127Z" fill="white"/>
<path d="M84.4786 18.0127H87.4791V26.6595C87.5058 27.5418 87.2753 28.4128 86.8158 29.1664C86.3673 29.8515 85.7257 30.3884 84.9722 30.7091C83.1997 31.4189 81.2219 31.4189 79.4494 30.7091C78.6959 30.3884 78.0544 29.8515 77.6059 29.1664C77.1463 28.4128 76.9158 27.5418 76.9425 26.6595V18.0127H79.9508V26.4975C79.9405 26.7656 79.9922 27.0325 80.1019 27.2773C80.2116 27.5221 80.3763 27.7383 80.5833 27.9091C81.0477 28.2746 81.6281 28.4608 82.2185 28.4336C82.8134 28.4591 83.3982 28.2733 83.8692 27.9091C84.0739 27.7368 84.2365 27.5201 84.3448 27.2755C84.453 27.0309 84.5041 26.7648 84.494 26.4975L84.4786 18.0127Z" fill="white"/>
<path d="M90.4863 31.0485V18.0127H93.4946V28.4953H98.678V31.0485H90.4863Z" fill="white"/>
<path d="M135.371 18.0127H132.363V31.0485H135.371V18.0127Z" fill="white"/>
<path d="M126.64 18.8691C125.526 18.3085 124.291 18.0304 123.045 18.0591H118.186V31.0486H123.045C124.289 31.0758 125.52 30.7977 126.632 30.2387C127.637 29.7185 128.466 28.9136 129.015 27.9247C129.572 26.8815 129.864 25.7172 129.864 24.5346C129.864 23.352 129.572 22.1877 129.015 21.1445C128.457 20.1748 127.632 19.3852 126.64 18.8691ZM125.683 27.3539C125.301 27.7014 124.852 27.9686 124.365 28.1395C123.877 28.3105 123.36 28.3817 122.844 28.3489H121.302V20.674H122.844C123.363 20.6238 123.887 20.689 124.378 20.8651C124.869 21.0411 125.314 21.3236 125.683 21.6923C126.052 22.061 126.334 22.5067 126.51 22.9974C126.686 23.4882 126.751 24.0118 126.701 24.5308C126.735 25.0495 126.662 25.5697 126.486 26.0592C126.311 26.5487 126.038 26.9971 125.683 27.377V27.3539Z" fill="white"/>
<path d="M159.36 20.5351V18.0591H151.431V31.0486H159.36V28.5803H154.539V25.6337H158.797V23.2503H154.539V20.5351H159.36Z" fill="white"/>
<path d="M223.514 18.0591L220.976 23.5896L220.945 23.5125L218.423 18.0591H214.898L219.395 26.7676V31.0486H222.503L222.511 26.7522L227 18.0591H223.514Z" fill="white"/>
<path d="M114.498 18.0127H111.49V31.0485H114.498V18.0127Z" fill="white"/>
<path d="M99.0107 20.5736V18.0127H108.776V20.5736H105.274V31.0485H102.52V20.5736H99.0107Z" fill="white"/>
<path d="M175.506 20.5736V18.0127H185.271V20.5736H181.769V31.0485H179.015V20.5736H175.506Z" fill="white"/>
<path d="M42.1537 36.6021C41.6847 37.0687 41.3125 37.6234 41.0585 38.2343C40.8046 38.8452 40.6738 39.5002 40.6738 40.1618C40.6738 40.8234 40.8046 41.4785 41.0585 42.0894C41.3125 42.7003 41.6847 43.255 42.1537 43.7216C43.1034 44.6669 44.3888 45.1977 45.7289 45.1977C47.0689 45.1977 48.3543 44.6669 49.304 43.7216C49.7731 43.255 50.1452 42.7003 50.3992 42.0894C50.6531 41.4785 50.7839 40.8234 50.7839 40.1618C50.7839 39.5002 50.6531 38.8452 50.3992 38.2343C50.1452 37.6234 49.7731 37.0687 49.304 36.6021C48.3543 35.6567 47.0689 35.126 45.7289 35.126C44.3888 35.126 43.1034 35.6567 42.1537 36.6021Z" fill="white"/>
<path d="M21.7511 2.27735C21.2821 2.74397 20.9099 3.29866 20.6559 3.90957C20.402 4.52047 20.2712 5.17554 20.2712 5.83712C20.2712 6.49871 20.402 7.15377 20.6559 7.76467C20.9099 8.37557 21.2821 8.93027 21.7511 9.39689C22.7008 10.3422 23.9863 10.873 25.3263 10.873C26.6663 10.873 27.9518 10.3422 28.9015 9.39689C29.3705 8.93027 29.7426 8.37557 29.9966 7.76467C30.2506 7.15377 30.3813 6.49871 30.3813 5.83712C30.3813 5.17554 30.2506 4.52047 29.9966 3.90957C29.7426 3.29866 29.3705 2.74397 28.9015 2.27735C27.9518 1.33199 26.6663 0.80127 25.3263 0.80127C23.9863 0.80127 22.7008 1.33199 21.7511 2.27735Z" fill="white"/>
<path d="M21.7513 24.6494C21.2823 25.116 20.9101 25.6707 20.6562 26.2816C20.4022 26.8925 20.2715 27.5476 20.2715 28.2092C20.2715 28.8708 20.4022 29.5258 20.6562 30.1367C20.9101 30.7476 21.2823 31.3023 21.7513 31.769C22.701 32.7143 23.9865 33.245 25.3265 33.245C26.6665 33.245 27.952 32.7143 28.9017 31.769C29.3707 31.3023 29.7429 30.7476 29.9968 30.1367C30.2508 29.5258 30.3815 28.8708 30.3815 28.2092C30.3815 27.5476 30.2508 26.8925 29.9968 26.2816C29.7429 25.6707 29.3707 25.116 28.9017 24.6494C27.952 23.7041 26.6665 23.1733 25.3265 23.1733C23.9865 23.1733 22.701 23.7041 21.7513 24.6494Z" fill="white"/>
<path d="M1.48113 36.6025C0.777928 37.3089 0.299765 38.2078 0.106979 39.1857C-0.0858072 40.1637 0.0154286 41.1768 0.397918 42.0972C0.780407 43.0177 1.427 43.8042 2.25608 44.3575C3.08516 44.9108 4.05958 45.2061 5.05634 45.2061C6.05309 45.2061 7.0275 44.9108 7.85658 44.3575C8.68567 43.8042 9.33225 43.0177 9.71474 42.0972C10.0972 41.1768 10.1985 40.1637 10.0057 39.1857C9.81291 38.2078 9.33473 37.3089 8.63153 36.6025C8.16385 36.1298 7.60706 35.7545 6.99338 35.4984C6.3797 35.2422 5.72132 35.1104 5.05634 35.1104C4.39135 35.1104 3.73297 35.2422 3.11929 35.4984C2.50561 35.7545 1.94882 36.1298 1.48113 36.6025Z" fill="white"/>
<path d="M41.5668 31.4806L31.2539 13.6162" stroke="white" stroke-width="3.69926" stroke-miterlimit="10" stroke-linecap="square"/>
<path d="M14.9727 41.4468H35.8145" stroke="white" stroke-width="3.69926" stroke-miterlimit="10" stroke-linecap="square"/>
<path d="M19.1378 13.6162L9.02539 31.1335" stroke="white" stroke-width="3.69926" stroke-miterlimit="10" stroke-linecap="square"/>
</g>
<defs>
<clipPath id="clip0_253_7924">
<rect width="227" height="44.3911" fill="white" transform="translate(0 0.804199)"/>
</clipPath>
</defs>
</svg>
