<svg width="21" height="20" viewBox="0 0 21 20" fill="none" xmlns="http://www.w3.org/2000/svg">
<g clip-path="url(#clip0_253_7916)">
<path d="M10.9844 0C5.46438 0 0.984375 4.48 0.984375 10C0.984375 15.52 5.46438 20 10.9844 20C16.5044 20 20.9844 15.52 20.9844 10C20.9844 4.48 16.5044 0 10.9844 0ZM15.6244 6.8C15.4744 8.38 14.8244 12.22 14.4944 13.99C14.3544 14.74 14.0744 14.99 13.8144 15.02C13.2344 15.07 12.7944 14.64 12.2344 14.27C11.3544 13.69 10.8544 13.33 10.0044 12.77C9.01438 12.12 9.65438 11.76 10.2244 11.18C10.3744 11.03 12.9344 8.7 12.9844 8.49C12.9913 8.45819 12.9904 8.42517 12.9817 8.3938C12.973 8.36244 12.9567 8.33367 12.9344 8.31C12.8744 8.26 12.7944 8.28 12.7244 8.29C12.6344 8.31 11.2344 9.24 8.50438 11.08C8.10438 11.35 7.74437 11.49 7.42437 11.48C7.06437 11.47 6.38437 11.28 5.87437 11.11C5.24437 10.91 4.75437 10.8 4.79437 10.45C4.81437 10.27 5.06438 10.09 5.53438 9.9C8.45438 8.63 10.3944 7.79 11.3644 7.39C14.1444 6.23 14.7144 6.03 15.0944 6.03C15.1744 6.03 15.3644 6.05 15.4844 6.15C15.5844 6.23 15.6144 6.34 15.6244 6.42C15.6144 6.48 15.6344 6.66 15.6244 6.8Z" fill="#141C4B"/>
<path d="M15.6244 6.8C15.4744 8.38 14.8244 12.22 14.4944 13.99C14.3544 14.74 14.0744 14.99 13.8144 15.02C13.2344 15.07 12.7944 14.64 12.2344 14.27C11.3544 13.69 10.8544 13.33 10.0044 12.77C9.01438 12.12 9.65438 11.76 10.2244 11.18C10.3744 11.03 12.9344 8.7 12.9844 8.49C12.9913 8.45819 12.9904 8.42517 12.9817 8.3938C12.973 8.36244 12.9567 8.33367 12.9344 8.31C12.8744 8.26 12.7944 8.28 12.7244 8.29C12.6344 8.31 11.2344 9.24 8.50438 11.08C8.10438 11.35 7.74437 11.49 7.42437 11.48C7.06437 11.47 6.38437 11.28 5.87437 11.11C5.24437 10.91 4.75437 10.8 4.79437 10.45C4.81437 10.27 5.06438 10.09 5.53438 9.9C8.45438 8.63 10.3944 7.79 11.3644 7.39C14.1444 6.23 14.7144 6.03 15.0944 6.03C15.1744 6.03 15.3644 6.05 15.4844 6.15C15.5844 6.23 15.6144 6.34 15.6244 6.42C15.6144 6.48 15.6344 6.66 15.6244 6.8Z" fill="#141C4B"/>
<path d="M10.9844 0C5.46438 0 0.984375 4.48 0.984375 10C0.984375 15.52 5.46438 20 10.9844 20C16.5044 20 20.9844 15.52 20.9844 10C20.9844 4.48 16.5044 0 10.9844 0ZM15.6244 6.8C15.4744 8.38 14.8244 12.22 14.4944 13.99C14.3544 14.74 14.0744 14.99 13.8144 15.02C13.2344 15.07 12.7944 14.64 12.2344 14.27C11.3544 13.69 10.8544 13.33 10.0044 12.77C9.01438 12.12 9.65438 11.76 10.2244 11.18C10.3744 11.03 12.9344 8.7 12.9844 8.49C12.9913 8.45819 12.9904 8.42517 12.9817 8.3938C12.973 8.36244 12.9567 8.33367 12.9344 8.31C12.8744 8.26 12.7944 8.28 12.7244 8.29C12.6344 8.31 11.2344 9.24 8.50438 11.08C8.10438 11.35 7.74437 11.49 7.42437 11.48C7.06437 11.47 6.38437 11.28 5.87437 11.11C5.24437 10.91 4.75437 10.8 4.79437 10.45C4.81437 10.27 5.06438 10.09 5.53438 9.9C8.45438 8.63 10.3944 7.79 11.3644 7.39C14.1444 6.23 14.7144 6.03 15.0944 6.03C15.1744 6.03 15.3644 6.05 15.4844 6.15C15.5844 6.23 15.6144 6.34 15.6244 6.42C15.6144 6.48 15.6344 6.66 15.6244 6.8Z" fill="white"/>
</g>
<defs>
<clipPath id="clip0_253_7916">
<rect x="0.984375" width="20" height="20" rx="10" fill="white"/>
</clipPath>
</defs>
</svg>
